# File produced by Open Asset Import Library (http://www.assimp.sf.net)
# (assimp v3.1.187496374)

mtllib Iowa.obj.mtl

# 286 vertex positions
v  6.29968 -6.18245 0
v  6.02021 -6.20412 0
v  6.34926 -5.57573 0
v  5.91203 -6.19545 0
v  5.56946 -6.03944 0
v  6.40335 -5.25937 0
v  5.76328 -6.15211 0
v  4.8798 -5.5584 0
v  6.45294 -5.21603 0
v  4.79416 -5.51506 0
v  7.30486 -4.29296 0
v  6.63775 -5.12069 0
v  7.2057 -2.67216 0
v  4.71753 -5.48906 0
v  7.24627 -4.46631 0
v  7.386 -4.08927 0
v  7.22824 -4.55298 0
v  6.98934 -4.97768 0
v  7.22824 -4.62232 0
v  7.12907 -4.87367 0
v  7.2057 -4.74366 0
v  7.29134 -2.81083 0
v  7.7421 -3.36121 0
v  7.7421 -3.33954 0
v  4.63639 -5.48039 0
v  7.16964 -2.52481 0
v  4.55075 -5.48039 0
v  3.94223 -5.53239 0
v  7.16513 -1.97876 0
v  2.4322 -5.63207 0
v  0.43085 5.96056 0
v  1.95891 6.02557 0
v  0.164904 -5.75341 0
v  -1.7508 5.89989 0
v  -2.17902 -5.84009 0
v  -5.04132 5.85222 0
v  -8.47607 -0.778332 0
v  -8.45353 -0.856338 0
v  -8.07039 -2.62015 0
v  -4.4328 -5.88776 0
v  -8.45353 -0.934345 0
v  -8.15603 -2.49447 0
v  -8.03433 -2.76316 0
v  -7.96672 -3.51723 0
v  -7.83149 -4.03727 0
v  -7.78641 -4.16295 0
v  -6.26737 -5.88776 0
v  -8.02982 -3.10986 0
v  -7.77289 -4.24095 0
v  -7.74585 -4.852 0
v  -6.72714 -5.87476 0
v  -6.98407 -5.80108 0
v  -7.26354 -5.72741 0
v  -7.07873 -5.77941 0
v  -7.37623 -5.67107 0
v  -7.74134 -5.43705 0
v  -6.8849 -5.85742 0
v  -6.90744 -5.83575 0
v  -7.11479 -5.77941 0
v  -8.4941 -1.09902 0
v  -8.54368 -2.10444 0
v  -8.60228 -1.41105 0
v  -8.62482 -2.0091 0
v  -8.66989 -1.65807 0
v  -8.69243 -1.84009 0
v  -8.68342 -1.92676 0
v  -8.52114 -0.687324 0
v  -8.59327 -0.583315 0
v  -9.43618 1.32351 0
v  -9.45421 1.44052 0
v  -7.31312 5.84355 0
v  -8.89527 -0.20195 0
v  -9.46322 0.898808 0
v  -9.34152 0.534778 0
v  -9.48576 1.10683 0
v  -9.12065 0.123077 0
v  -9.72917 3.97573 0
v  -9.52633 1.5532 0
v  -9.70663 4.08841 0
v  -8.53016 5.85655 0
v  -9.97258 2.47627 0
v  -10.0627 3.226 0
v  -9.82383 3.86306 0
v  -9.91849 2.31159 0
v  -9.77875 1.79155 0
v  -9.88693 2.15125 0
v  -9.87792 1.9779 0
v  -9.84636 1.88256 0
v  -10.0672 2.82297 0
v  -10.0222 2.57595 0
v  -9.97708 3.60737 0
v  -9.87792 3.81538 0
v  -9.76072 4.20108 0
v  -9.85538 4.29209 0
v  -10.0808 5.88689 0
v  -10.0808 4.45677 0
v  2.56743 6.06891 0
v  6.52957 3.6247 0
v  6.59267 3.51203 0
v  6.46646 3.77638 0
v  3.69432 6.09491 0
v  6.42589 3.96273 0
v  6.04275 6.10358 0
v  6.35828 4.66479 0
v  6.85411 5.24984 0
v  6.7279 3.33001 0
v  6.82706 3.252 0
v  6.96229 3.22167 0
v  8.12073 2.28992 0
v  8.19285 2.15558 0
v  7.52123 3.19567 0
v  8.06213 2.49361 0
v  7.80069 3.161 0
v  7.981 2.96165 0
v  7.94494 3.07432 0
v  7.88183 3.13499 0
v  8.24694 2.10791 0
v  7.5032 -1.93109 0
v  8.42274 2.03857 0
v  8.69319 1.84789 0
v  8.30554 2.10791 0
v  9.27016 -0.604984 0
v  9.24311 -0.678657 0
v  7.94043 -1.89642 0
v  9.04027 1.57486 0
v  9.33326 -0.531311 0
v  9.32425 1.33651 0
v  9.50004 -0.396966 0
v  9.78402 0.903142 0
v  9.88318 0.261755 0
v  9.78852 -0.00693391 0
v  9.63527 -0.249621 0
v  9.84712 0.825135 0
v  9.91924 0.617118 0
v  9.91924 0.469772 0
v  9.91023 0.690791 0
v  9.24762 -0.739328 0
v  8.13876 -1.89209 0
v  8.50838 -1.85309 0
v  9.26114 -0.986349 0
v  9.26114 -0.778332 0
v  9.24311 -1.15103 0
v  9.14394 -1.74908 0
v  6.34926 -5.57573 1
v  6.02021 -6.20412 1
v  6.29968 -6.18245 1
v  5.91203 -6.19545 1
v  6.40335 -5.25937 1
v  5.56946 -6.03944 1
v  5.76328 -6.15211 1
v  4.79416 -5.51506 1
v  6.45294 -5.21603 1
v  4.8798 -5.5584 1
v  4.71753 -5.48906 1
v  6.63775 -5.12069 1
v  7.30486 -4.29296 1
v  7.2057 -2.67216 1
v  4.63639 -5.48039 1
v  7.386 -4.08927 1
v  7.29134 -2.81083 1
v  7.16964 -2.52481 1
v  7.24627 -4.46631 1
v  6.98934 -4.97768 1
v  7.22824 -4.55298 1
v  7.22824 -4.62232 1
v  7.12907 -4.87367 1
v  7.2057 -4.74366 1
v  4.55075 -5.48039 1
v  3.94223 -5.53239 1
v  7.16513 -1.97876 1
v  2.4322 -5.63207 1
v  1.95891 6.02557 1
v  0.43085 5.96056 1
v  0.164904 -5.75341 1
v  6.52957 3.6247 1
v  2.56743 6.06891 1
v  6.59267 3.51203 1
v  6.46646 3.77638 1
v  3.69432 6.09491 1
v  6.42589 3.96273 1
v  6.35828 4.66479 1
v  6.04275 6.10358 1
v  6.85411 5.24984 1
v  7.5032 -1.93109 1
v  8.24694 2.10791 1
v  8.19285 2.15558 1
v  6.82706 3.252 1
v  6.7279 3.33001 1
v  8.12073 2.28992 1
v  6.96229 3.22167 1
v  8.06213 2.49361 1
v  7.52123 3.19567 1
v  7.981 2.96165 1
v  7.80069 3.161 1
v  7.94494 3.07432 1
v  7.88183 3.13499 1
v  8.69319 1.84789 1
v  8.42274 2.03857 1
v  8.30554 2.10791 1
v  9.27016 -0.604984 1
v  9.04027 1.57486 1
v  9.24311 -0.678657 1
v  9.33326 -0.531311 1
v  7.94043 -1.89642 1
v  8.13876 -1.89209 1
v  9.24762 -0.739328 1
v  8.50838 -1.85309 1
v  9.26114 -0.778332 1
v  9.26114 -0.986349 1
v  9.24311 -1.15103 1
v  9.14394 -1.74908 1
v  9.32425 1.33651 1
v  9.50004 -0.396966 1
v  9.88318 0.261755 1
v  9.78402 0.903142 1
v  9.78852 -0.00693391 1
v  9.63527 -0.249621 1
v  9.91924 0.469772 1
v  9.91924 0.617118 1
v  9.84712 0.825135 1
v  9.91023 0.690791 1
v  -1.7508 5.89989 1
v  -2.17902 -5.84009 1
v  -8.47607 -0.778332 1
v  -5.04132 5.85222 1
v  -8.45353 -0.856338 1
v  -8.07039 -2.62015 1
v  -4.4328 -5.88776 1
v  -8.45353 -0.934345 1
v  -8.15603 -2.49447 1
v  -8.03433 -2.76316 1
v  -7.96672 -3.51723 1
v  -7.78641 -4.16295 1
v  -7.83149 -4.03727 1
v  -6.26737 -5.88776 1
v  -8.02982 -3.10986 1
v  -7.77289 -4.24095 1
v  -7.74585 -4.852 1
v  -6.72714 -5.87476 1
v  -6.98407 -5.80108 1
v  -7.07873 -5.77941 1
v  -7.26354 -5.72741 1
v  -7.37623 -5.67107 1
v  -7.74134 -5.43705 1
v  -6.90744 -5.83575 1
v  -6.8849 -5.85742 1
v  -7.11479 -5.77941 1
v  -8.4941 -1.09902 1
v  -8.60228 -1.41105 1
v  -8.54368 -2.10444 1
v  -8.66989 -1.65807 1
v  -8.62482 -2.0091 1
v  -8.69243 -1.84009 1
v  -8.68342 -1.92676 1
v  -8.52114 -0.687324 1
v  -8.59327 -0.583315 1
v  -9.43618 1.32351 1
v  -7.31312 5.84355 1
v  -9.45421 1.44052 1
v  -8.89527 -0.20195 1
v  -9.34152 0.534778 1
v  -9.46322 0.898808 1
v  -9.48576 1.10683 1
v  -9.12065 0.123077 1
v  -9.52633 1.5532 1
v  -9.72917 3.97573 1
v  -9.91849 2.31159 1
v  -9.88693 2.15125 1
v  -9.77875 1.79155 1
v  -10.0627 3.226 1
v  -9.97258 2.47627 1
v  -9.70663 4.08841 1
v  -9.82383 3.86306 1
v  -9.97708 3.60737 1
v  -10.0672 2.82297 1
v  -10.0222 2.57595 1
v  -9.87792 3.81538 1
v  -8.53016 5.85655 1
v  -9.76072 4.20108 1
v  -9.85538 4.29209 1
v  -10.0808 5.88689 1
v  -10.0808 4.45677 1
v  -9.87792 1.9779 1
v  -9.84636 1.88256 1
v  7.7421 -3.36121 1
v  7.7421 -3.33954 1

# 0 UV coordinates

# 136 vertex normals
vn 0 0 -1
vn 0 0 1
vn 0.0773027 -0.997008 0
vn 0.996677 -0.0814519 0
vn 0.985696 -0.168533 0
vn 0.65809 -0.75294 0
vn 0.458475 -0.888707 0
vn 0.376782 -0.926302 0
vn 0.597087 -0.802177 0
vn 0.861495 -0.507765 0
vn 0.983185 -0.182612 0
vn 1 0 0
vn 0.979041 -0.203663 0
vn 0.947338 -0.320236 0
vn 0.929007 -0.370063 0
vn 0.898309 -0.439365 0
vn 0.760979 0.648777 0
vn 0.850827 0.525445 0
vn 0.971334 0.237718 0
vn 0.999966 0.00825462 0
vn 0.139628 -0.990204 0
vn 0.0790451 -0.996871 0
vn 0.0218455 -0.999761 0
vn 0.10494 -0.994479 0
vn 0.161499 -0.986873 0
vn 0.98653 -0.163582 0
vn 0.99406 -0.108836 0
vn 0.944825 0.327576 0
vn 0.997252 0.0740899 0
vn 0.938745 -0.344613 0
vn 0.759473 -0.650539 0
vn 0.627314 -0.778766 0
vn 0.736756 -0.676158 0
vn 0.845519 -0.533945 0
vn 0.943181 -0.33228 0
vn 0.985305 -0.170805 0
vn 0.992596 0.121461 0
vn 0.905118 0.425161 0
vn 0.777452 0.628943 0
vn 0.685906 0.727691 0
vn 0.642897 0.765952 0
vn 0.618264 0.785971 0
vn 0.576228 0.817289 0
vn 0.509201 0.860647 0
vn 0 1 0
vn 0.661182 0.750226 0
vn 0.881069 0.472988 0
vn 0.96102 0.276478 0
vn 0.985305 0.170805 0
vn 0.952414 0.304807 0
vn 0.693068 0.720872 0
vn 0.305187 0.952292 0
vn 0.123112 0.992393 0
vn 0.0464706 0.99892 0
vn 0.218893 0.975749 0
vn 0.802712 0.596367 0
vn 0.872483 0.488645 0
vn 0.92328 0.384128 0
vn 0.977114 0.212717 0
vn 0.995394 0.0958636 0
vn 0.762879 -0.646542 0
vn 0.724869 0.688887 0
vn -0.00369069 0.999993 0
vn -0.0230682 0.999734 0
vn -0.0710371 0.997474 0
vn -0.0425027 0.999096 0
vn -0.0277992 0.999614 0
vn -0.0144858 0.999895 0
vn -0.00381517 0.999993 0
vn 0.0106819 0.999943 0
vn 0.0195602 0.999809 0
vn -1 0 0
vn -0.589973 -0.807423 0
vn -0.693068 -0.720872 0
vn -0.901504 -0.432771 0
vn -0.980576 0.196137 0
vn -0.765669 0.643235 0
vn -0.661182 0.750226 0
vn -0.902675 0.430323 0
vn -0.975699 0.219114 0
vn -0.999937 0.0111834 0
vn -0.983756 -0.179512 0
vn -0.89534 -0.445384 0
vn -0.950064 -0.312056 0
vn -0.981184 -0.193076 0
vn -0.99865 -0.0519357 0
vn -0.949361 -0.314188 0
vn -0.802712 -0.596367 0
vn -0.686553 -0.727079 0
vn -0.842244 -0.539097 0
vn -0.988335 -0.152294 0
vn -0.974805 0.22306 0
vn -0.994182 -0.107715 0
vn -0.948401 -0.317073 0
vn -0.881198 -0.472747 0
vn -0.821767 -0.569823 0
vn -0.783954 -0.620819 0
vn -0.896108 -0.443837 0
vn -0.960706 -0.277569 0
vn -0.970972 0.239193 0
vn -0.944825 0.327576 0
vn -0.964522 0.264004 0
vn -0.992421 0.122885 0
vn -0.994634 -0.103454 0
vn -0.814744 -0.57982 0
vn -0.761562 -0.648093 0
vn -0.70927 -0.704937 0
vn -0.826367 -0.563133 0
vn -0.96965 -0.244497 0
vn -0.999915 -0.0130004 0
vn -0.988213 -0.153085 0
vn -0.967816 -0.25166 0
vn -0.941288 -0.337604 0
vn -0.985305 -0.170805 0
vn -0.999022 -0.044217 0
vn -0.99997 -0.00770434 0
vn -0.539623 -0.841907 0
vn -0.447173 -0.894447 0
vn -0.330023 -0.943973 0
vn 0 -1 0
vn -0.22314 -0.974786 0
vn -0.412211 -0.911089 0
vn -0.10922 -0.994018 0
vn -0.0282661 -0.9996 0
vn 0.0211467 -0.999776 0
vn 0.0369528 -0.999317 0
vn 0.0534425 -0.998571 0
vn 0.0658653 -0.997829 0
vn 0.0851501 -0.996368 0
vn -0.106221 -0.994343 0
vn -0.321332 -0.946966 0
vn -0.451503 -0.89227 0
vn -0.57209 -0.820191 0
vn -0.502578 -0.864532 0
vn -0.279713 -0.960084 0
vn -0.0798633 -0.996806 0

# Mesh 'OpenSCAD_Model' with 568 faces
g OpenSCAD_Model
usemtl DefaultMaterial
f  1//1 2//1 3//1
f  2//1 4//1 3//1
f  5//1 6//1 3//1
f  7//1 5//1 3//1
f  4//1 7//1 3//1
f  8//1 6//1 5//1
f  9//1 6//1 10//1
f  10//1 6//1 8//1
f  9//1 11//1 12//1
f  9//1 13//1 11//1
f  14//1 9//1 10//1
f  13//1 9//1 14//1
f  12//1 11//1 15//1
f  13//1 16//1 11//1
f  12//1 17//1 18//1
f  12//1 15//1 17//1
f  17//1 19//1 18//1
f  18//1 19//1 20//1
f  19//1 21//1 20//1
f  22//1 16//1 13//1
f  22//1 23//1 16//1
f  22//1 24//1 23//1
f  13//1 25//1 26//1
f  13//1 14//1 25//1
f  26//1 25//1 27//1
f  28//1 26//1 27//1
f  29//1 26//1 28//1
f  29//1 28//1 30//1
f  31//1 32//1 30//1
f  30//1 33//1 31//1
f  29//1 30//1 32//1
f  31//1 33//1 34//1
f  33//1 35//1 34//1
f  36//1 34//1 37//1
f  37//1 34//1 38//1
f  35//1 38//1 34//1
f  35//1 39//1 38//1
f  35//1 40//1 39//1
f  38//1 39//1 41//1
f  39//1 42//1 41//1
f  39//1 40//1 43//1
f  43//1 40//1 44//1
f  45//1 40//1 46//1
f  46//1 40//1 47//1
f  40//1 45//1 44//1
f  43//1 44//1 48//1
f  47//1 49//1 46//1
f  50//1 49//1 47//1
f  51//1 50//1 47//1
f  51//1 52//1 50//1
f  53//1 50//1 54//1
f  53//1 55//1 50//1
f  50//1 55//1 56//1
f  50//1 52//1 54//1
f  51//1 57//1 58//1
f  51//1 58//1 52//1
f  59//1 53//1 54//1
f  42//1 60//1 41//1
f  61//1 62//1 42//1
f  42//1 62//1 60//1
f  63//1 64//1 61//1
f  61//1 64//1 62//1
f  65//1 63//1 66//1
f  65//1 64//1 63//1
f  36//1 37//1 67//1
f  36//1 67//1 68//1
f  69//1 36//1 68//1
f  70//1 71//1 36//1
f  69//1 70//1 36//1
f  72//1 69//1 68//1
f  73//1 69//1 74//1
f  73//1 75//1 69//1
f  74//1 69//1 76//1
f  76//1 69//1 72//1
f  77//1 70//1 78//1
f  77//1 71//1 70//1
f  79//1 80//1 71//1
f  77//1 79//1 71//1
f  77//1 81//1 82//1
f  82//1 83//1 77//1
f  77//1 84//1 81//1
f  77//1 78//1 84//1
f  78//1 85//1 86//1
f  84//1 78//1 86//1
f  86//1 85//1 87//1
f  87//1 85//1 88//1
f  89//1 81//1 90//1
f  89//1 82//1 81//1
f  91//1 83//1 82//1
f  91//1 92//1 83//1
f  93//1 80//1 79//1
f  94//1 80//1 93//1
f  94//1 95//1 80//1
f  94//1 96//1 95//1
f  97//1 98//1 32//1
f  32//1 98//1 99//1
f  29//1 32//1 99//1
f  100//1 98//1 97//1
f  101//1 100//1 97//1
f  100//1 101//1 102//1
f  101//1 103//1 104//1
f  102//1 101//1 104//1
f  105//1 104//1 103//1
f  29//1 99//1 106//1
f  29//1 106//1 107//1
f  108//1 109//1 107//1
f  107//1 109//1 110//1
f  29//1 107//1 110//1
f  111//1 112//1 108//1
f  108//1 112//1 109//1
f  113//1 114//1 111//1
f  111//1 114//1 112//1
f  115//1 113//1 116//1
f  115//1 114//1 113//1
f  29//1 110//1 117//1
f  29//1 117//1 118//1
f  119//1 120//1 117//1
f  121//1 119//1 117//1
f  117//1 120//1 122//1
f  118//1 117//1 122//1
f  118//1 123//1 124//1
f  118//1 122//1 123//1
f  125//1 126//1 122//1
f  120//1 125//1 122//1
f  125//1 127//1 126//1
f  127//1 128//1 126//1
f  127//1 129//1 130//1
f  127//1 130//1 131//1
f  132//1 127//1 131//1
f  132//1 128//1 127//1
f  129//1 133//1 134//1
f  129//1 134//1 135//1
f  130//1 129//1 135//1
f  134//1 133//1 136//1
f  137//1 138//1 123//1
f  123//1 138//1 124//1
f  139//1 138//1 137//1
f  140//1 137//1 141//1
f  140//1 139//1 137//1
f  140//1 142//1 139//1
f  139//1 142//1 143//1
f  144//2 145//2 146//2
f  144//2 147//2 145//2
f  144//2 148//2 149//2
f  144//2 149//2 150//2
f  144//2 150//2 147//2
f  151//2 148//2 152//2
f  153//2 148//2 151//2
f  149//2 148//2 153//2
f  151//2 152//2 154//2
f  155//2 156//2 152//2
f  156//2 157//2 152//2
f  154//2 152//2 157//2
f  158//2 154//2 157//2
f  157//2 159//2 160//2
f  156//2 159//2 157//2
f  161//2 158//2 157//2
f  162//2 156//2 155//2
f  163//2 164//2 155//2
f  164//2 162//2 155//2
f  163//2 165//2 164//2
f  166//2 165//2 163//2
f  166//2 167//2 165//2
f  168//2 158//2 161//2
f  168//2 161//2 169//2
f  169//2 161//2 170//2
f  171//2 169//2 170//2
f  171//2 172//2 173//2
f  173//2 174//2 171//2
f  172//2 171//2 170//2
f  172//2 175//2 176//2
f  177//2 175//2 172//2
f  177//2 172//2 170//2
f  176//2 175//2 178//2
f  176//2 178//2 179//2
f  180//2 179//2 178//2
f  181//2 182//2 179//2
f  181//2 179//2 180//2
f  182//2 181//2 183//2
f  184//2 185//2 170//2
f  185//2 186//2 170//2
f  186//2 187//2 170//2
f  187//2 188//2 170//2
f  188//2 177//2 170//2
f  186//2 189//2 187//2
f  187//2 189//2 190//2
f  189//2 191//2 190//2
f  190//2 191//2 192//2
f  191//2 193//2 192//2
f  192//2 193//2 194//2
f  194//2 193//2 195//2
f  196//2 194//2 195//2
f  185//2 197//2 198//2
f  185//2 198//2 199//2
f  200//2 197//2 185//2
f  200//2 185//2 184//2
f  200//2 201//2 197//2
f  202//2 200//2 184//2
f  200//2 203//2 201//2
f  204//2 202//2 184//2
f  202//2 205//2 206//2
f  204//2 205//2 202//2
f  206//2 205//2 207//2
f  208//2 206//2 209//2
f  206//2 207//2 209//2
f  207//2 210//2 209//2
f  211//2 210//2 207//2
f  203//2 212//2 201//2
f  203//2 213//2 212//2
f  214//2 215//2 212//2
f  216//2 214//2 212//2
f  216//2 212//2 217//2
f  212//2 213//2 217//2
f  218//2 215//2 214//2
f  219//2 220//2 215//2
f  218//2 219//2 215//2
f  221//2 220//2 219//2
f  222//2 174//2 173//2
f  222//2 223//2 174//2
f  224//2 222//2 225//2
f  226//2 222//2 224//2
f  222//2 226//2 223//2
f  226//2 227//2 223//2
f  227//2 228//2 223//2
f  229//2 227//2 226//2
f  229//2 230//2 227//2
f  231//2 228//2 227//2
f  232//2 228//2 231//2
f  233//2 228//2 234//2
f  235//2 228//2 233//2
f  232//2 234//2 228//2
f  236//2 232//2 231//2
f  233//2 237//2 235//2
f  235//2 237//2 238//2
f  235//2 238//2 239//2
f  238//2 240//2 239//2
f  241//2 238//2 242//2
f  238//2 243//2 242//2
f  244//2 243//2 238//2
f  241//2 240//2 238//2
f  245//2 246//2 239//2
f  240//2 245//2 239//2
f  241//2 242//2 247//2
f  229//2 248//2 230//2
f  230//2 249//2 250//2
f  248//2 249//2 230//2
f  249//2 251//2 250//2
f  250//2 251//2 252//2
f  252//2 251//2 253//2
f  254//2 252//2 253//2
f  255//2 224//2 225//2
f  256//2 255//2 225//2
f  256//2 225//2 257//2
f  225//2 258//2 259//2
f  225//2 259//2 257//2
f  256//2 257//2 260//2
f  261//2 257//2 262//2
f  257//2 263//2 262//2
f  264//2 257//2 261//2
f  260//2 257//2 264//2
f  265//2 259//2 266//2
f  259//2 258//2 266//2
f  267//2 265//2 266//2
f  268//2 269//2 265//2
f  268//2 265//2 267//2
f  270//2 271//2 266//2
f  258//2 272//2 266//2
f  266//2 273//2 270//2
f  271//2 267//2 266//2
f  270//2 273//2 274//2
f  271//2 270//2 275//2
f  276//2 271//2 275//2
f  273//2 277//2 274//2
f  272//2 278//2 279//2
f  258//2 278//2 272//2
f  279//2 278//2 280//2
f  278//2 281//2 280//2
f  281//2 282//2 280//2
f  283//2 269//2 268//2
f  284//2 269//2 283//2
f  159//2 285//2 160//2
f  285//2 286//2 160//2
f  1//3 145//3 2//3
f  1//3 146//3 145//3
f  3//4 146//4 1//4
f  3//4 144//4 146//4
f  6//5 144//5 3//5
f  6//5 148//5 144//5
f  9//6 148//6 6//6
f  9//6 152//6 148//6
f  12//7 152//7 9//7
f  12//7 155//7 152//7
f  18//8 155//8 12//8
f  18//8 163//8 155//8
f  20//9 163//9 18//9
f  20//9 166//9 163//9
f  21//10 166//10 20//10
f  21//10 167//10 166//10
f  19//11 167//11 21//11
f  19//11 165//11 167//11
f  17//12 165//12 19//12
f  17//12 164//12 165//12
f  15//13 164//13 17//13
f  15//13 162//13 164//13
f  11//14 162//14 15//14
f  11//14 156//14 162//14
f  16//15 156//15 11//15
f  16//15 159//15 156//15
f  23//16 159//16 16//16
f  23//16 285//16 159//16
f  24//12 285//12 23//12
f  24//12 286//12 285//12
f  22//17 286//17 24//17
f  22//17 160//17 286//17
f  13//18 160//18 22//18
f  13//18 157//18 160//18
f  26//19 157//19 13//19
f  26//19 161//19 157//19
f  29//20 161//20 26//20
f  29//20 170//20 161//20
f  118//21 170//21 29//21
f  118//21 184//21 170//21
f  124//22 184//22 118//22
f  124//22 204//22 184//22
f  138//23 204//23 124//23
f  138//23 205//23 204//23
f  139//24 205//24 138//24
f  139//24 207//24 205//24
f  143//25 207//25 139//25
f  143//25 211//25 207//25
f  142//26 211//26 143//26
f  142//26 210//26 211//26
f  140//27 210//27 142//27
f  140//27 209//27 210//27
f  141//12 209//12 140//12
f  141//12 208//12 209//12
f  137//28 208//28 141//28
f  137//28 206//28 208//28
f  123//29 206//29 137//29
f  123//29 202//29 206//29
f  122//30 202//30 123//30
f  122//30 200//30 202//30
f  126//31 200//31 122//31
f  126//31 203//31 200//31
f  128//32 203//32 126//32
f  128//32 213//32 203//32
f  132//33 213//33 128//33
f  132//33 217//33 213//33
f  131//34 217//34 132//34
f  131//34 216//34 217//34
f  130//35 216//35 131//35
f  130//35 214//35 216//35
f  135//36 214//36 130//36
f  135//36 218//36 214//36
f  134//12 218//12 135//12
f  134//12 219//12 218//12
f  136//37 219//37 134//37
f  136//37 221//37 219//37
f  133//38 221//38 136//38
f  133//38 220//38 221//38
f  129//39 220//39 133//39
f  129//39 215//39 220//39
f  127//40 215//40 129//40
f  127//40 212//40 215//40
f  125//41 212//41 127//41
f  125//41 201//41 212//41
f  120//42 201//42 125//42
f  120//42 197//42 201//42
f  119//43 197//43 120//43
f  119//43 198//43 197//43
f  121//44 198//44 119//44
f  121//44 199//44 198//44
f  117//45 199//45 121//45
f  117//45 185//45 199//45
f  110//46 185//46 117//46
f  110//46 186//46 185//46
f  109//47 186//47 110//47
f  109//47 189//47 186//47
f  112//48 189//48 109//48
f  112//48 191//48 189//48
f  114//49 191//49 112//49
f  114//49 193//49 191//49
f  115//50 193//50 114//50
f  115//50 195//50 193//50
f  116//51 195//51 115//51
f  116//51 196//51 195//51
f  113//52 196//52 116//52
f  113//52 194//52 196//52
f  111//53 194//53 113//53
f  111//53 192//53 194//53
f  108//54 192//54 111//54
f  108//54 190//54 192//54
f  107//55 190//55 108//55
f  107//55 187//55 190//55
f  106//42 187//42 107//42
f  106//42 188//42 187//42
f  99//56 188//56 106//56
f  99//56 177//56 188//56
f  98//57 177//57 99//57
f  98//57 175//57 177//57
f  100//58 175//58 98//58
f  100//58 178//58 175//58
f  102//59 178//59 100//59
f  102//59 180//59 178//59
f  104//60 180//60 102//60
f  104//60 181//60 180//60
f  105//61 181//61 104//61
f  105//61 183//61 181//61
f  103//62 183//62 105//62
f  103//62 182//62 183//62
f  101//63 182//63 103//63
f  101//63 179//63 182//63
f  97//64 179//64 101//64
f  97//64 176//64 179//64
f  32//65 176//65 97//65
f  32//65 172//65 176//65
f  31//66 172//66 32//66
f  31//66 173//66 172//66
f  34//67 173//67 31//67
f  34//67 222//67 173//67
f  36//68 222//68 34//68
f  36//68 225//68 222//68
f  71//69 225//69 36//69
f  71//69 258//69 225//69
f  80//70 258//70 71//70
f  80//70 278//70 258//70
f  95//71 278//71 80//71
f  95//71 281//71 278//71
f  96//72 281//72 95//72
f  96//72 282//72 281//72
f  94//73 282//73 96//73
f  94//73 280//73 282//73
f  93//74 280//74 94//74
f  93//74 279//74 280//74
f  79//75 279//75 93//75
f  79//75 272//75 279//75
f  77//76 272//76 79//76
f  77//76 266//76 272//76
f  83//77 266//77 77//77
f  83//77 273//77 266//77
f  92//78 273//78 83//78
f  92//78 277//78 273//78
f  91//79 277//79 92//79
f  91//79 274//79 277//79
f  82//80 274//80 91//80
f  82//80 270//80 274//80
f  89//81 270//81 82//81
f  89//81 275//81 270//81
f  90//82 275//82 89//82
f  90//82 276//82 275//82
f  81//83 276//83 90//83
f  81//83 271//83 276//83
f  84//84 271//84 81//84
f  84//84 267//84 271//84
f  86//85 267//85 84//85
f  86//85 268//85 267//85
f  87//86 268//86 86//86
f  87//86 283//86 268//86
f  88//87 283//87 87//87
f  88//87 284//87 283//87
f  85//88 284//88 88//88
f  85//88 269//88 284//88
f  78//89 269//89 85//89
f  78//89 265//89 269//89
f  70//90 265//90 78//90
f  70//90 259//90 265//90
f  69//91 259//91 70//91
f  69//91 257//91 259//91
f  75//92 257//92 69//92
f  75//92 263//92 257//92
f  73//93 263//93 75//93
f  73//93 262//93 263//93
f  74//94 262//94 73//94
f  74//94 261//94 262//94
f  76//95 261//95 74//95
f  76//95 264//95 261//95
f  72//96 264//96 76//96
f  72//96 260//96 264//96
f  68//97 260//97 72//97
f  68//97 256//97 260//97
f  67//96 256//96 68//96
f  67//96 255//96 256//96
f  37//98 255//98 67//98
f  37//98 224//98 255//98
f  38//99 224//99 37//99
f  38//99 226//99 224//99
f  41//72 226//72 38//72
f  41//72 229//72 226//72
f  60//100 229//100 41//100
f  60//100 248//100 229//100
f  62//101 248//101 60//101
f  62//101 249//101 248//101
f  64//102 249//102 62//102
f  64//102 251//102 249//102
f  65//103 251//103 64//103
f  65//103 253//103 251//103
f  66//104 253//104 65//104
f  66//104 254//104 253//104
f  63//105 254//105 66//105
f  63//105 252//105 254//105
f  61//106 252//106 63//106
f  61//106 250//106 252//106
f  42//107 250//107 61//107
f  42//107 230//107 250//107
f  39//108 230//108 42//108
f  39//108 227//108 230//108
f  43//109 227//109 39//109
f  43//109 231//109 227//109
f  48//110 231//110 43//110
f  48//110 236//110 231//110
f  44//111 236//111 48//111
f  44//111 232//111 236//111
f  45//112 232//112 44//112
f  45//112 234//112 232//112
f  46//113 234//113 45//113
f  46//113 233//113 234//113
f  49//114 233//114 46//114
f  49//114 237//114 233//114
f  50//115 237//115 49//115
f  50//115 238//115 237//115
f  56//116 238//116 50//116
f  56//116 244//116 238//116
f  55//117 244//117 56//117
f  55//117 243//117 244//117
f  53//118 243//118 55//118
f  53//118 242//118 243//118
f  59//119 242//119 53//119
f  59//119 247//119 242//119
f  54//120 247//120 59//120
f  54//120 241//120 247//120
f  52//121 241//121 54//121
f  52//121 240//121 241//121
f  58//122 240//122 52//122
f  58//122 245//122 240//122
f  57//74 245//74 58//74
f  57//74 246//74 245//74
f  51//123 246//123 57//123
f  51//123 239//123 246//123
f  47//124 239//124 51//124
f  47//124 235//124 239//124
f  40//120 235//120 47//120
f  40//120 228//120 235//120
f  35//125 228//125 40//125
f  35//125 223//125 228//125
f  33//126 223//126 35//126
f  33//126 174//126 223//126
f  30//127 174//127 33//127
f  30//127 171//127 174//127
f  28//128 171//128 30//128
f  28//128 169//128 171//128
f  27//129 169//129 28//129
f  27//129 168//129 169//129
f  25//120 168//120 27//120
f  25//120 158//120 168//120
f  14//130 158//130 25//130
f  14//130 154//130 158//130
f  10//131 154//131 14//131
f  10//131 151//131 154//131
f  8//132 151//132 10//132
f  8//132 153//132 151//132
f  5//133 153//133 8//133
f  5//133 149//133 153//133
f  7//134 149//134 5//134
f  7//134 150//134 149//134
f  4//135 150//135 7//135
f  4//135 147//135 150//135
f  2//136 147//136 4//136
f  2//136 145//136 147//136

