# File produced by Open Asset Import Library (http://www.assimp.sf.net)
# (assimp v3.1.187496374)

mtllib Arizona (1).obj.mtl

# 194 vertex positions
v  -4.70661 6.87405 0
v  -5.83741 6.25683 0
v  -5.87117 6.33835 0
v  -5.25232 7.23507 0
v  -4.56596 6.80418 0
v  -5.95556 5.94239 0
v  -5.88805 6.15784 0
v  -5.97806 5.76189 0
v  -5.98368 5.42998 0
v  -4.47595 6.81582 0
v  -6.03432 5.04567 0
v  -6.12996 4.60896 0
v  -6.0737 2.75147 0
v  -5.43235 1.40056 0
v  -4.40281 6.86823 0
v  -6.24248 4.24212 0
v  -6.24248 3.57249 0
v  -5.91617 2.16918 0
v  -5.76428 1.76158 0
v  -5.66301 1.58689 0
v  -4.36343 6.91481 0
v  0.924895 8.82471 0
v  3.85035 8.41129 0
v  0.103516 -8.53324 0
v  7.79409 5.56973 0
v  -6.7263 -0.2706 0
v  -6.12996 0.870681 0
v  -6.77131 -0.421994 0
v  -6.94008 -2.61139 0
v  -6.92321 -2.69873 0
v  -5.56737 -5.25497 0
v  5.57187 8.19584 0
v  7.34965 7.95128 0
v  7.87286 6.11126 0
v  7.55218 7.91052 0
v  7.92911 6.89734 0
v  7.93474 7.80571 0
v  5.99381 -9.58136 0
v  4.92489 -9.48237 0
v  1.36934 -9.02236 0
v  1.05992 -8.95831 0
v  0.778622 -8.86514 0
v  0.474824 -8.73122 0
v  -6.94571 -2.78025 0
v  -6.48439 -4.73674 0
v  -7.01322 -2.90253 0
v  -7.67707 -4.03217 0
v  -7.07511 -2.94912 0
v  -7.17637 -2.94912 0
v  -7.29451 -2.93165 0
v  -7.87398 -3.89824 0
v  -7.96399 -3.33343 0
v  -7.8346 -3.05975 0
v  -7.55331 -2.8676 0
v  -8.05401 -3.58381 0
v  -7.99212 -3.80508 0
v  -8.04838 -3.72938 0
v  -8.06526 -3.6828 0
v  -7.6827 -2.85013 0
v  -7.71646 -2.87342 0
v  -7.0301 -2.51822 0
v  -6.95696 -0.730606 0
v  -6.85007 -0.585035 0
v  -7.42954 -1.76708 0
v  -7.3564 -2.27366 0
v  -7.28326 -1.02757 0
v  -7.41828 -1.29542 0
v  -7.46329 -1.99417 0
v  -7.44641 -2.1805 0
v  -7.48017 -2.09316 0
v  -7.47454 -2.01746 0
v  -7.3789 -1.15568 0
v  -6.61378 0.206875 0
v  -6.5519 0.369915 0
v  -6.47876 0.503841 0
v  -6.27623 0.748401 0
v  -6.38875 0.631944 0
v  -2.01181 9.27307 0
v  -4.3128 7.02545 0
v  -4.14965 7.60773 0
v  -4.23404 7.26418 0
v  -2.51814 9.33712 0
v  -3.63207 9.41864 0
v  -3.15949 9.39535 0
v  -3.82335 9.407 0
v  -6.2706 3.79376 0
v  -6.27623 4.01503 0
v  -5.92743 6.08214 0
v  -5.90492 6.14619 0
v  -5.96681 6.52468 0
v  -5.97806 6.75177 0
v  -5.9218 6.39075 0
v  -5.92743 6.99051 0
v  -5.48298 7.31659 0
v  -5.79241 7.20596 0
v  -5.85992 7.13608 0
v  -5.66301 7.2933 0
v  -5.87117 6.33835 1
v  -5.83741 6.25683 1
v  -4.70661 6.87405 1
v  -5.97806 6.75177 1
v  -5.96681 6.52468 1
v  -5.9218 6.39075 1
v  -5.25232 7.23507 1
v  -4.56596 6.80418 1
v  -5.97806 5.76189 1
v  -5.98368 5.42998 1
v  -4.47595 6.81582 1
v  -5.95556 5.94239 1
v  -5.88805 6.15784 1
v  -5.92743 6.08214 1
v  -5.90492 6.14619 1
v  -6.03432 5.04567 1
v  -6.12996 4.60896 1
v  -6.24248 3.57249 1
v  -6.24248 4.24212 1
v  -6.0737 2.75147 1
v  -6.2706 3.79376 1
v  -6.27623 4.01503 1
v  -5.91617 2.16918 1
v  -5.43235 1.40056 1
v  -5.76428 1.76158 1
v  -5.66301 1.58689 1
v  -4.40281 6.86823 1
v  -4.36343 6.91481 1
v  0.924895 8.82471 1
v  3.85035 8.41129 1
v  7.79409 5.56973 1
v  0.103516 -8.53324 1
v  -6.12996 0.870681 1
v  -6.7263 -0.2706 1
v  -6.77131 -0.421994 1
v  -6.94008 -2.61139 1
v  -6.92321 -2.69873 1
v  -5.56737 -5.25497 1
v  5.57187 8.19584 1
v  7.87286 6.11126 1
v  7.34965 7.95128 1
v  7.92911 6.89734 1
v  7.55218 7.91052 1
v  7.93474 7.80571 1
v  4.92489 -9.48237 1
v  5.99381 -9.58136 1
v  1.36934 -9.02236 1
v  0.474824 -8.73122 1
v  0.778622 -8.86514 1
v  1.05992 -8.95831 1
v  -6.94571 -2.78025 1
v  -6.48439 -4.73674 1
v  -7.01322 -2.90253 1
v  -7.07511 -2.94912 1
v  -7.67707 -4.03217 1
v  -7.17637 -2.94912 1
v  -7.29451 -2.93165 1
v  -7.96399 -3.33343 1
v  -7.87398 -3.89824 1
v  -7.8346 -3.05975 1
v  -7.55331 -2.8676 1
v  -8.05401 -3.58381 1
v  -7.99212 -3.80508 1
v  -8.06526 -3.6828 1
v  -8.04838 -3.72938 1
v  -7.71646 -2.87342 1
v  -7.6827 -2.85013 1
v  -6.95696 -0.730606 1
v  -7.0301 -2.51822 1
v  -6.85007 -0.585035 1
v  -7.28326 -1.02757 1
v  -7.42954 -1.76708 1
v  -7.3564 -2.27366 1
v  -7.41828 -1.29542 1
v  -7.46329 -1.99417 1
v  -7.3789 -1.15568 1
v  -7.44641 -2.1805 1
v  -7.47454 -2.01746 1
v  -7.48017 -2.09316 1
v  -6.61378 0.206875 1
v  -6.27623 0.748401 1
v  -6.47876 0.503841 1
v  -6.5519 0.369915 1
v  -6.38875 0.631944 1
v  -4.3128 7.02545 1
v  -2.01181 9.27307 1
v  -4.23404 7.26418 1
v  -4.14965 7.60773 1
v  -2.51814 9.33712 1
v  -3.15949 9.39535 1
v  -3.63207 9.41864 1
v  -3.82335 9.407 1
v  -5.79241 7.20596 1
v  -5.48298 7.31659 1
v  -5.92743 6.99051 1
v  -5.85992 7.13608 1
v  -5.66301 7.2933 1

# 0 UV coordinates

# 92 vertex normals
vn 0 0 -1
vn 0 0 1
vn 0.993015 -0.117992 0
vn 0.989588 -0.143931 0
vn 0.997449 -0.0713856 0
vn 0.999981 -0.00619328 0
vn 0.264237 0.964458 0
vn 0.197297 0.980344 0
vn 0.136282 0.99067 0
vn 0.12418 0.99226 0
vn 0.139929 0.990162 0
vn 0.150926 0.988545 0
vn 0.125501 0.992093 0
vn 0.0904188 0.995904 0
vn 0.0492266 0.998788 0
vn -0.0607706 0.998152 0
vn -0.98395 0.178442 0
vn -0.971131 0.238545 0
vn -0.949654 0.313302 0
vn -0.909297 0.416149 0
vn -0.76367 0.645606 0
vn -0.582455 0.812863 0
vn -0.128307 0.991734 0
vn 0.444924 0.895568 0
vn 0.551745 0.834013 0
vn 0.333221 0.942849 0
vn -0.559478 0.828845 0
vn -0.719167 0.694838 0
vn -0.90719 0.42072 0
vn -0.978241 0.207471 0
vn -0.998775 -0.0494865 0
vn -0.947905 -0.318552 0
vn -0.719167 -0.694838 0
vn -0.923925 -0.382573 0
vn -0.890294 0.455387 0
vn -0.56793 0.823077 0
vn -0.943465 0.331472 0
vn -0.980338 0.197328 0
vn -0.992318 0.12371 0
vn -0.999856 0.0169479 0
vn -0.991432 0.130622 0
vn -0.976849 0.213929 0
vn -0.95604 0.293237 0
vn -0.989133 0.147026 0
vn -0.999677 -0.0254173 0
vn -0.992016 -0.126113 0
vn -0.979518 -0.201358 0
vn -0.965301 -0.261141 0
vn -0.937046 -0.349205 0
vn -0.865143 -0.501525 0
vn -0.628395 -0.777894 0
vn -0.604864 0.796328 0
vn -0.641379 0.767224 0
vn -0.818204 0.574927 0
vn -0.877659 0.479286 0
vn -0.934918 0.354864 0
vn -0.97334 0.229369 0
vn -0.95854 0.284958 0
vn -0.900436 0.434988 0
vn -0.806037 0.591865 0
vn -0.673081 0.739569 0
vn -0.801311 0.598248 0
vn -0.962513 0.271236 0
vn -0.999716 0.0238493 0
vn -0.99725 0.0741164 0
vn -0.932765 -0.360484 0
vn -0.59974 -0.800195 0
vn -0.981837 -0.189724 0
vn -0.963946 0.266096 0
vn -0.875439 0.483328 0
vn -0.601399 0.798949 0
vn 0 1 0
vn 0.146269 0.989245 0
vn 0.240254 0.97071 0
vn 0.133788 0.99101 0
vn -0.844546 0.535484 0
vn -0.904044 0.427438 0
vn -0.941036 0.338307 0
vn -0.993602 0.11294 0
vn -0.940192 -0.340645 0
vn -0.802609 -0.596506 0
vn -0.619213 -0.785223 0
vn -0.562396 -0.826868 0
vn -0.508621 -0.860991 0
vn -0.492 -0.870595 0
vn -0.500479 -0.865749 0
vn -0.470489 -0.882406 0
vn -0.403382 -0.915032 0
vn -0.314408 -0.949288 0
vn -0.202705 -0.97924 0
vn -0.128307 -0.991734 0
vn -0.0922119 -0.995739 0

# Mesh 'OpenSCAD_Model' with 384 faces
g OpenSCAD_Model
usemtl DefaultMaterial
f  1//1 2//1 3//1
f  4//1 1//1 3//1
f  1//1 5//1 2//1
f  2//1 6//1 7//1
f  2//1 8//1 6//1
f  2//1 5//1 8//1
f  8//1 5//1 9//1
f  9//1 5//1 10//1
f  9//1 10//1 11//1
f  11//1 10//1 12//1
f  13//1 12//1 10//1
f  13//1 10//1 14//1
f  14//1 10//1 15//1
f  16//1 12//1 17//1
f  17//1 12//1 13//1
f  13//1 14//1 18//1
f  18//1 14//1 19//1
f  19//1 14//1 20//1
f  21//1 14//1 15//1
f  22//1 14//1 21//1
f  22//1 23//1 14//1
f  24//1 14//1 25//1
f  14//1 23//1 25//1
f  26//1 27//1 14//1
f  28//1 26//1 14//1
f  29//1 28//1 14//1
f  30//1 29//1 14//1
f  31//1 30//1 14//1
f  24//1 31//1 14//1
f  23//1 32//1 25//1
f  33//1 34//1 32//1
f  32//1 34//1 25//1
f  35//1 36//1 33//1
f  36//1 34//1 33//1
f  37//1 36//1 35//1
f  25//1 38//1 39//1
f  40//1 24//1 25//1
f  39//1 40//1 25//1
f  40//1 41//1 42//1
f  43//1 40//1 42//1
f  43//1 24//1 40//1
f  44//1 30//1 31//1
f  45//1 44//1 31//1
f  45//1 46//1 44//1
f  47//1 48//1 45//1
f  45//1 48//1 46//1
f  49//1 47//1 50//1
f  47//1 51//1 52//1
f  50//1 47//1 52//1
f  49//1 48//1 47//1
f  53//1 50//1 52//1
f  53//1 54//1 50//1
f  51//1 55//1 52//1
f  51//1 56//1 55//1
f  57//1 58//1 55//1
f  56//1 57//1 55//1
f  59//1 54//1 60//1
f  60//1 54//1 53//1
f  29//1 61//1 62//1
f  63//1 29//1 62//1
f  63//1 28//1 29//1
f  64//1 61//1 65//1
f  64//1 62//1 61//1
f  64//1 66//1 62//1
f  67//1 66//1 64//1
f  64//1 65//1 68//1
f  65//1 69//1 68//1
f  70//1 71//1 68//1
f  70//1 68//1 69//1
f  72//1 66//1 67//1
f  73//1 27//1 26//1
f  73//1 74//1 75//1
f  76//1 73//1 75//1
f  76//1 27//1 73//1
f  77//1 76//1 75//1
f  78//1 22//1 79//1
f  79//1 22//1 21//1
f  80//1 78//1 81//1
f  80//1 82//1 78//1
f  81//1 78//1 79//1
f  83//1 84//1 80//1
f  85//1 83//1 80//1
f  80//1 84//1 82//1
f  16//1 17//1 86//1
f  16//1 86//1 87//1
f  7//1 6//1 88//1
f  89//1 7//1 88//1
f  3//1 90//1 91//1
f  3//1 92//1 90//1
f  4//1 3//1 91//1
f  4//1 91//1 93//1
f  94//1 4//1 95//1
f  4//1 93//1 95//1
f  93//1 96//1 95//1
f  94//1 95//1 97//1
f  98//2 99//2 100//2
f  101//2 102//2 98//2
f  102//2 103//2 98//2
f  101//2 98//2 104//2
f  98//2 100//2 104//2
f  99//2 105//2 100//2
f  106//2 105//2 99//2
f  107//2 105//2 106//2
f  108//2 105//2 107//2
f  109//2 106//2 99//2
f  110//2 109//2 99//2
f  111//2 109//2 110//2
f  111//2 110//2 112//2
f  113//2 108//2 107//2
f  114//2 108//2 113//2
f  115//2 114//2 116//2
f  117//2 114//2 115//2
f  108//2 114//2 117//2
f  118//2 115//2 116//2
f  119//2 118//2 116//2
f  120//2 121//2 117//2
f  121//2 108//2 117//2
f  122//2 121//2 120//2
f  123//2 121//2 122//2
f  124//2 121//2 125//2
f  124//2 108//2 121//2
f  125//2 121//2 126//2
f  121//2 127//2 126//2
f  128//2 121//2 129//2
f  128//2 127//2 121//2
f  121//2 130//2 131//2
f  121//2 131//2 132//2
f  121//2 132//2 133//2
f  121//2 133//2 134//2
f  121//2 134//2 135//2
f  121//2 135//2 129//2
f  128//2 136//2 127//2
f  136//2 137//2 138//2
f  128//2 137//2 136//2
f  138//2 137//2 139//2
f  138//2 139//2 140//2
f  140//2 139//2 141//2
f  142//2 143//2 128//2
f  128//2 129//2 144//2
f  128//2 144//2 142//2
f  144//2 129//2 145//2
f  146//2 147//2 144//2
f  146//2 144//2 145//2
f  135//2 134//2 148//2
f  135//2 148//2 149//2
f  148//2 150//2 149//2
f  149//2 151//2 152//2
f  150//2 151//2 149//2
f  152//2 151//2 153//2
f  154//2 152//2 153//2
f  155//2 156//2 152//2
f  155//2 152//2 154//2
f  155//2 154//2 157//2
f  154//2 158//2 157//2
f  155//2 159//2 156//2
f  159//2 160//2 156//2
f  159//2 161//2 162//2
f  159//2 162//2 160//2
f  157//2 158//2 163//2
f  163//2 158//2 164//2
f  165//2 166//2 133//2
f  165//2 133//2 167//2
f  133//2 132//2 167//2
f  165//2 168//2 169//2
f  166//2 165//2 169//2
f  170//2 166//2 169//2
f  169//2 168//2 171//2
f  172//2 170//2 169//2
f  171//2 168//2 173//2
f  172//2 174//2 170//2
f  172//2 175//2 176//2
f  174//2 172//2 176//2
f  131//2 130//2 177//2
f  177//2 130//2 178//2
f  179//2 180//2 177//2
f  179//2 177//2 178//2
f  179//2 178//2 181//2
f  182//2 126//2 183//2
f  125//2 126//2 182//2
f  182//2 183//2 184//2
f  184//2 183//2 185//2
f  183//2 186//2 185//2
f  185//2 187//2 188//2
f  185//2 188//2 189//2
f  186//2 187//2 185//2
f  190//2 104//2 191//2
f  190//2 192//2 104//2
f  192//2 101//2 104//2
f  190//2 193//2 192//2
f  194//2 190//2 191//2
f  25//3 143//3 38//3
f  25//3 128//3 143//3
f  34//4 128//4 25//4
f  34//4 137//4 128//4
f  36//5 137//5 34//5
f  36//5 139//5 137//5
f  37//6 139//6 36//6
f  37//6 141//6 139//6
f  35//7 141//7 37//7
f  35//7 140//7 141//7
f  33//8 140//8 35//8
f  33//8 138//8 140//8
f  32//9 138//9 33//9
f  32//9 136//9 138//9
f  23//10 136//10 32//10
f  23//10 127//10 136//10
f  22//11 127//11 23//11
f  22//11 126//11 127//11
f  78//12 126//12 22//12
f  78//12 183//12 126//12
f  82//13 183//13 78//13
f  82//13 186//13 183//13
f  84//14 186//14 82//14
f  84//14 187//14 186//14
f  83//15 187//15 84//15
f  83//15 188//15 187//15
f  85//16 188//16 83//16
f  85//16 189//16 188//16
f  80//17 189//17 85//17
f  80//17 185//17 189//17
f  81//18 185//18 80//18
f  81//18 184//18 185//18
f  79//19 184//19 81//19
f  79//19 182//19 184//19
f  21//20 182//20 79//20
f  21//20 125//20 182//20
f  15//21 125//21 21//21
f  15//21 124//21 125//21
f  10//22 124//22 15//22
f  10//22 108//22 124//22
f  5//23 108//23 10//23
f  5//23 105//23 108//23
f  1//24 105//24 5//24
f  1//24 100//24 105//24
f  4//25 100//25 1//25
f  4//25 104//25 100//25
f  94//26 104//26 4//26
f  94//26 191//26 104//26
f  97//23 191//23 94//23
f  97//23 194//23 191//23
f  95//27 194//27 97//27
f  95//27 190//27 194//27
f  96//28 190//28 95//28
f  96//28 193//28 190//28
f  93//29 193//29 96//29
f  93//29 192//29 193//29
f  91//30 192//30 93//30
f  91//30 101//30 192//30
f  90//31 101//31 91//31
f  90//31 102//31 101//31
f  92//32 102//32 90//32
f  92//32 103//32 102//32
f  3//33 103//33 92//33
f  3//33 98//33 103//33
f  2//34 98//34 3//34
f  2//34 99//34 98//34
f  7//35 99//35 2//35
f  7//35 110//35 99//35
f  89//36 110//36 7//36
f  89//36 112//36 110//36
f  88//37 112//37 89//37
f  88//37 111//37 112//37
f  6//38 111//38 88//38
f  6//38 109//38 111//38
f  8//39 109//39 6//39
f  8//39 106//39 109//39
f  9//40 106//40 8//40
f  9//40 107//40 106//40
f  11//41 107//41 9//41
f  11//41 113//41 107//41
f  12//42 113//42 11//42
f  12//42 114//42 113//42
f  16//43 114//43 12//43
f  16//43 116//43 114//43
f  87//44 116//44 16//44
f  87//44 119//44 116//44
f  86//45 119//45 87//45
f  86//45 118//45 119//45
f  17//46 118//46 86//46
f  17//46 115//46 118//46
f  13//47 115//47 17//47
f  13//47 117//47 115//47
f  18//48 117//48 13//48
f  18//48 120//48 117//48
f  19//49 120//49 18//49
f  19//49 122//49 120//49
f  20//50 122//50 19//50
f  20//50 123//50 122//50
f  14//51 123//51 20//51
f  14//51 121//51 123//51
f  27//52 121//52 14//52
f  27//52 130//52 121//52
f  76//53 130//53 27//53
f  76//53 178//53 130//53
f  77//28 178//28 76//28
f  77//28 181//28 178//28
f  75//54 181//54 77//54
f  75//54 179//54 181//54
f  74//55 179//55 75//55
f  74//55 180//55 179//55
f  73//56 180//56 74//56
f  73//56 177//56 180//56
f  26//57 177//57 73//57
f  26//57 131//57 177//57
f  28//58 131//58 26//58
f  28//58 132//58 131//58
f  63//59 132//59 28//59
f  63//59 167//59 132//59
f  62//60 167//60 63//60
f  62//60 165//60 167//60
f  66//61 165//61 62//61
f  66//61 168//61 165//61
f  72//62 168//62 66//62
f  72//62 173//62 168//62
f  67//63 173//63 72//63
f  67//63 171//63 173//63
f  64//64 171//64 67//64
f  64//64 169//64 171//64
f  68//44 169//44 64//44
f  68//44 172//44 169//44
f  71//59 172//59 68//59
f  71//59 175//59 172//59
f  70//65 175//65 71//65
f  70//65 176//65 175//65
f  69//66 176//66 70//66
f  69//66 174//66 176//66
f  65//33 174//33 69//33
f  65//33 170//33 174//33
f  61//67 170//67 65//67
f  61//67 166//67 170//67
f  29//33 166//33 61//33
f  29//33 133//33 166//33
f  30//68 133//68 29//68
f  30//68 134//68 133//68
f  44//69 134//69 30//69
f  44//69 148//69 134//69
f  46//70 148//70 44//70
f  46//70 150//70 148//70
f  48//71 150//71 46//71
f  48//71 151//71 150//71
f  49//72 151//72 48//72
f  49//72 153//72 151//72
f  50//73 153//73 49//73
f  50//73 154//73 153//73
f  54//74 154//74 50//74
f  54//74 158//74 154//74
f  59//75 158//75 54//75
f  59//75 164//75 158//75
f  60//36 164//36 59//36
f  60//36 163//36 164//36
f  53//76 163//76 60//76
f  53//76 157//76 163//76
f  52//77 157//77 53//77
f  52//77 155//77 157//77
f  55//78 155//78 52//78
f  55//78 159//78 155//78
f  58//79 159//79 55//79
f  58//79 161//79 159//79
f  57//80 161//80 58//80
f  57//80 162//80 161//80
f  56//81 162//81 57//81
f  56//81 160//81 162//81
f  51//82 160//82 56//82
f  51//82 156//82 160//82
f  47//83 156//83 51//83
f  47//83 152//83 156//83
f  45//84 152//84 47//84
f  45//84 149//84 152//84
f  31//85 149//85 45//85
f  31//85 135//85 149//85
f  24//86 135//86 31//86
f  24//86 129//86 135//86
f  43//87 129//87 24//87
f  43//87 145//87 129//87
f  42//88 145//88 43//88
f  42//88 146//88 145//88
f  41//89 146//89 42//89
f  41//89 147//89 146//89
f  40//90 147//90 41//90
f  40//90 144//90 147//90
f  39//91 144//91 40//91
f  39//91 142//91 144//91
f  38//92 142//92 39//92
f  38//92 143//92 142//92

