# File produced by Open Asset Import Library (http://www.assimp.sf.net)
# (assimp v3.1.187496374)

mtllib Arkansas.obj.mtl

# 262 vertex positions
v  -2.42094 -7.96966 0
v  -6.57942 -8.0764 0
v  -6.57942 -6.69438 0
v  4.18688 -4.78427 0
v  2.77264 -7.72247 0
v  4.18688 -4.66067 0
v  4.24706 -4.53708 0
v  -6.65163 -5.56517 0
v  -6.62756 -5.65506 0
v  -6.59747 -5.90787 0
v  4.23503 -4.94157 0
v  4.34335 -5.18876 0
v  4.49982 -5.5764 0
v  4.51787 -5.66067 0
v  4.51186 -5.52022 0
v  4.67434 -5.93596 0
v  4.6262 -6.92472 0
v  4.38548 -7.26742 0
v  4.78267 -6.20562 0
v  4.78869 -6.55393 0
v  3.77765 -7.69438 0
v  4.1267 -7.55393 0
v  3.98227 -7.65506 0
v  -6.81412 -5.54831 0
v  -6.97661 -5.46966 0
v  -8.36678 -3.86292 0
v  -8.38483 1.28315 0
v  4.71045 -3.44157 0
v  -6.95856 -5.48652 0
v  -7.02475 -5.47528 0
v  -8.33669 -4.82921 0
v  -7.22335 -5.59326 0
v  -8.31864 -5.09888 0
v  -8.19827 -5.36292 0
v  -7.90941 -5.68315 0
v  -7.66267 -5.98652 0
v  -8.29456 -5.25056 0
v  -8.27651 -5.30674 0
v  4.65629 -3.64944 0
v  4.48177 -4.24494 0
v  4.63823 -3.93596 0
v  4.56 -4.11573 0
v  5.16782 -2.44719 0
v  4.80674 -3.30674 0
v  5.228 -2.05955 0
v  5.1257 -2.92472 0
v  4.89701 -3.25056 0
v  5.08357 -3.12135 0
v  5.02339 -3.21124 0
v  5.3604 -1.7 0
v  -8.41492 3.26629 0
v  2.58608 7.87303 0
v  6.25709 0.210112 0
v  5.559 -1.49213 0
v  6.28718 0.524719 0
v  6.25709 -0.11573 0
v  6.23904 -0.626966 0
v  5.76361 -1.41348 0
v  6.20293 -1.02022 0
v  6.15478 -1.23933 0
v  5.99831 -1.38539 0
v  6.0946 -1.33483 0
v  6.32931 0.608989 0
v  7.4607 3.00225 0
v  7.47876 2.87865 0
v  6.40152 0.653933 0
v  -7.49416 7.53596 0
v  6.68437 5.95169 0
v  2.74255 7.88989 0
v  -8.52927 3.96854 0
v  -8.62556 4.41236 0
v  -8.57741 4.14831 0
v  -8.69777 5.06404 0
v  -8.74592 5.38989 0
v  -8.81212 5.5809 0
v  -8.11402 7.52472 0
v  -9.01071 6.81124 0
v  -9.08293 7.52472 0
v  6.72048 5.91236 0
v  3.35639 7.91236 0
v  6.67234 5.99101 0
v  6.81075 5.85056 0
v  7.84586 4.09213 0
v  7.84586 3.87303 0
v  7.50885 3.05281 0
v  6.94917 5.80562 0
v  7.88197 4.2382 0
v  7.21396 5.79438 0
v  7.98427 4.35618 0
v  7.61717 5.85056 0
v  8.20694 4.5191 0
v  8.45368 4.65955 0
v  8.91707 6.10337 0
v  8.91707 5.53034 0
v  8.893 5.25506 0
v  8.61617 4.73258 0
v  8.83884 4.97416 0
v  8.74857 4.79438 0
v  8.66431 4.73258 0
v  7.82179 3.59213 0
v  7.74957 3.32809 0
v  7.55699 3.05281 0
v  7.64726 3.13146 0
v  6.69039 6.04719 0
v  6.81075 7.9236 0
v  6.82279 6.21011 0
v  7.31627 6.69888 0
v  7.37645 7.40112 0
v  7.5931 7.01348 0
v  7.59912 7.15393 0
v  7.62921 7.06966 0
v  7.62921 7.10337 0
v  7.56903 2.71011 0
v  7.51486 1.65955 0
v  7.61717 1.8 0
v  7.67735 2.56404 0
v  7.4607 1.52472 0
v  6.49781 0.676404 0
v  7.3945 1.22135 0
v  7.44265 1.35618 0
v  7.4607 1.44607 0
v  7.23202 0.951685 0
v  7.12971 0.833708 0
v  6.8589 0.659551 0
v  7.32229 1.0809 0
v  7.0274 0.738202 0
v  6.9251 0.682022 0
v  7.7616 2.47416 0
v  7.83382 2.00787 0
v  7.86993 2.32247 0
v  7.91206 2.16517 0
v  -6.57942 -6.69438 1
v  -6.57942 -8.0764 1
v  -2.42094 -7.96966 1
v  -6.59747 -5.90787 1
v  -6.62756 -5.65506 1
v  -6.65163 -5.56517 1
v  2.77264 -7.72247 1
v  4.18688 -4.78427 1
v  4.18688 -4.66067 1
v  4.24706 -4.53708 1
v  4.23503 -4.94157 1
v  4.34335 -5.18876 1
v  3.77765 -7.69438 1
v  4.38548 -7.26742 1
v  4.51787 -5.66067 1
v  4.49982 -5.5764 1
v  4.51186 -5.52022 1
v  4.6262 -6.92472 1
v  4.67434 -5.93596 1
v  4.1267 -7.55393 1
v  3.98227 -7.65506 1
v  4.78267 -6.20562 1
v  4.78869 -6.55393 1
v  -6.97661 -5.46966 1
v  -6.81412 -5.54831 1
v  -8.38483 1.28315 1
v  -8.36678 -3.86292 1
v  4.71045 -3.44157 1
v  -6.95856 -5.48652 1
v  -7.02475 -5.47528 1
v  -8.33669 -4.82921 1
v  -7.22335 -5.59326 1
v  -8.31864 -5.09888 1
v  -8.19827 -5.36292 1
v  -7.90941 -5.68315 1
v  -7.66267 -5.98652 1
v  -8.29456 -5.25056 1
v  -8.27651 -5.30674 1
v  4.65629 -3.64944 1
v  4.80674 -3.30674 1
v  5.16782 -2.44719 1
v  5.228 -2.05955 1
v  4.56 -4.11573 1
v  4.63823 -3.93596 1
v  4.48177 -4.24494 1
v  2.58608 7.87303 1
v  -8.41492 3.26629 1
v  5.3604 -1.7 1
v  -7.49416 7.53596 1
v  -8.52927 3.96854 1
v  -8.74592 5.38989 1
v  -8.69777 5.06404 1
v  -8.81212 5.5809 1
v  -8.62556 4.41236 1
v  -8.11402 7.52472 1
v  -8.57741 4.14831 1
v  -9.01071 6.81124 1
v  -9.08293 7.52472 1
v  6.32931 0.608989 1
v  7.4607 3.00225 1
v  6.68437 5.95169 1
v  2.74255 7.88989 1
v  6.28718 0.524719 1
v  6.40152 0.653933 1
v  7.47876 2.87865 1
v  6.49781 0.676404 1
v  7.4607 1.52472 1
v  7.51486 1.65955 1
v  7.56903 2.71011 1
v  7.61717 1.8 1
v  7.67735 2.56404 1
v  7.83382 2.00787 1
v  7.7616 2.47416 1
v  7.86993 2.32247 1
v  7.91206 2.16517 1
v  7.3945 1.22135 1
v  7.44265 1.35618 1
v  7.4607 1.44607 1
v  7.32229 1.0809 1
v  7.23202 0.951685 1
v  7.12971 0.833708 1
v  6.8589 0.659551 1
v  7.0274 0.738202 1
v  6.9251 0.682022 1
v  6.81075 5.85056 1
v  7.84586 4.09213 1
v  7.50885 3.05281 1
v  7.84586 3.87303 1
v  6.72048 5.91236 1
v  6.94917 5.80562 1
v  7.88197 4.2382 1
v  7.21396 5.79438 1
v  7.98427 4.35618 1
v  7.61717 5.85056 1
v  8.20694 4.5191 1
v  8.45368 4.65955 1
v  8.91707 5.53034 1
v  8.91707 6.10337 1
v  8.893 5.25506 1
v  8.61617 4.73258 1
v  8.83884 4.97416 1
v  8.74857 4.79438 1
v  8.66431 4.73258 1
v  3.35639 7.91236 1
v  6.67234 5.99101 1
v  6.69039 6.04719 1
v  6.81075 7.9236 1
v  6.82279 6.21011 1
v  7.31627 6.69888 1
v  7.37645 7.40112 1
v  7.5931 7.01348 1
v  7.59912 7.15393 1
v  7.62921 7.06966 1
v  7.62921 7.10337 1
v  7.82179 3.59213 1
v  7.74957 3.32809 1
v  7.64726 3.13146 1
v  7.55699 3.05281 1
v  5.559 -1.49213 1
v  6.25709 0.210112 1
v  6.23904 -0.626966 1
v  6.25709 -0.11573 1
v  5.76361 -1.41348 1
v  6.20293 -1.02022 1
v  6.15478 -1.23933 1
v  5.99831 -1.38539 1
v  6.0946 -1.33483 1
v  5.1257 -2.92472 1
v  4.89701 -3.25056 1
v  5.08357 -3.12135 1
v  5.02339 -3.21124 1

# 0 UV coordinates

# 122 vertex normals
vn 0 0 -1
vn 0 0 1
vn 0.02566 -0.999671 0
vn 0.0475417 -0.998869 0
vn 0.0279388 -0.99961 0
vn 0.188741 -0.982027 0
vn 0.57354 -0.819178 0
vn 0.74212 -0.670268 0
vn 0.818295 -0.574799 0
vn 0.915914 -0.401375 0
vn 0.999851 0.0172751 0
vn 0.92793 0.372754 0
vn 0.869375 0.494152 0
vn 0.977811 0.209489 0
vn 0.977811 -0.209489 0
vn 0.891422 0.453174 0
vn 0.915914 0.401375 0
vn 0.956216 0.292661 0
vn 1 0 0
vn 0.899083 -0.437777 0
vn 0.77957 -0.626315 0
vn 0.855422 -0.517931 0
vn 0.916937 -0.399033 0
vn 0.998021 -0.0628878 0
vn 0.967689 -0.252146 0
vn 0.813789 -0.581161 0
vn 0.528378 -0.849009 0
vn 0.297121 -0.95484 0
vn 0.830959 -0.556334 0
vn 0.996131 -0.0878763 0
vn 0.988163 -0.153411 0
vn 0.938401 -0.345547 0
vn 0.723044 -0.690802 0
vn 0.358796 -0.933416 0
vn 0.118834 -0.992914 0
vn 0.464907 -0.88536 0
vn 0.846044 -0.533114 0
vn 0.976699 -0.214616 0
vn 0.995811 -0.0914337 0
vn 0.999377 -0.0352927 0
vn 0.995457 -0.0952096 0
vn 0.894463 -0.447142 0
vn 0.227273 -0.973831 0
vn -0.0466253 -0.998912 0
vn 0.321446 -0.946928 0
vn 0.481333 -0.876538 0
vn 0.682391 -0.730987 0
vn 0.7555 -0.655149 0
vn 0.819764 -0.572702 0
vn 0.889325 -0.457275 0
vn 0.941763 -0.336277 0
vn 0.98042 -0.19692 0
vn 0.92793 -0.372754 0
vn 0.808293 -0.588781 0
vn 0.692326 -0.721585 0
vn 0.895375 -0.445314 0
vn 0.965961 0.258688 0
vn 0.813789 0.581161 0
vn 0.729606 0.683868 0
vn 0.803223 0.595678 0
vn 0.881519 0.472148 0
vn 0.989499 0.144541 0
vn 0.724207 -0.689583 0
vn 0 -1 0
vn 0.656917 -0.753963 0
vn 0.887106 -0.461565 0
vn 0.964574 -0.263812 0
vn 0.996348 -0.0853841 0
vn 0.970778 -0.239979 0
vn 0.590495 -0.807041 0
vn 0.494691 -0.869069 0
vn 0.409965 -0.912101 0
vn 0.591441 -0.806348 0
vn 0.893664 -0.448737 0
vn 0.981913 -0.189331 0
vn 0.996198 -0.0871136 0
vn -0.190907 0.981608 0
vn -0.137998 0.990432 0
vn 0.0423946 0.999101 0
vn 0.30883 0.951117 0
vn 0.564893 0.825164 0
vn 0.736597 0.676331 0
vn 0.952046 -0.305954 0
vn 0.776059 -0.63066 0
vn 0.703703 -0.710494 0
vn 0.750741 -0.660596 0
vn 0.841228 -0.540681 0
vn 0.859338 0.511408 0
vn 0.743001 0.66929 0
vn 0.678483 0.734616 0
vn -0.00325267 0.999995 0
vn -0.0365841 0.999331 0
vn -0.107094 0.994249 0
vn -0.0334209 0.999441 0
vn -0.0181236 0.999836 0
vn 0 1 0
vn -0.994917 -0.100703 0
vn -0.987222 -0.159353 0
vn -0.944865 -0.327461 0
vn -0.98926 -0.146167 0
vn -0.993916 -0.110141 0
vn -0.98378 -0.179377 0
vn -0.965961 -0.258688 0
vn -0.987002 -0.160708 0
vn -0.999885 -0.0151713 0
vn -0.999994 -0.00350832 0
vn -0.999516 -0.0311248 0
vn -0.997766 -0.0668013 0
vn -0.98764 -0.156737 0
vn -0.952046 -0.305954 0
vn -0.583284 -0.812268 0
vn -0.742528 -0.669815 0
vn -0.775799 -0.63098 0
vn 0.666969 -0.745086 0
vn 0.510735 -0.859738 0
vn 0.115904 -0.99326 0
vn -0.682391 -0.730987 0
vn -0.393369 -0.91938 0
vn -0.103171 -0.994664 0
vn -0.992991 -0.11819 0
vn -0.999737 -0.0229485 0
vn -1 0 0

# Mesh 'OpenSCAD_Model' with 520 faces
g OpenSCAD_Model
usemtl DefaultMaterial
f  1//1 2//1 3//1
f  1//1 4//1 5//1
f  1//1 6//1 4//1
f  1//1 7//1 6//1
f  8//1 7//1 1//1
f  9//1 8//1 1//1
f  3//1 10//1 1//1
f  10//1 9//1 1//1
f  4//1 11//1 5//1
f  11//1 12//1 5//1
f  13//1 14//1 12//1
f  15//1 13//1 12//1
f  12//1 14//1 5//1
f  16//1 17//1 14//1
f  17//1 18//1 14//1
f  14//1 18//1 5//1
f  19//1 17//1 16//1
f  20//1 17//1 19//1
f  5//1 18//1 21//1
f  18//1 22//1 21//1
f  22//1 23//1 21//1
f  24//1 25//1 8//1
f  8//1 26//1 27//1
f  8//1 25//1 26//1
f  28//1 8//1 27//1
f  28//1 7//1 8//1
f  24//1 29//1 25//1
f  26//1 25//1 30//1
f  26//1 30//1 31//1
f  31//1 30//1 32//1
f  33//1 31//1 32//1
f  34//1 33//1 32//1
f  35//1 34//1 32//1
f  36//1 35//1 32//1
f  34//1 37//1 33//1
f  38//1 37//1 34//1
f  28//1 39//1 7//1
f  7//1 39//1 40//1
f  41//1 42//1 39//1
f  39//1 42//1 40//1
f  28//1 43//1 44//1
f  28//1 45//1 43//1
f  27//1 45//1 28//1
f  44//1 43//1 46//1
f  44//1 46//1 47//1
f  46//1 48//1 47//1
f  47//1 48//1 49//1
f  50//1 45//1 27//1
f  51//1 52//1 27//1
f  50//1 27//1 52//1
f  50//1 53//1 54//1
f  50//1 55//1 53//1
f  50//1 52//1 55//1
f  53//1 56//1 54//1
f  56//1 57//1 54//1
f  54//1 57//1 58//1
f  58//1 57//1 59//1
f  58//1 59//1 60//1
f  61//1 58//1 60//1
f  61//1 60//1 62//1
f  52//1 63//1 55//1
f  64//1 63//1 52//1
f  63//1 65//1 66//1
f  63//1 64//1 65//1
f  52//1 51//1 67//1
f  68//1 64//1 52//1
f  69//1 68//1 52//1
f  51//1 70//1 67//1
f  70//1 71//1 67//1
f  72//1 71//1 70//1
f  67//1 71//1 73//1
f  67//1 73//1 74//1
f  75//1 67//1 74//1
f  75//1 76//1 67//1
f  75//1 77//1 76//1
f  77//1 78//1 76//1
f  79//1 64//1 68//1
f  80//1 68//1 69//1
f  80//1 81//1 68//1
f  82//1 64//1 79//1
f  83//1 64//1 82//1
f  64//1 84//1 85//1
f  64//1 83//1 84//1
f  86//1 83//1 82//1
f  87//1 83//1 86//1
f  88//1 87//1 86//1
f  89//1 87//1 88//1
f  88//1 90//1 89//1
f  90//1 91//1 89//1
f  92//1 91//1 90//1
f  93//1 94//1 90//1
f  90//1 95//1 92//1
f  90//1 94//1 95//1
f  92//1 95//1 96//1
f  96//1 95//1 97//1
f  96//1 97//1 98//1
f  99//1 96//1 98//1
f  84//1 100//1 85//1
f  100//1 101//1 85//1
f  102//1 85//1 103//1
f  103//1 85//1 101//1
f  81//1 80//1 104//1
f  80//1 105//1 104//1
f  104//1 105//1 106//1
f  105//1 107//1 106//1
f  105//1 108//1 107//1
f  108//1 109//1 107//1
f  110//1 109//1 108//1
f  111//1 109//1 110//1
f  111//1 110//1 112//1
f  113//1 114//1 65//1
f  65//1 114//1 66//1
f  115//1 113//1 116//1
f  115//1 114//1 113//1
f  114//1 117//1 66//1
f  117//1 118//1 66//1
f  119//1 118//1 117//1
f  120//1 119//1 117//1
f  121//1 120//1 117//1
f  118//1 122//1 123//1
f  124//1 118//1 123//1
f  118//1 125//1 122//1
f  118//1 119//1 125//1
f  124//1 123//1 126//1
f  124//1 126//1 127//1
f  115//1 128//1 129//1
f  115//1 116//1 128//1
f  130//1 129//1 128//1
f  130//1 131//1 129//1
f  132//2 133//2 134//2
f  134//2 135//2 132//2
f  134//2 136//2 135//2
f  134//2 137//2 136//2
f  138//2 139//2 134//2
f  139//2 140//2 134//2
f  140//2 141//2 134//2
f  134//2 141//2 137//2
f  138//2 142//2 139//2
f  138//2 143//2 142//2
f  144//2 145//2 138//2
f  138//2 145//2 146//2
f  138//2 146//2 143//2
f  143//2 146//2 147//2
f  143//2 147//2 148//2
f  146//2 149//2 150//2
f  146//2 145//2 149//2
f  144//2 151//2 145//2
f  144//2 152//2 151//2
f  153//2 149//2 154//2
f  150//2 149//2 153//2
f  137//2 155//2 156//2
f  157//2 158//2 137//2
f  158//2 155//2 137//2
f  157//2 137//2 159//2
f  137//2 141//2 159//2
f  155//2 160//2 156//2
f  161//2 155//2 158//2
f  162//2 161//2 158//2
f  163//2 161//2 162//2
f  163//2 162//2 164//2
f  163//2 164//2 165//2
f  163//2 165//2 166//2
f  163//2 166//2 167//2
f  164//2 168//2 165//2
f  165//2 168//2 169//2
f  141//2 170//2 159//2
f  171//2 172//2 159//2
f  172//2 173//2 159//2
f  159//2 173//2 157//2
f  170//2 174//2 175//2
f  176//2 174//2 170//2
f  176//2 170//2 141//2
f  157//2 177//2 178//2
f  157//2 173//2 179//2
f  177//2 157//2 179//2
f  180//2 178//2 177//2
f  180//2 181//2 178//2
f  182//2 183//2 180//2
f  182//2 180//2 184//2
f  183//2 185//2 180//2
f  180//2 186//2 184//2
f  180//2 185//2 181//2
f  181//2 185//2 187//2
f  186//2 188//2 184//2
f  186//2 189//2 188//2
f  177//2 190//2 191//2
f  177//2 191//2 192//2
f  177//2 192//2 193//2
f  194//2 190//2 177//2
f  194//2 177//2 179//2
f  195//2 196//2 190//2
f  196//2 191//2 190//2
f  195//2 197//2 198//2
f  195//2 198//2 199//2
f  195//2 199//2 196//2
f  196//2 199//2 200//2
f  200//2 199//2 201//2
f  202//2 200//2 201//2
f  203//2 204//2 201//2
f  204//2 202//2 201//2
f  204//2 203//2 205//2
f  203//2 206//2 205//2
f  198//2 197//2 207//2
f  198//2 207//2 208//2
f  198//2 208//2 209//2
f  210//2 207//2 197//2
f  211//2 210//2 197//2
f  212//2 211//2 197//2
f  212//2 197//2 213//2
f  214//2 212//2 213//2
f  215//2 214//2 213//2
f  216//2 191//2 217//2
f  218//2 219//2 191//2
f  219//2 217//2 191//2
f  220//2 191//2 216//2
f  192//2 191//2 220//2
f  216//2 217//2 221//2
f  221//2 217//2 222//2
f  221//2 222//2 223//2
f  223//2 222//2 224//2
f  224//2 225//2 223//2
f  224//2 226//2 225//2
f  225//2 226//2 227//2
f  225//2 228//2 229//2
f  227//2 230//2 225//2
f  230//2 228//2 225//2
f  231//2 230//2 227//2
f  232//2 230//2 231//2
f  233//2 232//2 231//2
f  233//2 231//2 234//2
f  193//2 192//2 235//2
f  192//2 236//2 235//2
f  237//2 238//2 235//2
f  237//2 235//2 236//2
f  239//2 238//2 237//2
f  239//2 240//2 238//2
f  240//2 241//2 238//2
f  240//2 242//2 241//2
f  241//2 242//2 243//2
f  243//2 242//2 244//2
f  245//2 243//2 244//2
f  218//2 246//2 219//2
f  218//2 247//2 246//2
f  248//2 218//2 249//2
f  247//2 218//2 248//2
f  250//2 251//2 179//2
f  251//2 194//2 179//2
f  250//2 252//2 253//2
f  254//2 252//2 250//2
f  250//2 253//2 251//2
f  255//2 252//2 254//2
f  256//2 255//2 254//2
f  256//2 254//2 257//2
f  258//2 256//2 257//2
f  259//2 172//2 171//2
f  260//2 261//2 259//2
f  260//2 259//2 171//2
f  262//2 261//2 260//2
f  1//3 133//3 2//3
f  1//3 134//3 133//3
f  5//4 134//4 1//4
f  5//4 138//4 134//4
f  21//5 138//5 5//5
f  21//5 144//5 138//5
f  23//6 144//6 21//6
f  23//6 152//6 144//6
f  22//7 152//7 23//7
f  22//7 151//7 152//7
f  18//8 151//8 22//8
f  18//8 145//8 151//8
f  17//9 145//9 18//9
f  17//9 149//9 145//9
f  20//10 149//10 17//10
f  20//10 154//10 149//10
f  19//11 154//11 20//11
f  19//11 153//11 154//11
f  16//12 153//12 19//12
f  16//12 150//12 153//12
f  14//13 150//13 16//13
f  14//13 146//13 150//13
f  13//14 146//14 14//14
f  13//14 147//14 146//14
f  15//15 147//15 13//15
f  15//15 148//15 147//15
f  12//16 148//16 15//16
f  12//16 143//16 148//16
f  11//17 143//17 12//17
f  11//17 142//17 143//17
f  4//18 142//18 11//18
f  4//18 139//18 142//18
f  6//19 139//19 4//19
f  6//19 140//19 139//19
f  7//20 140//20 6//20
f  7//20 141//20 140//20
f  40//21 141//21 7//21
f  40//21 176//21 141//21
f  42//22 176//22 40//22
f  42//22 174//22 176//22
f  41//23 174//23 42//23
f  41//23 175//23 174//23
f  39//24 175//24 41//24
f  39//24 170//24 175//24
f  28//25 170//25 39//25
f  28//25 159//25 170//25
f  44//26 159//26 28//26
f  44//26 171//26 159//26
f  47//27 171//27 44//27
f  47//27 260//27 171//27
f  49//28 260//28 47//28
f  49//28 262//28 260//28
f  48//29 262//29 49//29
f  48//29 261//29 262//29
f  46//15 261//15 48//15
f  46//15 259//15 261//15
f  43//30 259//30 46//30
f  43//30 172//30 259//30
f  45//31 172//31 43//31
f  45//31 173//31 172//31
f  50//32 173//32 45//32
f  50//32 179//32 173//32
f  54//33 179//33 50//33
f  54//33 250//33 179//33
f  58//34 250//34 54//34
f  58//34 254//34 250//34
f  61//35 254//35 58//35
f  61//35 257//35 254//35
f  62//36 257//36 61//36
f  62//36 258//36 257//36
f  60//37 258//37 62//37
f  60//37 256//37 258//37
f  59//38 256//38 60//38
f  59//38 255//38 256//38
f  57//39 255//39 59//39
f  57//39 252//39 255//39
f  56//40 252//40 57//40
f  56//40 253//40 252//40
f  53//19 253//19 56//19
f  53//19 251//19 253//19
f  55//41 251//41 53//41
f  55//41 194//41 251//41
f  63//42 194//42 55//42
f  63//42 190//42 194//42
f  66//27 190//27 63//27
f  66//27 195//27 190//27
f  118//43 195//43 66//43
f  118//43 197//43 195//43
f  124//44 197//44 118//44
f  124//44 213//44 197//44
f  127//45 213//45 124//45
f  127//45 215//45 213//45
f  126//46 215//46 127//46
f  126//46 214//46 215//46
f  123//47 214//47 126//47
f  123//47 212//47 214//47
f  122//48 212//48 123//48
f  122//48 211//48 212//48
f  125//49 211//49 122//49
f  125//49 210//49 211//49
f  119//50 210//50 125//50
f  119//50 207//50 210//50
f  120//51 207//51 119//51
f  120//51 208//51 207//51
f  121//52 208//52 120//52
f  121//52 209//52 208//52
f  117//19 209//19 121//19
f  117//19 198//19 209//19
f  114//53 198//53 117//53
f  114//53 199//53 198//53
f  115//54 199//54 114//54
f  115//54 201//54 199//54
f  129//55 201//55 115//55
f  129//55 203//55 201//55
f  131//56 203//56 129//56
f  131//56 206//56 203//56
f  130//57 206//57 131//57
f  130//57 205//57 206//57
f  128//58 205//58 130//58
f  128//58 204//58 205//58
f  116//59 204//59 128//59
f  116//59 202//59 204//59
f  113//60 202//60 116//60
f  113//60 200//60 202//60
f  65//61 200//61 113//61
f  65//61 196//61 200//61
f  64//62 196//62 65//62
f  64//62 191//62 196//62
f  85//63 191//63 64//63
f  85//63 218//63 191//63
f  102//64 218//64 85//64
f  102//64 249//64 218//64
f  103//65 249//65 102//65
f  103//65 248//65 249//65
f  101//66 248//66 103//66
f  101//66 247//66 248//66
f  100//67 247//67 101//67
f  100//67 246//67 247//67
f  84//68 246//68 100//68
f  84//68 219//68 246//68
f  83//19 219//19 84//19
f  83//19 217//19 219//19
f  87//69 217//69 83//69
f  87//69 222//69 217//69
f  89//48 222//48 87//48
f  89//48 224//48 222//48
f  91//70 224//70 89//70
f  91//70 226//70 224//70
f  92//71 226//71 91//71
f  92//71 227//71 226//71
f  96//72 227//72 92//72
f  96//72 231//72 227//72
f  99//64 231//64 96//64
f  99//64 234//64 231//64
f  98//73 234//73 99//73
f  98//73 233//73 234//73
f  97//74 233//74 98//74
f  97//74 232//74 233//74
f  95//75 232//75 97//75
f  95//75 230//75 232//75
f  94//76 230//76 95//76
f  94//76 228//76 230//76
f  93//19 228//19 94//19
f  93//19 229//19 228//19
f  90//77 229//77 93//77
f  90//77 225//77 229//77
f  88//78 225//78 90//78
f  88//78 223//78 225//78
f  86//79 223//79 88//79
f  86//79 221//79 223//79
f  82//80 221//80 86//80
f  82//80 216//80 221//80
f  79//81 216//81 82//81
f  79//81 220//81 216//81
f  68//82 220//82 79//82
f  68//82 192//82 220//82
f  81//18 192//18 68//18
f  81//18 236//18 192//18
f  104//83 236//83 81//83
f  104//83 237//83 236//83
f  106//84 237//84 104//84
f  106//84 239//84 237//84
f  107//85 239//85 106//85
f  107//85 240//85 239//85
f  109//86 240//86 107//86
f  109//86 242//86 240//86
f  111//87 242//87 109//87
f  111//87 244//87 242//87
f  112//19 244//19 111//19
f  112//19 245//19 244//19
f  110//88 245//88 112//88
f  110//88 243//88 245//88
f  108//89 243//89 110//89
f  108//89 241//89 243//89
f  105//90 241//90 108//90
f  105//90 238//90 241//90
f  80//91 238//91 105//91
f  80//91 235//91 238//91
f  69//92 235//92 80//92
f  69//92 193//92 235//92
f  52//93 193//93 69//93
f  52//93 177//93 193//93
f  67//94 177//94 52//94
f  67//94 180//94 177//94
f  76//95 180//95 67//95
f  76//95 186//95 180//95
f  78//96 186//96 76//96
f  78//96 189//96 186//96
f  77//97 189//97 78//97
f  77//97 188//97 189//97
f  75//98 188//98 77//98
f  75//98 184//98 188//98
f  74//99 184//99 75//99
f  74//99 182//99 184//99
f  73//100 182//100 74//100
f  73//100 183//100 182//100
f  71//101 183//101 73//101
f  71//101 185//101 183//101
f  72//102 185//102 71//102
f  72//102 187//102 185//102
f  70//103 187//103 72//103
f  70//103 181//103 187//103
f  51//104 181//104 70//104
f  51//104 178//104 181//104
f  27//105 178//105 51//105
f  27//105 157//105 178//105
f  26//106 157//106 27//106
f  26//106 158//106 157//106
f  31//107 158//107 26//107
f  31//107 162//107 158//107
f  33//108 162//108 31//108
f  33//108 164//108 162//108
f  37//109 164//109 33//109
f  37//109 168//109 164//109
f  38//110 168//110 37//110
f  38//110 169//110 168//110
f  34//111 169//111 38//111
f  34//111 165//111 169//111
f  35//112 165//112 34//112
f  35//112 166//112 165//112
f  36//113 166//113 35//113
f  36//113 167//113 166//113
f  32//114 167//114 36//114
f  32//114 163//114 167//114
f  30//115 163//115 32//115
f  30//115 161//115 163//115
f  25//116 161//116 30//116
f  25//116 155//116 161//116
f  29//117 155//117 25//117
f  29//117 160//117 155//117
f  24//118 160//118 29//118
f  24//118 156//118 160//118
f  8//119 156//119 24//119
f  8//119 137//119 156//119
f  9//103 137//103 8//103
f  9//103 136//103 137//103
f  10//120 136//120 9//120
f  10//120 135//120 136//120
f  3//121 135//121 10//121
f  3//121 132//121 135//121
f  2//122 132//122 3//122
f  2//122 133//122 132//122

