# File produced by Open Asset Import Library (http://www.assimp.sf.net)
# (assimp v3.1.187496374)

mtllib Maine.obj.mtl

# 292 vertex positions
v  4.137 2.05425 0
v  4.22579 1.91356 0
v  3.75645 -1.75318 0
v  3.70571 -1.80154 0
v  2.42452 -2.65008 0
v  2.81776 3.46116 0
v  2.95729 3.38202 0
v  4.06512 2.27848 0
v  4.26385 1.87839 0
v  3.82833 -1.7268 0
v  4.31459 1.85201 0
v  3.9129 -1.71361 0
v  5.4055 -0.570499 0
v  4.38224 1.83443 0
v  4.29345 -1.7268 0
v  5.75645 -0.183601 0
v  5.81142 0.810024 0
v  4.47526 1.82124 0
v  5.60846 1.15296 0
v  5.95941 0.343988 0
v  5.85793 -0.0604968 0
v  5.9129 0.577006 0
v  5.95941 0.203297 0
v  5.91712 0.0362277 0
v  5.95095 0.119763 0
v  5.27865 1.79046 0
v  1.0926 -3.06775 0
v  2.71628 3.57107 0
v  -4.59027 1.84761 0
v  2.63171 3.73814 0
v  -5.2203 0.216487 0
v  -5.06385 0.906749 0
v  -4.67484 2.99072 0
v  -5.24567 -0.0165311 0
v  2.55983 3.98435 0
v  -4.70867 3.83926 0
v  -4.70867 4.69659 0
v  -4.68753 5.22858 0
v  -2.18858 8.47325 0
v  -2.16744 8.48204 0
v  1.47315 8.54799 0
v  -4.66216 5.53634 0
v  -4.5649 6.11668 0
v  -4.62833 5.82211 0
v  -4.46765 6.45962 0
v  -4.33235 6.88169 0
v  -3.48668 9.24704 0
v  -3.1019 9.41851 0
v  -2.9074 9.38773 0
v  -3.24567 9.45808 0
v  -3.40211 9.40092 0
v  -2.25624 8.74144 0
v  -2.70867 9.33937 0
v  -2.17167 8.55239 0
v  -2.31121 8.94808 0
v  -2.50994 9.23825 0
v  -2.37463 9.09316 0
v  -3.32178 9.46248 0
v  1.32516 8.71066 0
v  1.43087 8.60514 0
v  1.17294 8.83816 0
v  -1.9222 8.69308 0
v  0.885412 9.0404 0
v  -0.890486 9.66911 0
v  -0.315433 9.82739 0
v  -0.67907 9.84058 0
v  -0.416913 9.88455 0
v  -0.543763 9.92412 0
v  -0.518393 9.92412 0
v  -5.30063 -0.280325 0
v  1.6592 -3.3931 0
v  -5.36829 -0.473774 0
v  1.02495 -3.2568 0
v  2.25116 -3.21284 0
v  1.89598 -3.54698 0
v  2.34419 -3.0106 0
v  2.16237 -3.50741 0
v  2.08626 -3.59534 0
v  1.95095 -3.60413 0
v  2.00592 -3.63051 0
v  3.6296 -1.97301 0
v  3.6 -2.1093 0
v  3.52812 -2.61051 0
v  3.66342 -1.87188 0
v  -5.43171 -0.579292 0
v  -5.76998 -2.83034 0
v  -5.91797 -2.42146 0
v  -5.51628 -0.662827 0
v  -5.41057 -3.97784 0
v  0.991121 -3.55577 0
v  -0.040592 -5.55181 0
v  -5.20761 -4.58896 0
v  0.978436 -3.81517 0
v  0.969979 -4.40431 0
v  0.953066 -4.65491 0
v  0.576744 -5.23086 0
v  0.437209 -5.31 0
v  0.931924 -4.84397 0
v  0.728964 -5.12974 0
v  0.838901 -5.03741 0
v  0.910782 -4.9319 0
v  0.889641 -4.98026 0
v  -1.48668 -6.87958 0
v  -4.87357 -5.53423 0
v  -0.962368 -6.73449 0
v  -0.230867 -6.14095 0
v  -1.51628 -6.96751 0
v  -4.28161 -7.3632 0
v  -1.60507 -7.42475 0
v  -1.65581 -7.64458 0
v  -1.67696 -7.71053 0
v  -1.71078 -7.92596 0
v  -3.81226 -8.86683 0
v  -1.73192 -8.11501 0
v  -2.97928 -9.76812 0
v  -1.84609 -8.73053 0
v  -1.78689 -8.51071 0
v  -1.73192 -8.21174 0
v  -2.26047 -9.95718 0
v  -2.78478 -9.94838 0
v  -2.70867 -10.0055 0
v  -2.64101 -10.0407 0
v  -2.31543 -10.0451 0
v  -2.38732 -10.0759 0
v  -2.57759 -10.0627 0
v  -2.48034 -10.0759 0
v  -0.6537 -6.62897 0
v  -0.302748 -6.29923 0
v  -0.514165 -6.56302 0
v  -0.370402 -6.42673 0
v  -0.429598 -6.51027 0
v  -6.01099 -2.04335 0
v  -5.96871 -2.32033 0
v  -6.04059 -1.55533 0
v  -6.01522 -1.11128 0
v  -5.97717 -0.909035 0
v  -5.2203 0.343988 0
v  -5.1611 0.669334 0
v  -5.20761 0.480281 0
v  4.03129 2.43236 0
v  3.59577 3.17538 0
v  3.99746 2.72693 0
v  3.74799 3.11383 0
v  3.97632 2.85443 0
v  3.86216 3.05667 0
v  3.92135 3.0171 0
v  3.75645 -1.75318 1
v  4.22579 1.91356 1
v  4.137 2.05425 1
v  3.82833 -1.7268 1
v  4.26385 1.87839 1
v  3.70571 -1.80154 1
v  2.42452 -2.65008 1
v  2.95729 3.38202 1
v  2.81776 3.46116 1
v  4.06512 2.27848 1
v  3.66342 -1.87188 1
v  3.6296 -1.97301 1
v  3.6 -2.1093 1
v  3.52812 -2.61051 1
v  1.6592 -3.3931 1
v  2.34419 -3.0106 1
v  1.0926 -3.06775 1
v  2.71628 3.57107 1
v  -4.59027 1.84761 1
v  -5.24567 -0.0165311 1
v  -5.30063 -0.280325 1
v  -5.36829 -0.473774 1
v  1.02495 -3.2568 1
v  2.63171 3.73814 1
v  -5.06385 0.906749 1
v  -5.2203 0.216487 1
v  -4.67484 2.99072 1
v  2.55983 3.98435 1
v  -4.70867 3.83926 1
v  -4.68753 5.22858 1
v  -4.70867 4.69659 1
v  -2.16744 8.48204 1
v  -2.18858 8.47325 1
v  1.47315 8.54799 1
v  -4.66216 5.53634 1
v  -4.5649 6.11668 1
v  -4.62833 5.82211 1
v  -4.46765 6.45962 1
v  -4.33235 6.88169 1
v  -3.48668 9.24704 1
v  -2.17167 8.55239 1
v  -2.25624 8.74144 1
v  -2.9074 9.38773 1
v  -3.1019 9.41851 1
v  -3.24567 9.45808 1
v  -3.40211 9.40092 1
v  -2.70867 9.33937 1
v  -2.31121 8.94808 1
v  -2.50994 9.23825 1
v  -2.37463 9.09316 1
v  -3.32178 9.46248 1
v  -1.9222 8.69308 1
v  1.43087 8.60514 1
v  1.32516 8.71066 1
v  1.17294 8.83816 1
v  0.885412 9.0404 1
v  -0.890486 9.66911 1
v  -0.315433 9.82739 1
v  -0.67907 9.84058 1
v  -0.416913 9.88455 1
v  -0.518393 9.92412 1
v  -0.543763 9.92412 1
v  -5.1611 0.669334 1
v  -5.2203 0.343988 1
v  -5.20761 0.480281 1
v  -5.41057 -3.97784 1
v  0.991121 -3.55577 1
v  -5.76998 -2.83034 1
v  -0.040592 -5.55181 1
v  -5.20761 -4.58896 1
v  0.978436 -3.81517 1
v  0.969979 -4.40431 1
v  0.576744 -5.23086 1
v  0.953066 -4.65491 1
v  0.437209 -5.31 1
v  0.728964 -5.12974 1
v  0.931924 -4.84397 1
v  0.838901 -5.03741 1
v  0.910782 -4.9319 1
v  0.889641 -4.98026 1
v  -4.87357 -5.53423 1
v  -1.48668 -6.87958 1
v  -0.230867 -6.14095 1
v  -0.962368 -6.73449 1
v  -4.28161 -7.3632 1
v  -1.51628 -6.96751 1
v  -1.60507 -7.42475 1
v  -1.65581 -7.64458 1
v  -1.67696 -7.71053 1
v  -1.71078 -7.92596 1
v  -3.81226 -8.86683 1
v  -1.73192 -8.11501 1
v  -1.84609 -8.73053 1
v  -2.97928 -9.76812 1
v  -1.78689 -8.51071 1
v  -1.73192 -8.21174 1
v  -2.26047 -9.95718 1
v  -2.78478 -9.94838 1
v  -2.70867 -10.0055 1
v  -2.64101 -10.0407 1
v  -2.38732 -10.0759 1
v  -2.31543 -10.0451 1
v  -2.57759 -10.0627 1
v  -2.48034 -10.0759 1
v  -0.6537 -6.62897 1
v  -0.514165 -6.56302 1
v  -0.302748 -6.29923 1
v  -0.370402 -6.42673 1
v  -0.429598 -6.51027 1
v  -5.43171 -0.579292 1
v  -5.91797 -2.42146 1
v  -5.51628 -0.662827 1
v  -6.01099 -2.04335 1
v  -5.96871 -2.32033 1
v  -6.04059 -1.55533 1
v  -5.97717 -0.909035 1
v  -6.01522 -1.11128 1
v  1.89598 -3.54698 1
v  2.25116 -3.21284 1
v  2.08626 -3.59534 1
v  2.16237 -3.50741 1
v  1.95095 -3.60413 1
v  2.00592 -3.63051 1
v  4.03129 2.43236 1
v  3.99746 2.72693 1
v  3.59577 3.17538 1
v  3.97632 2.85443 1
v  3.74799 3.11383 1
v  3.92135 3.0171 1
v  3.86216 3.05667 1
v  4.31459 1.85201 1
v  3.9129 -1.71361 1
v  5.4055 -0.570499 1
v  4.38224 1.83443 1
v  4.29345 -1.7268 1
v  5.81142 0.810024 1
v  5.75645 -0.183601 1
v  4.47526 1.82124 1
v  5.60846 1.15296 1
v  5.9129 0.577006 1
v  5.85793 -0.0604968 1
v  5.95941 0.343988 1
v  5.91712 0.0362277 1
v  5.95941 0.203297 1
v  5.95095 0.119763 1
v  5.27865 1.79046 1

# 0 UV coordinates

# 145 vertex normals
vn 0 0 -1
vn 0 0 1
vn 0.84795 -0.530076 0
vn 0.947402 -0.320045 0
vn 0.965603 -0.260023 0
vn 0.983514 -0.18083 0
vn 1 0 0
vn 0.993805 -0.111137 0
vn 0.987896 -0.155117 0
vn 0.952264 -0.305275 0
vn 0.974381 -0.224903 0
vn 0.981661 -0.190635 0
vn 0.947748 -0.319019 0
vn 0.266696 -0.963781 0
vn 0.32347 -0.946238 0
vn 0.427309 -0.904106 0
vn 0.529311 -0.848428 0
vn 0.815904 -0.578187 0
vn 0.883349 -0.468715 0
vn 0.910501 -0.413506 0
vn 0.9516 -0.307339 0
vn 0.451557 -0.892242 0
vn 0.493336 -0.869839 0
vn 0.55334 -0.832955 0
vn 0.643116 -0.765769 0
vn 0.747831 -0.66389 0
vn 0.916275 -0.400551 0
vn 0.972292 -0.233771 0
vn 0.99773 -0.0673369 0
vn 0.999897 -0.0143528 0
vn 0.998806 -0.0488433 0
vn 0.99366 -0.112428 0
vn 0.94153 -0.33693 0
vn -0.497957 -0.867202 0
vn -0.544911 -0.838494 0
vn -0.720763 -0.693182 0
vn -0.43266 -0.901557 0
vn 0.401054 -0.916054 0
vn 0.756103 -0.654453 0
vn 0.957446 -0.288612 0
vn 0.908504 -0.417875 0
vn 0.976059 -0.217506 0
vn 0.0358318 -0.999358 0
vn 0.989872 -0.141964 0
vn 0.977222 -0.212219 0
vn 0.948346 -0.317237 0
vn 0.857083 -0.515178 0
vn 0.689943 -0.723864 0
vn 0.344518 -0.93878 0
vn 0.154105 -0.988054 0
vn -0.0346388 -0.9994 0
vn 0.720763 -0.693182 0
vn 0.740677 -0.671861 0
vn 0.771622 -0.636081 0
vn 0.85294 -0.52201 0
vn 0.926889 -0.375335 0
vn 0.994915 -0.10072 0
vn 0.980655 0.195744 0
vn 0.916829 0.399281 0
vn 0.860577 0.50932 0
vn 0.88818 0.459496 0
vn 0.0382799 0.999267 0
vn 0.140385 0.990097 0
vn 0.251586 0.967835 0
vn 0.461279 0.887255 0
vn 0.678748 0.734371 0
vn 0.845657 0.533726 0
vn 0.952264 0.305275 0
vn 0.97668 0.214699 0
vn 0.993471 0.114084 0
vn 0.98653 0.163583 0
vn 0.947376 0.320124 0
vn 0.555718 0.831371 0
vn 0.447671 0.894198 0
vn 0.374874 0.927076 0
vn 0.307918 0.951413 0
vn 0.493336 0.869839 0
vn 0.734735 0.678354 0
vn 0.892212 0.451616 0
vn 0.959926 0.280255 0
vn 0.972801 0.231641 0
vn 0.803921 0.594737 0
vn 0.706469 0.707744 0
vn 0.642116 0.766607 0
vn 0.57532 0.817928 0
vn 0.548136 0.836389 0
vn 0.490737 0.871308 0
vn 0.363281 0.93168 0
vn 0 1 0
vn -0.525325 0.850902 0
vn -0.629907 0.77667 0
vn -0.687235 0.726435 0
vn -0.652264 0.757992 0
vn -0.384024 0.923323 0
vn 0.977916 -0.208999 0
vn 0.912835 0.408328 0
vn 0.966392 0.257071 0
vn 0.916275 0.400551 0
vn 0.731326 0.682028 0
vn 0.4535 0.891256 0
vn 0.236454 0.971643 0
vn 0.156284 0.987712 0
vn 0.26537 0.964147 0
vn 0.0576699 0.998336 0
vn -0.608178 0.7938 0
vn -0.876378 0.481624 0
vn -0.941629 0.336653 0
vn -0.952264 0.305275 0
vn -0.962062 0.272829 0
vn -0.977596 0.21049 0
vn -0.993067 0.117547 0
vn -0.99662 0.0821556 0
vn -0.999211 0.0397097 0
vn -1 0 0
vn -0.999206 -0.039833 0
vn -0.997275 -0.0737779 0
vn -0.893232 0.449597 0
vn -0.925373 0.379058 0
vn -0.971044 0.238901 0
vn -0.995697 0.0926705 0
vn -0.994125 0.108236 0
vn -0.978972 0.203994 0
vn -0.94394 0.330116 0
vn -0.857083 0.515178 0
vn -0.702754 0.711433 0
vn -0.471186 0.882034 0
vn -0.982754 0.18492 0
vn -0.998372 0.0570397 0
vn -0.998166 -0.0605386 0
vn -0.988548 -0.150908 0
vn -0.893792 -0.448482 0
vn -0.940304 -0.340336 0
vn -0.954287 -0.298891 0
vn -0.949031 -0.315182 0
vn -0.94286 -0.333189 0
vn -0.951408 -0.307933 0
vn -0.954577 -0.297963 0
vn -0.734391 -0.678726 0
vn -0.679741 -0.733453 0
vn -0.600491 -0.799632 0
vn -0.461279 -0.887255 0
vn -0.327484 -0.944857 0
vn -0.134394 -0.990928 0
vn 0 -1 0
vn 0.393591 -0.919286 0

# Mesh 'OpenSCAD_Model' with 580 faces
g OpenSCAD_Model
usemtl DefaultMaterial
f  1//1 2//1 3//1
f  4//1 1//1 3//1
f  4//1 5//1 1//1
f  1//1 6//1 7//1
f  8//1 1//1 7//1
f  1//1 5//1 6//1
f  3//1 2//1 9//1
f  3//1 9//1 10//1
f  9//1 11//1 10//1
f  11//1 12//1 10//1
f  11//1 13//1 12//1
f  11//1 14//1 13//1
f  12//1 13//1 15//1
f  16//1 13//1 17//1
f  18//1 13//1 14//1
f  13//1 19//1 17//1
f  13//1 18//1 19//1
f  16//1 20//1 21//1
f  16//1 22//1 20//1
f  16//1 17//1 22//1
f  20//1 23//1 21//1
f  23//1 24//1 21//1
f  23//1 25//1 24//1
f  18//1 26//1 19//1
f  6//1 5//1 27//1
f  28//1 6//1 27//1
f  28//1 29//1 30//1
f  28//1 27//1 29//1
f  31//1 32//1 29//1
f  29//1 33//1 30//1
f  34//1 31//1 29//1
f  27//1 34//1 29//1
f  33//1 35//1 30//1
f  36//1 35//1 33//1
f  35//1 37//1 38//1
f  36//1 37//1 35//1
f  35//1 39//1 40//1
f  40//1 41//1 35//1
f  35//1 38//1 39//1
f  38//1 42//1 39//1
f  43//1 39//1 42//1
f  42//1 44//1 43//1
f  39//1 43//1 45//1
f  39//1 45//1 46//1
f  46//1 47//1 39//1
f  48//1 49//1 47//1
f  50//1 48//1 47//1
f  51//1 50//1 47//1
f  47//1 49//1 52//1
f  39//1 47//1 52//1
f  52//1 49//1 53//1
f  39//1 52//1 54//1
f  55//1 52//1 53//1
f  55//1 53//1 56//1
f  55//1 56//1 57//1
f  58//1 50//1 51//1
f  41//1 59//1 60//1
f  41//1 61//1 59//1
f  61//1 41//1 62//1
f  62//1 41//1 40//1
f  62//1 63//1 61//1
f  64//1 63//1 62//1
f  65//1 63//1 64//1
f  65//1 64//1 66//1
f  65//1 66//1 67//1
f  66//1 68//1 69//1
f  67//1 66//1 69//1
f  27//1 70//1 34//1
f  27//1 5//1 71//1
f  27//1 72//1 70//1
f  27//1 73//1 72//1
f  74//1 75//1 71//1
f  76//1 74//1 71//1
f  5//1 76//1 71//1
f  77//1 75//1 74//1
f  77//1 78//1 75//1
f  75//1 78//1 79//1
f  78//1 80//1 79//1
f  81//1 82//1 5//1
f  5//1 82//1 83//1
f  84//1 81//1 5//1
f  4//1 84//1 5//1
f  85//1 72//1 86//1
f  86//1 72//1 73//1
f  86//1 87//1 85//1
f  88//1 85//1 87//1
f  89//1 86//1 73//1
f  73//1 90//1 89//1
f  91//1 89//1 90//1
f  91//1 92//1 89//1
f  90//1 93//1 91//1
f  91//1 93//1 94//1
f  95//1 96//1 94//1
f  94//1 96//1 97//1
f  91//1 94//1 97//1
f  98//1 99//1 95//1
f  99//1 96//1 95//1
f  100//1 98//1 101//1
f  100//1 99//1 98//1
f  100//1 101//1 102//1
f  91//1 103//1 104//1
f  105//1 91//1 106//1
f  105//1 103//1 91//1
f  91//1 104//1 92//1
f  103//1 107//1 108//1
f  103//1 108//1 104//1
f  108//1 107//1 109//1
f  110//1 108//1 109//1
f  108//1 110//1 111//1
f  112//1 108//1 111//1
f  112//1 113//1 108//1
f  112//1 114//1 113//1
f  115//1 113//1 116//1
f  114//1 117//1 113//1
f  113//1 117//1 116//1
f  114//1 118//1 117//1
f  115//1 116//1 119//1
f  120//1 115//1 119//1
f  121//1 120//1 119//1
f  122//1 121//1 119//1
f  119//1 123//1 124//1
f  125//1 122//1 119//1
f  126//1 125//1 119//1
f  124//1 126//1 119//1
f  105//1 106//1 127//1
f  106//1 128//1 127//1
f  128//1 129//1 127//1
f  130//1 129//1 128//1
f  131//1 129//1 130//1
f  132//1 88//1 87//1
f  132//1 87//1 133//1
f  132//1 134//1 88//1
f  88//1 135//1 136//1
f  88//1 134//1 135//1
f  137//1 138//1 31//1
f  31//1 138//1 32//1
f  139//1 138//1 137//1
f  8//1 7//1 140//1
f  140//1 7//1 141//1
f  140//1 141//1 142//1
f  142//1 141//1 143//1
f  142//1 143//1 144//1
f  143//1 145//1 144//1
f  145//1 146//1 144//1
f  147//2 148//2 149//2
f  150//2 151//2 147//2
f  151//2 148//2 147//2
f  147//2 149//2 152//2
f  149//2 153//2 152//2
f  154//2 155//2 149//2
f  154//2 149//2 156//2
f  155//2 153//2 149//2
f  153//2 157//2 152//2
f  153//2 158//2 157//2
f  153//2 159//2 158//2
f  160//2 159//2 153//2
f  161//2 162//2 153//2
f  161//2 153//2 163//2
f  163//2 153//2 155//2
f  163//2 155//2 164//2
f  165//2 163//2 164//2
f  165//2 166//2 163//2
f  166//2 167//2 163//2
f  167//2 168//2 163//2
f  168//2 169//2 163//2
f  170//2 165//2 164//2
f  165//2 171//2 172//2
f  170//2 173//2 165//2
f  165//2 172//2 166//2
f  170//2 174//2 173//2
f  173//2 174//2 175//2
f  176//2 177//2 174//2
f  174//2 177//2 175//2
f  178//2 179//2 174//2
f  174//2 180//2 178//2
f  179//2 176//2 174//2
f  179//2 181//2 176//2
f  181//2 179//2 182//2
f  182//2 183//2 181//2
f  184//2 182//2 179//2
f  185//2 184//2 179//2
f  179//2 186//2 185//2
f  187//2 188//2 179//2
f  188//2 186//2 179//2
f  186//2 189//2 190//2
f  186//2 190//2 191//2
f  186//2 191//2 192//2
f  188//2 189//2 186//2
f  193//2 189//2 188//2
f  193//2 188//2 194//2
f  195//2 193//2 194//2
f  196//2 195//2 194//2
f  192//2 191//2 197//2
f  178//2 180//2 198//2
f  199//2 200//2 180//2
f  200//2 201//2 180//2
f  198//2 180//2 201//2
f  198//2 202//2 203//2
f  201//2 202//2 198//2
f  203//2 202//2 204//2
f  205//2 203//2 204//2
f  206//2 205//2 204//2
f  207//2 208//2 205//2
f  207//2 205//2 206//2
f  172//2 209//2 210//2
f  171//2 209//2 172//2
f  210//2 209//2 211//2
f  212//2 213//2 169//2
f  169//2 168//2 214//2
f  169//2 214//2 212//2
f  213//2 212//2 215//2
f  212//2 216//2 215//2
f  215//2 217//2 213//2
f  218//2 217//2 215//2
f  218//2 219//2 220//2
f  221//2 219//2 218//2
f  221//2 218//2 215//2
f  220//2 219//2 222//2
f  220//2 222//2 223//2
f  223//2 222//2 224//2
f  225//2 223//2 224//2
f  226//2 225//2 224//2
f  227//2 228//2 215//2
f  229//2 215//2 230//2
f  215//2 228//2 230//2
f  216//2 227//2 215//2
f  227//2 231//2 228//2
f  231//2 232//2 228//2
f  233//2 232//2 231//2
f  233//2 231//2 234//2
f  235//2 234//2 231//2
f  235//2 231//2 236//2
f  231//2 237//2 236//2
f  237//2 238//2 236//2
f  239//2 237//2 240//2
f  237//2 241//2 238//2
f  239//2 241//2 237//2
f  241//2 242//2 238//2
f  243//2 239//2 240//2
f  243//2 240//2 244//2
f  243//2 244//2 245//2
f  243//2 245//2 246//2
f  247//2 248//2 243//2
f  243//2 246//2 249//2
f  243//2 249//2 250//2
f  243//2 250//2 247//2
f  251//2 229//2 230//2
f  251//2 252//2 253//2
f  251//2 253//2 229//2
f  254//2 252//2 255//2
f  253//2 252//2 254//2
f  256//2 257//2 214//2
f  214//2 168//2 256//2
f  257//2 256//2 258//2
f  257//2 258//2 259//2
f  260//2 257//2 259//2
f  258//2 261//2 259//2
f  262//2 263//2 258//2
f  263//2 261//2 258//2
f  161//2 264//2 265//2
f  161//2 265//2 162//2
f  264//2 266//2 267//2
f  265//2 264//2 267//2
f  268//2 266//2 264//2
f  268//2 269//2 266//2
f  270//2 154//2 156//2
f  271//2 272//2 270//2
f  272//2 154//2 270//2
f  273//2 274//2 271//2
f  274//2 272//2 271//2
f  273//2 275//2 276//2
f  273//2 276//2 274//2
f  150//2 277//2 151//2
f  150//2 278//2 277//2
f  278//2 279//2 277//2
f  279//2 280//2 277//2
f  281//2 279//2 278//2
f  282//2 279//2 283//2
f  280//2 279//2 284//2
f  282//2 285//2 279//2
f  285//2 284//2 279//2
f  286//2 282//2 283//2
f  287//2 288//2 283//2
f  288//2 286//2 283//2
f  287//2 289//2 290//2
f  287//2 290//2 288//2
f  289//2 291//2 290//2
f  285//2 292//2 284//2
f  119//3 248//3 123//3
f  119//3 243//3 248//3
f  116//4 243//4 119//4
f  116//4 239//4 243//4
f  117//5 239//5 116//5
f  117//5 241//5 239//5
f  118//6 241//6 117//6
f  118//6 242//6 241//6
f  114//7 242//7 118//7
f  114//7 238//7 242//7
f  112//8 238//8 114//8
f  112//8 236//8 238//8
f  111//9 236//9 112//9
f  111//9 235//9 236//9
f  110//10 235//10 111//10
f  110//10 234//10 235//10
f  109//11 234//11 110//11
f  109//11 233//11 234//11
f  107//12 233//12 109//12
f  107//12 232//12 233//12
f  103//13 232//13 107//13
f  103//13 228//13 232//13
f  105//14 228//14 103//14
f  105//14 230//14 228//14
f  127//15 230//15 105//15
f  127//15 251//15 230//15
f  129//16 251//16 127//16
f  129//16 252//16 251//16
f  131//17 252//17 129//17
f  131//17 255//17 252//17
f  130//18 255//18 131//18
f  130//18 254//18 255//18
f  128//19 254//19 130//19
f  128//19 253//19 254//19
f  106//20 253//20 128//20
f  106//20 229//20 253//20
f  91//21 229//21 106//21
f  91//21 215//21 229//21
f  97//22 215//22 91//22
f  97//22 221//22 215//22
f  96//23 221//23 97//23
f  96//23 219//23 221//23
f  99//24 219//24 96//24
f  99//24 222//24 219//24
f  100//25 222//25 99//25
f  100//25 224//25 222//25
f  102//26 224//26 100//26
f  102//26 226//26 224//26
f  101//27 226//27 102//27
f  101//27 225//27 226//27
f  98//28 225//28 101//28
f  98//28 223//28 225//28
f  95//8 223//8 98//8
f  95//8 220//8 223//8
f  94//29 220//29 95//29
f  94//29 218//29 220//29
f  93//30 218//30 94//30
f  93//30 217//30 218//30
f  90//31 217//31 93//31
f  90//31 213//31 217//31
f  73//32 213//32 90//32
f  73//32 169//32 213//32
f  27//33 169//33 73//33
f  27//33 163//33 169//33
f  71//34 163//34 27//34
f  71//34 161//34 163//34
f  75//35 161//35 71//35
f  75//35 264//35 161//35
f  79//36 264//36 75//36
f  79//36 268//36 264//36
f  80//37 268//37 79//37
f  80//37 269//37 268//37
f  78//38 269//38 80//38
f  78//38 266//38 269//38
f  77//39 266//39 78//39
f  77//39 267//39 266//39
f  74//40 267//40 77//40
f  74//40 265//40 267//40
f  76//41 265//41 74//41
f  76//41 162//41 265//41
f  5//42 162//42 76//42
f  5//42 153//42 162//42
f  83//43 153//43 5//43
f  83//43 160//43 153//43
f  82//44 160//44 83//44
f  82//44 159//44 160//44
f  81//45 159//45 82//45
f  81//45 158//45 159//45
f  84//46 158//46 81//46
f  84//46 157//46 158//46
f  4//47 157//47 84//47
f  4//47 152//47 157//47
f  3//48 152//48 4//48
f  3//48 147//48 152//48
f  10//49 147//49 3//49
f  10//49 150//49 147//49
f  12//50 150//50 10//50
f  12//50 278//50 150//50
f  15//51 278//51 12//51
f  15//51 281//51 278//51
f  13//52 281//52 15//52
f  13//52 279//52 281//52
f  16//53 279//53 13//53
f  16//53 283//53 279//53
f  21//54 283//54 16//54
f  21//54 287//54 283//54
f  24//55 287//55 21//55
f  24//55 289//55 287//55
f  25//56 289//56 24//56
f  25//56 291//56 289//56
f  23//57 291//57 25//57
f  23//57 290//57 291//57
f  20//7 290//7 23//7
f  20//7 288//7 290//7
f  22//58 288//58 20//58
f  22//58 286//58 288//58
f  17//59 286//59 22//59
f  17//59 282//59 286//59
f  19//60 282//60 17//60
f  19//60 285//60 282//60
f  26//61 285//61 19//61
f  26//61 292//61 285//61
f  18//62 292//62 26//62
f  18//62 284//62 292//62
f  14//63 284//63 18//63
f  14//63 280//63 284//63
f  11//64 280//64 14//64
f  11//64 277//64 280//64
f  9//65 277//65 11//65
f  9//65 151//65 277//65
f  2//66 151//66 9//66
f  2//66 148//66 151//66
f  1//67 148//67 2//67
f  1//67 149//67 148//67
f  8//68 149//68 1//68
f  8//68 156//68 149//68
f  140//69 156//69 8//69
f  140//69 270//69 156//69
f  142//70 270//70 140//70
f  142//70 271//70 270//70
f  144//71 271//71 142//71
f  144//71 273//71 271//71
f  146//72 273//72 144//72
f  146//72 275//72 273//72
f  145//73 275//73 146//73
f  145//73 276//73 275//73
f  143//74 276//74 145//74
f  143//74 274//74 276//74
f  141//75 274//75 143//75
f  141//75 272//75 274//75
f  7//76 272//76 141//76
f  7//76 154//76 272//76
f  6//77 154//77 7//77
f  6//77 155//77 154//77
f  28//78 155//78 6//78
f  28//78 164//78 155//78
f  30//79 164//79 28//79
f  30//79 170//79 164//79
f  35//80 170//80 30//80
f  35//80 174//80 170//80
f  41//81 174//81 35//81
f  41//81 180//81 174//81
f  60//82 180//82 41//82
f  60//82 199//82 180//82
f  59//83 199//83 60//83
f  59//83 200//83 199//83
f  61//84 200//84 59//84
f  61//84 201//84 200//84
f  63//85 201//85 61//85
f  63//85 202//85 201//85
f  65//86 202//86 63//86
f  65//86 204//86 202//86
f  67//87 204//87 65//87
f  67//87 206//87 204//87
f  69//88 206//88 67//88
f  69//88 207//88 206//88
f  68//89 207//89 69//89
f  68//89 208//89 207//89
f  66//90 208//90 68//90
f  66//90 205//90 208//90
f  64//91 205//91 66//91
f  64//91 203//91 205//91
f  62//92 203//92 64//92
f  62//92 198//92 203//92
f  40//93 198//93 62//93
f  40//93 178//93 198//93
f  39//94 178//94 40//94
f  39//94 179//94 178//94
f  54//95 179//95 39//95
f  54//95 187//95 179//95
f  52//96 187//96 54//96
f  52//96 188//96 187//96
f  55//97 188//97 52//97
f  55//97 194//97 188//97
f  57//98 194//98 55//98
f  57//98 196//98 194//98
f  56//99 196//99 57//99
f  56//99 195//99 196//99
f  53//100 195//100 56//100
f  53//100 193//100 195//100
f  49//101 193//101 53//101
f  49//101 189//101 193//101
f  48//102 189//102 49//102
f  48//102 190//102 189//102
f  50//103 190//103 48//103
f  50//103 191//103 190//103
f  58//104 191//104 50//104
f  58//104 197//104 191//104
f  51//105 197//105 58//105
f  51//105 192//105 197//105
f  47//106 192//106 51//106
f  47//106 186//106 192//106
f  46//107 186//107 47//107
f  46//107 185//107 186//107
f  45//108 185//108 46//108
f  45//108 184//108 185//108
f  43//109 184//109 45//109
f  43//109 182//109 184//109
f  44//110 182//110 43//110
f  44//110 183//110 182//110
f  42//111 183//111 44//111
f  42//111 181//111 183//111
f  38//112 181//112 42//112
f  38//112 176//112 181//112
f  37//113 176//113 38//113
f  37//113 177//113 176//113
f  36//114 177//114 37//114
f  36//114 175//114 177//114
f  33//115 175//115 36//115
f  33//115 173//115 175//115
f  29//116 173//116 33//116
f  29//116 165//116 173//116
f  32//117 165//117 29//117
f  32//117 171//117 165//117
f  138//118 171//118 32//118
f  138//118 209//118 171//118
f  139//119 209//119 138//119
f  139//119 211//119 209//119
f  137//120 211//120 139//120
f  137//120 210//120 211//120
f  31//114 210//114 137//114
f  31//114 172//114 210//114
f  34//121 172//121 31//121
f  34//121 166//121 172//121
f  70//122 166//122 34//122
f  70//122 167//122 166//122
f  72//123 167//123 70//123
f  72//123 168//123 167//123
f  85//124 168//124 72//124
f  85//124 256//124 168//124
f  88//125 256//125 85//125
f  88//125 258//125 256//125
f  136//126 258//126 88//126
f  136//126 262//126 258//126
f  135//127 262//127 136//127
f  135//127 263//127 262//127
f  134//128 263//128 135//128
f  134//128 261//128 263//128
f  132//129 261//129 134//129
f  132//129 259//129 261//129
f  133//130 259//130 132//130
f  133//130 260//130 259//130
f  87//131 260//131 133//131
f  87//131 257//131 260//131
f  86//132 257//132 87//132
f  86//132 214//132 257//132
f  89//133 214//133 86//133
f  89//133 212//133 214//133
f  92//134 212//134 89//134
f  92//134 216//134 212//134
f  104//135 216//135 92//135
f  104//135 227//135 216//135
f  108//136 227//136 104//136
f  108//136 231//136 227//136
f  113//137 231//137 108//137
f  113//137 237//137 231//137
f  115//138 237//138 113//138
f  115//138 240//138 237//138
f  120//139 240//139 115//139
f  120//139 244//139 240//139
f  121//140 244//140 120//140
f  121//140 245//140 244//140
f  122//141 245//141 121//141
f  122//141 246//141 245//141
f  125//142 246//142 122//142
f  125//142 249//142 246//142
f  126//143 249//143 125//143
f  126//143 250//143 249//143
f  124//144 250//144 126//144
f  124//144 247//144 250//144
f  123//145 247//145 124//145
f  123//145 248//145 247//145

