# File produced by Open Asset Import Library (http://www.assimp.sf.net)
# (assimp v3.1.187496374)

mtllib SouthDakota.obj.mtl

# 184 vertex positions
v  9.92107 -6.55243 0
v  9.87817 -6.66948 0
v  9.75901 -6.70693 0
v  9.92107 -6.48221 0
v  9.56358 -6.62266 0
v  9.86864 -6.25749 0
v  9.34909 -6.47285 0
v  9.81144 -6.09363 0
v  9.07741 -6.25749 0
v  9.68751 -5.82678 0
v  8.87722 -6.14513 0
v  9.59695 -5.32116 0
v  8.63413 -6.05618 0
v  9.72564 -4.83895 0
v  7.45682 -5.39139 0
v  7.94776 -5.87828 0
v  9.68275 -3.93071 0
v  9.81621 -4.69382 0
v  9.59695 -3.76217 0
v  9.75424 -4.00562 0
v  9.8877 -4.5206 0
v  9.88294 -4.1133 0
v  9.81144 -4.02434 0
v  9.92107 -4.29588 0
v  9.53499 -3.54213 0
v  9.51115 -3.36423 0
v  9.51115 -3.26592 0
v  6.48446 -5.42884 0
v  9.54452 -3.15824 0
v  4.28236 -5.11049 0
v  6.2795 -5.46161 0
v  9.63508 -3.10674 0
v  9.86864 -2.85861 0
v  9.902 -1.30431 0
v  4.06787 -5.05899 0
v  4.54452 -5.26498 0
v  6.21277 -5.4897 0
v  4.96873 -5.58801 0
v  6.15558 -5.52715 0
v  6.09838 -5.58333 0
v  5.22612 -5.75655 0
v  5.37865 -5.83614 0
v  5.96492 -5.74251 0
v  5.6551 -5.94382 0
v  5.85052 -5.91573 0
v  5.75996 -5.96723 0
v  5.85052 -5.93446 0
v  5.82669 -5.96255 0
v  3.69609 -5.0824 0
v  3.39581 -5.0824 0
v  3.72469 6.05056 0
v  1.64652 -5.04963 0
v  9.08694 4.29963 0
v  6.20801 6.04588 0
v  0.740896 6.10674 0
v  9.24423 4.16386 0
v  9.40629 4.04682 0
v  9.92107 3.70974 0
v  8.97731 4.43071 0
v  8.90582 4.56648 0
v  8.85338 4.73502 0
v  7.65224 6.05993 0
v  8.86768 4.85674 0
v  8.99161 4.97378 0
v  9.18704 6.05524 0
v  9.2633 5.15637 0
v  9.44919 5.66667 0
v  9.41582 5.43727 0
v  9.45872 5.91011 0
v  9.43966 6.0412 0
v  9.37769 5.30618 0
v  9.3205 5.21255 0
v  -0.674738 -4.96536 0
v  -0.717636 6.15356 0
v  -2.74814 -4.86236 0
v  -2.10467 6.20974 0
v  -3.38684 6.27528 0
v  -9.99314 0.0627341 0
v  -9.70715 3.67228 0
v  -9.77865 2.93727 0
v  -7.55272 6.54213 0
v  -10.0456 -0.868914 0
v  -10.0694 -1.74438 0
v  -10.0789 -2.47472 0
v  -10.0789 -4.35674 0
v  -9.51649 6.6264 0
v  9.85434 -2.91948 0
v  9.69228 -3.09738 0
v  9.79237 -3.0412 0
v  7.57598 -5.63483 0
v  7.7428 -5.80337 0
v  7.63317 -5.7191 0
v  9.75901 -6.70693 1
v  9.87817 -6.66948 1
v  9.92107 -6.55243 1
v  9.92107 -6.48221 1
v  9.56358 -6.62266 1
v  9.86864 -6.25749 1
v  9.34909 -6.47285 1
v  9.81144 -6.09363 1
v  9.68751 -5.82678 1
v  9.07741 -6.25749 1
v  9.59695 -5.32116 1
v  8.87722 -6.14513 1
v  7.45682 -5.39139 1
v  9.72564 -4.83895 1
v  7.94776 -5.87828 1
v  8.63413 -6.05618 1
v  9.81621 -4.69382 1
v  9.68275 -3.93071 1
v  9.59695 -3.76217 1
v  9.8877 -4.5206 1
v  9.75424 -4.00562 1
v  9.92107 -4.29588 1
v  9.81144 -4.02434 1
v  9.88294 -4.1133 1
v  6.48446 -5.42884 1
v  9.51115 -3.26592 1
v  9.53499 -3.54213 1
v  9.51115 -3.36423 1
v  7.57598 -5.63483 1
v  9.54452 -3.15824 1
v  4.28236 -5.11049 1
v  6.2795 -5.46161 1
v  9.86864 -2.85861 1
v  9.63508 -3.10674 1
v  9.902 -1.30431 1
v  4.06787 -5.05899 1
v  4.54452 -5.26498 1
v  6.21277 -5.4897 1
v  4.96873 -5.58801 1
v  6.15558 -5.52715 1
v  5.22612 -5.75655 1
v  6.09838 -5.58333 1
v  5.37865 -5.83614 1
v  5.96492 -5.74251 1
v  5.6551 -5.94382 1
v  5.85052 -5.91573 1
v  5.75996 -5.96723 1
v  5.82669 -5.96255 1
v  5.85052 -5.93446 1
v  9.24423 4.16386 1
v  9.08694 4.29963 1
v  3.72469 6.05056 1
v  9.92107 3.70974 1
v  9.40629 4.04682 1
v  6.20801 6.04588 1
v  8.97731 4.43071 1
v  0.740896 6.10674 1
v  1.64652 -5.04963 1
v  3.39581 -5.0824 1
v  3.69609 -5.0824 1
v  -0.674738 -4.96536 1
v  -0.717636 6.15356 1
v  -2.74814 -4.86236 1
v  -2.10467 6.20974 1
v  -3.38684 6.27528 1
v  -9.99314 0.0627341 1
v  -9.77865 2.93727 1
v  -9.70715 3.67228 1
v  -7.55272 6.54213 1
v  -10.0456 -0.868914 1
v  -10.0694 -1.74438 1
v  -10.0789 -2.47472 1
v  -10.0789 -4.35674 1
v  -9.51649 6.6264 1
v  8.90582 4.56648 1
v  8.85338 4.73502 1
v  7.65224 6.05993 1
v  8.86768 4.85674 1
v  9.18704 6.05524 1
v  8.99161 4.97378 1
v  9.41582 5.43727 1
v  9.44919 5.66667 1
v  9.2633 5.15637 1
v  9.45872 5.91011 1
v  9.43966 6.0412 1
v  9.37769 5.30618 1
v  9.3205 5.21255 1
v  9.85434 -2.91948 1
v  9.79237 -3.0412 1
v  9.69228 -3.09738 1
v  7.7428 -5.80337 1
v  7.63317 -5.7191 1

# 0 UV coordinates

# 91 vertex normals
vn 0 0 -1
vn 0 0 1
vn 0.938921 -0.344134 0
vn 1 0 0
vn 0.973845 0.227215 0
vn 0.944133 0.329566 0
vn 0.906969 0.421198 0
vn 0.984335 0.176307 0
vn 0.966183 -0.257859 0
vn 0.848378 -0.529391 0
vn 0.924358 -0.381527 0
vn 0.989157 -0.146865 0
vn 0.978881 0.204433 0
vn 0.779432 0.626487 0
vn 0.311151 0.95036 0
vn 0.723379 0.690451 0
vn 0.891176 0.453659 0
vn 0.962562 0.271063 0
vn 0.991146 0.132776 0
vn 0.955195 -0.295977 0
vn 0.494316 -0.869283 0
vn 0.161551 -0.986864 0
vn 0.489441 -0.872036 0
vn 0.891176 -0.453659 0
vn 0.973492 -0.228721 0
vn 0.99977 -0.0214613 0
vn 0.999993 -0.00380245 0
vn 0.547812 0.836601 0
vn 0.585486 0.810683 0
vn 0.653411 0.757004 0
vn 0.767098 0.641529 0
vn 0.884811 0.46595 0
vn 0.954863 0.297048 0
vn 0.99317 -0.116672 0
vn 0.686619 -0.727018 0
vn 0.557783 -0.829987 0
vn 0.700732 -0.713424 0
vn 0.853374 -0.521299 0
vn 0.9602 -0.279312 0
vn 0.989588 -0.14393 0
vn 0.999234 -0.0391282 0
vn 0.989588 0.14393 0
vn 0.0555111 0.998458 0
vn 0.00305033 0.999995 0
vn -0.00972439 0.999953 0
vn 0.00188524 0.999998 0
vn 0.018825 0.999823 0
vn 0.0320818 0.999485 0
vn 0.0404703 0.999181 0
vn 0.0510521 0.998696 0
vn 0.0639261 0.997955 0
vn 0.0428726 0.999081 0
vn -0.997924 0.0644056 0
vn -0.995302 0.0968149 0
vn -0.997228 0.0744105 0
vn -0.99842 0.0561887 0
vn -0.99963 0.0272122 0
vn -0.999915 0.0130516 0
vn -1 0 0
vn -0.0688083 -0.99763 0
vn -0.0496138 -0.998768 0
vn -0.0362795 -0.999342 0
vn -0.018731 -0.999825 0
vn 0 -1 0
vn 0.0628377 -0.998024 0
vn -0.233461 -0.972366 0
vn -0.507718 -0.861523 0
vn -0.605834 -0.795591 0
vn -0.547812 -0.836601 0
vn -0.462608 -0.886563 0
vn -0.362938 -0.931813 0
vn -0.217867 -0.975978 0
vn 0.0699858 -0.997548 0
vn 0.762531 -0.646952 0
vn 0.834457 -0.551073 0
vn 0.766291 -0.642493 0
vn 0.547812 -0.836601 0
vn 0.387974 -0.92167 0
vn 0.157889 -0.987457 0
vn 0.0384895 -0.999259 0
vn -0.898176 -0.439637 0
vn -0.82741 -0.561598 0
vn -0.609439 -0.792833 0
vn -0.343267 -0.939238 0
vn -0.250903 -0.968012 0
vn -0.343638 -0.939102 0
vn -0.489441 -0.872036 0
vn -0.621182 -0.783667 0
vn -0.572615 -0.819825 0
vn -0.395968 -0.918264 0
vn 0.299845 -0.953988 0

# Mesh 'OpenSCAD_Model' with 364 faces
g OpenSCAD_Model
usemtl DefaultMaterial
f  1//1 2//1 3//1
f  1//1 3//1 4//1
f  5//1 4//1 3//1
f  6//1 4//1 5//1
f  5//1 7//1 6//1
f  8//1 6//1 7//1
f  9//1 10//1 7//1
f  8//1 7//1 10//1
f  10//1 9//1 11//1
f  11//1 12//1 10//1
f  12//1 11//1 13//1
f  14//1 12//1 15//1
f  12//1 16//1 15//1
f  12//1 13//1 16//1
f  14//1 17//1 18//1
f  14//1 19//1 17//1
f  14//1 15//1 19//1
f  17//1 20//1 18//1
f  20//1 21//1 18//1
f  22//1 20//1 23//1
f  22//1 24//1 20//1
f  20//1 24//1 21//1
f  15//1 25//1 19//1
f  26//1 25//1 15//1
f  26//1 15//1 27//1
f  27//1 28//1 29//1
f  27//1 15//1 28//1
f  30//1 29//1 28//1
f  30//1 28//1 31//1
f  32//1 29//1 33//1
f  33//1 29//1 34//1
f  34//1 29//1 30//1
f  34//1 30//1 35//1
f  30//1 31//1 36//1
f  36//1 31//1 37//1
f  36//1 37//1 38//1
f  39//1 38//1 37//1
f  38//1 40//1 41//1
f  38//1 39//1 40//1
f  42//1 40//1 43//1
f  40//1 42//1 41//1
f  43//1 44//1 42//1
f  44//1 43//1 45//1
f  44//1 45//1 46//1
f  45//1 47//1 48//1
f  46//1 45//1 48//1
f  35//1 49//1 50//1
f  51//1 35//1 50//1
f  51//1 34//1 35//1
f  52//1 51//1 50//1
f  51//1 53//1 34//1
f  53//1 51//1 54//1
f  52//1 55//1 51//1
f  53//1 56//1 34//1
f  34//1 57//1 58//1
f  34//1 56//1 57//1
f  59//1 53//1 54//1
f  59//1 54//1 60//1
f  60//1 54//1 61//1
f  61//1 54//1 62//1
f  63//1 61//1 62//1
f  64//1 62//1 65//1
f  64//1 63//1 62//1
f  64//1 65//1 66//1
f  65//1 67//1 68//1
f  66//1 65//1 68//1
f  65//1 69//1 67//1
f  65//1 70//1 69//1
f  66//1 71//1 72//1
f  66//1 68//1 71//1
f  73//1 74//1 55//1
f  73//1 55//1 52//1
f  73//1 75//1 74//1
f  74//1 75//1 76//1
f  76//1 75//1 77//1
f  77//1 75//1 78//1
f  79//1 77//1 80//1
f  80//1 77//1 78//1
f  77//1 79//1 81//1
f  78//1 75//1 82//1
f  75//1 83//1 82//1
f  83//1 75//1 84//1
f  75//1 85//1 84//1
f  81//1 79//1 86//1
f  32//1 33//1 87//1
f  88//1 32//1 87//1
f  88//1 87//1 89//1
f  16//1 90//1 15//1
f  16//1 91//1 90//1
f  90//1 91//1 92//1
f  93//2 94//2 95//2
f  96//2 93//2 95//2
f  93//2 96//2 97//2
f  97//2 96//2 98//2
f  98//2 99//2 97//2
f  99//2 98//2 100//2
f  99//2 101//2 102//2
f  101//2 99//2 100//2
f  101//2 103//2 104//2
f  104//2 102//2 101//2
f  105//2 103//2 106//2
f  105//2 107//2 103//2
f  107//2 108//2 103//2
f  108//2 104//2 103//2
f  109//2 110//2 106//2
f  110//2 111//2 106//2
f  111//2 105//2 106//2
f  109//2 112//2 113//2
f  109//2 113//2 110//2
f  112//2 114//2 113//2
f  115//2 113//2 116//2
f  113//2 114//2 116//2
f  117//2 105//2 118//2
f  105//2 119//2 120//2
f  118//2 105//2 120//2
f  111//2 119//2 105//2
f  105//2 121//2 107//2
f  122//2 117//2 118//2
f  117//2 122//2 123//2
f  124//2 117//2 123//2
f  125//2 122//2 126//2
f  127//2 122//2 125//2
f  123//2 122//2 127//2
f  128//2 123//2 127//2
f  129//2 124//2 123//2
f  130//2 124//2 129//2
f  131//2 130//2 129//2
f  130//2 131//2 132//2
f  133//2 134//2 131//2
f  134//2 132//2 131//2
f  133//2 135//2 134//2
f  136//2 134//2 135//2
f  135//2 137//2 136//2
f  138//2 136//2 137//2
f  139//2 138//2 137//2
f  140//2 141//2 138//2
f  140//2 138//2 139//2
f  127//2 142//2 143//2
f  127//2 143//2 144//2
f  145//2 146//2 127//2
f  146//2 142//2 127//2
f  128//2 127//2 144//2
f  147//2 143//2 148//2
f  147//2 144//2 143//2
f  144//2 149//2 150//2
f  151//2 144//2 150//2
f  151//2 128//2 144//2
f  151//2 152//2 128//2
f  150//2 149//2 153//2
f  149//2 154//2 153//2
f  154//2 155//2 153//2
f  156//2 155//2 154//2
f  157//2 155//2 156//2
f  158//2 155//2 157//2
f  159//2 157//2 160//2
f  158//2 157//2 159//2
f  161//2 160//2 157//2
f  162//2 155//2 158//2
f  162//2 163//2 155//2
f  164//2 155//2 163//2
f  164//2 165//2 155//2
f  166//2 160//2 161//2
f  167//2 147//2 148//2
f  168//2 147//2 167//2
f  169//2 147//2 168//2
f  169//2 168//2 170//2
f  171//2 169//2 172//2
f  169//2 170//2 172//2
f  173//2 174//2 171//2
f  173//2 171//2 175//2
f  174//2 176//2 171//2
f  176//2 177//2 171//2
f  175//2 171//2 172//2
f  178//2 173//2 175//2
f  179//2 178//2 175//2
f  180//2 125//2 126//2
f  181//2 180//2 182//2
f  180//2 126//2 182//2
f  121//2 183//2 107//2
f  184//2 183//2 121//2
f  1//3 94//3 2//3
f  1//3 95//3 94//3
f  4//4 95//4 1//4
f  4//4 96//4 95//4
f  6//5 96//5 4//5
f  6//5 98//5 96//5
f  8//6 98//6 6//6
f  8//6 100//6 98//6
f  10//7 100//7 8//7
f  10//7 101//7 100//7
f  12//8 101//8 10//8
f  12//8 103//8 101//8
f  14//9 103//9 12//9
f  14//9 106//9 103//9
f  18//10 106//10 14//10
f  18//10 109//10 106//10
f  21//11 109//11 18//11
f  21//11 112//11 109//11
f  24//12 112//12 21//12
f  24//12 114//12 112//12
f  22//13 114//13 24//13
f  22//13 116//13 114//13
f  23//14 116//14 22//14
f  23//14 115//14 116//14
f  20//15 115//15 23//15
f  20//15 113//15 115//15
f  17//16 113//16 20//16
f  17//16 110//16 113//16
f  19//17 110//17 17//17
f  19//17 111//17 110//17
f  25//18 111//18 19//18
f  25//18 119//18 111//18
f  26//19 119//19 25//19
f  26//19 120//19 119//19
f  27//4 120//4 26//4
f  27//4 118//4 120//4
f  29//20 118//20 27//20
f  29//20 122//20 118//20
f  32//21 122//21 29//21
f  32//21 126//21 122//21
f  88//22 126//22 32//22
f  88//22 182//22 126//22
f  89//23 182//23 88//23
f  89//23 181//23 182//23
f  87//24 181//24 89//24
f  87//24 180//24 181//24
f  33//25 180//25 87//25
f  33//25 125//25 180//25
f  34//26 125//26 33//26
f  34//26 127//26 125//26
f  58//27 127//27 34//27
f  58//27 145//27 127//27
f  57//28 145//28 58//28
f  57//28 146//28 145//28
f  56//29 146//29 57//29
f  56//29 142//29 146//29
f  53//30 142//30 56//30
f  53//30 143//30 142//30
f  59//31 143//31 53//31
f  59//31 148//31 143//31
f  60//32 148//32 59//32
f  60//32 167//32 148//32
f  61//33 167//33 60//33
f  61//33 168//33 167//33
f  63//34 168//34 61//34
f  63//34 170//34 168//34
f  64//35 170//35 63//35
f  64//35 172//35 170//35
f  66//36 172//36 64//36
f  66//36 175//36 172//36
f  72//37 175//37 66//37
f  72//37 179//37 175//37
f  71//38 179//38 72//38
f  71//38 178//38 179//38
f  68//39 178//39 71//39
f  68//39 173//39 178//39
f  67//40 173//40 68//40
f  67//40 174//40 173//40
f  69//41 174//41 67//41
f  69//41 176//41 174//41
f  70//42 176//42 69//42
f  70//42 177//42 176//42
f  65//43 177//43 70//43
f  65//43 171//43 177//43
f  62//44 171//44 65//44
f  62//44 169//44 171//44
f  54//45 169//45 62//45
f  54//45 147//45 169//45
f  51//46 147//46 54//46
f  51//46 144//46 147//46
f  55//47 144//47 51//47
f  55//47 149//47 144//47
f  74//48 149//48 55//48
f  74//48 154//48 149//48
f  76//49 154//49 74//49
f  76//49 156//49 154//49
f  77//50 156//50 76//50
f  77//50 157//50 156//50
f  81//51 157//51 77//51
f  81//51 161//51 157//51
f  86//52 161//52 81//52
f  86//52 166//52 161//52
f  79//53 166//53 86//53
f  79//53 160//53 166//53
f  80//54 160//54 79//54
f  80//54 159//54 160//54
f  78//55 159//55 80//55
f  78//55 158//55 159//55
f  82//56 158//56 78//56
f  82//56 162//56 158//56
f  83//57 162//57 82//57
f  83//57 163//57 162//57
f  84//58 163//58 83//58
f  84//58 164//58 163//58
f  85//59 164//59 84//59
f  85//59 165//59 164//59
f  75//60 165//60 85//60
f  75//60 155//60 165//60
f  73//61 155//61 75//61
f  73//61 153//61 155//61
f  52//62 153//62 73//62
f  52//62 150//62 153//62
f  50//63 150//63 52//63
f  50//63 151//63 150//63
f  49//64 151//64 50//64
f  49//64 152//64 151//64
f  35//65 152//65 49//65
f  35//65 128//65 152//65
f  30//66 128//66 35//66
f  30//66 123//66 128//66
f  36//67 123//67 30//67
f  36//67 129//67 123//67
f  38//68 129//68 36//68
f  38//68 131//68 129//68
f  41//69 131//69 38//69
f  41//69 133//69 131//69
f  42//70 133//70 41//70
f  42//70 135//70 133//70
f  44//71 135//71 42//71
f  44//71 137//71 135//71
f  46//72 137//72 44//72
f  46//72 139//72 137//72
f  48//73 139//73 46//73
f  48//73 140//73 139//73
f  47//74 140//74 48//74
f  47//74 141//74 140//74
f  45//4 141//4 47//4
f  45//4 138//4 141//4
f  43//75 138//75 45//75
f  43//75 136//75 138//75
f  40//76 136//76 43//76
f  40//76 134//76 136//76
f  39//37 134//37 40//37
f  39//37 132//37 134//37
f  37//77 132//77 39//77
f  37//77 130//77 132//77
f  31//78 130//78 37//78
f  31//78 124//78 130//78
f  28//79 124//79 31//79
f  28//79 117//79 124//79
f  15//80 117//80 28//80
f  15//80 105//80 117//80
f  90//81 105//81 15//81
f  90//81 121//81 105//81
f  92//82 121//82 90//82
f  92//82 184//82 121//82
f  91//83 184//83 92//83
f  91//83 183//83 184//83
f  16//84 183//84 91//84
f  16//84 107//84 183//84
f  13//85 107//85 16//85
f  13//85 108//85 107//85
f  11//86 108//86 13//86
f  11//86 104//86 108//86
f  9//87 104//87 11//87
f  9//87 102//87 104//87
f  7//88 102//88 9//88
f  7//88 99//88 102//88
f  5//89 99//89 7//89
f  5//89 97//89 99//89
f  3//90 97//90 5//90
f  3//90 93//90 97//90
f  2//91 93//91 3//91
f  2//91 94//91 93//91

