# File produced by Open Asset Import Library (http://www.assimp.sf.net)
# (assimp v3.1.187496374)

mtllib Utah.obj.mtl

# 118 vertex positions
v  6.17818 -10.0453 0
v  6.12189 -10.0742 0
v  6.21759 -9.98741 0
v  6.01492 -10.08 0
v  6.257 -9.88903 0
v  6.31893 -9.54181 0
v  5.49134 -10.0221 0
v  6.71302 -6.16796 0
v  2.47938 -9.62861 0
v  2.41745 -9.62861 0
v  6.88191 -5.02792 0
v  7.00577 -3.88787 0
v  -3.81478 -8.76634 0
v  6.93821 -4.56495 0
v  -6.79296 -0.265185 0
v  7.276 -1.60778 0
v  -6.95623 -1.09273 0
v  -7.18705 -2.52213 0
v  -5.56003 -8.50593 0
v  -7.92456 -6.56727 0
v  -7.87952 -8.12398 0
v  -8.05405 -7.47583 0
v  -8.06531 -7.92144 0
v  -7.9696 -8.09505 0
v  -8.07094 -7.66102 0
v  -8.03716 -8.03718 0
v  -6.51147 1.40148 0
v  2.77213 5.39454 0
v  -6.17931 3.19546 0
v  -6.0273 4.10403 0
v  -5.56003 6.67347 0
v  2.74961 5.52185 0
v  -2.40169 9.67116 0
v  -1.13498 9.49755 0
v  -5.32357 8.10866 0
v  0.00225194 9.31815 0
v  2.78339 5.90958 0
v  1.33652 9.13875 0
v  3.10429 7.97556 0
v  2.15285 9.04616 0
v  3.14933 8.32856 0
v  2.88473 8.98829 0
v  3.17185 8.58898 0
v  3.15496 8.76838 0
v  3.01422 8.95935 0
v  3.10429 8.88991 0
v  -3.38691 9.83898 0
v  -3.70781 9.87949 0
v  -5.10401 9.18505 0
v  -4.31583 9.91421 0
v  -4.92386 9.92 0
v  7.42801 -0.421435 0
v  7.31541 -1.37051 0
v  7.43364 -0.305694 0
v  7.73765 2.06699 0
v  7.90091 4.61329 0
v  7.92906 4.14454 0
v  7.9178 3.82625 0
v  7.87277 3.28806 0
v  6.21759 -9.98741 1
v  6.12189 -10.0742 1
v  6.17818 -10.0453 1
v  6.257 -9.88903 1
v  6.01492 -10.08 1
v  6.31893 -9.54181 1
v  5.49134 -10.0221 1
v  6.71302 -6.16796 1
v  2.47938 -9.62861 1
v  2.41745 -9.62861 1
v  6.88191 -5.02792 1
v  -3.81478 -8.76634 1
v  7.00577 -3.88787 1
v  6.93821 -4.56495 1
v  -6.95623 -1.09273 1
v  -7.18705 -2.52213 1
v  -5.56003 -8.50593 1
v  7.276 -1.60778 1
v  -6.79296 -0.265185 1
v  7.31541 -1.37051 1
v  2.77213 5.39454 1
v  -6.51147 1.40148 1
v  -6.17931 3.19546 1
v  -6.0273 4.10403 1
v  -5.56003 6.67347 1
v  2.74961 5.52185 1
v  -1.13498 9.49755 1
v  -2.40169 9.67116 1
v  -5.32357 8.10866 1
v  0.00225194 9.31815 1
v  2.78339 5.90958 1
v  1.33652 9.13875 1
v  3.10429 7.97556 1
v  2.15285 9.04616 1
v  3.14933 8.32856 1
v  2.88473 8.98829 1
v  3.17185 8.58898 1
v  3.01422 8.95935 1
v  3.15496 8.76838 1
v  3.10429 8.88991 1
v  -3.38691 9.83898 1
v  -3.70781 9.87949 1
v  -5.10401 9.18505 1
v  -4.31583 9.91421 1
v  -4.92386 9.92 1
v  7.42801 -0.421435 1
v  7.43364 -0.305694 1
v  7.73765 2.06699 1
v  7.92906 4.14454 1
v  7.90091 4.61329 1
v  7.9178 3.82625 1
v  7.87277 3.28806 1
v  -7.92456 -6.56727 1
v  -8.05405 -7.47583 1
v  -7.87952 -8.12398 1
v  -8.07094 -7.66102 1
v  -7.9696 -8.09505 1
v  -8.06531 -7.92144 1
v  -8.03716 -8.03718 1

# 0 UV coordinates

# 61 vertex normals
vn 0 0 -1
vn 0 0 1
vn 0.45712 -0.889405 0
vn 0.826548 -0.562867 0
vn 0.928291 -0.371854 0
vn 0.984465 -0.175583 0
vn 0.993247 -0.116018 0
vn 0.989204 -0.146548 0
vn 0.992687 -0.120715 0
vn 0.995059 -0.0992851 0
vn 0.99305 -0.117694 0
vn 0.986485 -0.163849 0
vn 0.993036 -0.117812 0
vn 0.998819 -0.0485844 0
vn 0.991891 -0.127091 0
vn 0.993933 -0.109983 0
vn 0.996517 -0.0833933 0
vn 0.999375 -0.0353537 0
vn 0.998202 0.0599436 0
vn 0.15059 0.988596 0
vn 0.984715 0.174176 0
vn 0.996227 -0.0867909 0
vn 0.988151 -0.153486 0
vn 0.991959 -0.126559 0
vn 0.996282 -0.0861528 0
vn 0.995598 0.093731 0
vn 0.922991 0.384822 0
vn 0.610562 0.791969 0
vn 0.218083 0.97593 0
vn 0.0788249 0.996888 0
vn 0.112703 0.993629 0
vn 0.133255 0.991082 0
vn 0.155824 0.987785 0
vn 0.135787 0.990738 0
vn 0.167923 0.9858 0
vn 0.125242 0.992126 0
vn 0.0570139 0.998373 0
vn 0.00951737 0.999955 0
vn -0.971247 0.238076 0
vn -0.979823 0.199866 0
vn -0.986698 0.162563 0
vn -0.983863 0.178924 0
vn -0.986292 0.16501 0
vn -0.983288 0.182058 0
vn -0.986035 0.166537 0
vn -0.981089 0.193557 0
vn -0.987211 0.159418 0
vn -0.983783 0.179363 0
vn -0.989997 0.141092 0
vn -0.995867 0.0908264 0
vn -0.999766 -0.0216135 0
vn -0.971675 -0.23632 0
vn -0.650555 -0.75946 0
vn -0.305834 -0.952085 0
vn -0.162479 -0.986712 0
vn -0.147581 -0.98905 0
vn -0.137051 -0.990564 0
vn 0 -1 0
vn -0.129551 -0.991573 0
vn -0.10986 -0.993947 0
vn 0.0540222 -0.99854 0

# Mesh 'OpenSCAD_Model' with 232 faces
g OpenSCAD_Model
usemtl DefaultMaterial
f  1//1 2//1 3//1
f  2//1 4//1 3//1
f  3//1 4//1 5//1
f  5//1 4//1 6//1
f  6//1 4//1 7//1
f  6//1 7//1 8//1
f  7//1 9//1 8//1
f  9//1 10//1 8//1
f  8//1 10//1 11//1
f  12//1 10//1 13//1
f  12//1 14//1 10//1
f  10//1 14//1 11//1
f  12//1 15//1 16//1
f  12//1 17//1 15//1
f  12//1 13//1 17//1
f  13//1 18//1 17//1
f  18//1 13//1 19//1
f  19//1 20//1 18//1
f  19//1 21//1 22//1
f  20//1 19//1 22//1
f  23//1 21//1 24//1
f  23//1 25//1 21//1
f  21//1 25//1 22//1
f  26//1 23//1 24//1
f  27//1 28//1 15//1
f  15//1 28//1 16//1
f  29//1 28//1 27//1
f  29//1 30//1 28//1
f  30//1 31//1 28//1
f  32//1 28//1 31//1
f  33//1 34//1 31//1
f  35//1 33//1 31//1
f  34//1 32//1 31//1
f  34//1 36//1 32//1
f  32//1 36//1 37//1
f  37//1 36//1 38//1
f  37//1 38//1 39//1
f  38//1 40//1 39//1
f  40//1 41//1 39//1
f  40//1 42//1 41//1
f  42//1 43//1 41//1
f  44//1 42//1 45//1
f  44//1 43//1 42//1
f  44//1 45//1 46//1
f  47//1 33//1 35//1
f  48//1 47//1 35//1
f  49//1 48//1 35//1
f  50//1 48//1 49//1
f  51//1 50//1 49//1
f  28//1 52//1 53//1
f  28//1 54//1 52//1
f  28//1 55//1 54//1
f  28//1 56//1 57//1
f  58//1 28//1 57//1
f  58//1 59//1 28//1
f  28//1 59//1 55//1
f  16//1 28//1 53//1
f  60//2 61//2 62//2
f  63//2 64//2 60//2
f  60//2 64//2 61//2
f  65//2 64//2 63//2
f  66//2 64//2 65//2
f  67//2 66//2 65//2
f  67//2 68//2 66//2
f  67//2 69//2 68//2
f  70//2 69//2 67//2
f  71//2 69//2 72//2
f  69//2 73//2 72//2
f  70//2 73//2 69//2
f  74//2 75//2 71//2
f  74//2 71//2 72//2
f  76//2 71//2 75//2
f  77//2 78//2 72//2
f  78//2 74//2 72//2
f  79//2 80//2 77//2
f  77//2 80//2 78//2
f  78//2 80//2 81//2
f  81//2 80//2 82//2
f  80//2 83//2 82//2
f  80//2 84//2 83//2
f  84//2 80//2 85//2
f  84//2 86//2 87//2
f  84//2 87//2 88//2
f  84//2 85//2 86//2
f  85//2 89//2 86//2
f  90//2 89//2 85//2
f  91//2 89//2 90//2
f  92//2 91//2 90//2
f  92//2 93//2 91//2
f  92//2 94//2 93//2
f  94//2 95//2 93//2
f  94//2 96//2 95//2
f  97//2 95//2 98//2
f  95//2 96//2 98//2
f  99//2 97//2 98//2
f  88//2 100//2 101//2
f  88//2 101//2 102//2
f  88//2 87//2 100//2
f  102//2 101//2 103//2
f  102//2 103//2 104//2
f  79//2 105//2 80//2
f  105//2 106//2 80//2
f  106//2 107//2 80//2
f  108//2 109//2 80//2
f  108//2 80//2 110//2
f  80//2 111//2 110//2
f  107//2 111//2 80//2
f  75//2 112//2 76//2
f  113//2 76//2 112//2
f  113//2 114//2 76//2
f  113//2 115//2 114//2
f  116//2 114//2 117//2
f  114//2 115//2 117//2
f  116//2 117//2 118//2
f  1//3 61//3 2//3
f  1//3 62//3 61//3
f  3//4 62//4 1//4
f  3//4 60//4 62//4
f  5//5 60//5 3//5
f  5//5 63//5 60//5
f  6//6 63//6 5//6
f  6//6 65//6 63//6
f  8//7 65//7 6//7
f  8//7 67//7 65//7
f  11//8 67//8 8//8
f  11//8 70//8 67//8
f  14//9 70//9 11//9
f  14//9 73//9 70//9
f  12//10 73//10 14//10
f  12//10 72//10 73//10
f  16//11 72//11 12//11
f  16//11 77//11 72//11
f  53//12 77//12 16//12
f  53//12 79//12 77//12
f  52//13 79//13 53//13
f  52//13 105//13 79//13
f  54//14 105//14 52//14
f  54//14 106//14 105//14
f  55//15 106//15 54//15
f  55//15 107//15 106//15
f  59//16 107//16 55//16
f  59//16 111//16 107//16
f  58//17 111//17 59//17
f  58//17 110//17 111//17
f  57//18 110//18 58//18
f  57//18 108//18 110//18
f  56//19 108//19 57//19
f  56//19 109//19 108//19
f  28//20 109//20 56//20
f  28//20 80//20 109//20
f  32//21 80//21 28//21
f  32//21 85//21 80//21
f  37//22 85//22 32//22
f  37//22 90//22 85//22
f  39//23 90//23 37//23
f  39//23 92//23 90//23
f  41//24 92//24 39//24
f  41//24 94//24 92//24
f  43//25 94//25 41//25
f  43//25 96//25 94//25
f  44//26 96//26 43//26
f  44//26 98//26 96//26
f  46//27 98//27 44//27
f  46//27 99//27 98//27
f  45//28 99//28 46//28
f  45//28 97//28 99//28
f  42//29 97//29 45//29
f  42//29 95//29 97//29
f  40//30 95//30 42//30
f  40//30 93//30 95//30
f  38//31 93//31 40//31
f  38//31 91//31 93//31
f  36//32 91//32 38//32
f  36//32 89//32 91//32
f  34//33 89//33 36//33
f  34//33 86//33 89//33
f  33//34 86//34 34//34
f  33//34 87//34 86//34
f  47//35 87//35 33//35
f  47//35 100//35 87//35
f  48//36 100//36 47//36
f  48//36 101//36 100//36
f  50//37 101//37 48//37
f  50//37 103//37 101//37
f  51//38 103//38 50//38
f  51//38 104//38 103//38
f  49//39 104//39 51//39
f  49//39 102//39 104//39
f  35//40 102//40 49//40
f  35//40 88//40 102//40
f  31//41 88//41 35//41
f  31//41 84//41 88//41
f  30//42 84//42 31//42
f  30//42 83//42 84//42
f  29//43 83//43 30//43
f  29//43 82//43 83//43
f  27//44 82//44 29//44
f  27//44 81//44 82//44
f  15//45 81//45 27//45
f  15//45 78//45 81//45
f  17//46 78//46 15//46
f  17//46 74//46 78//46
f  18//47 74//47 17//47
f  18//47 75//47 74//47
f  20//48 75//48 18//48
f  20//48 112//48 75//48
f  22//49 112//49 20//49
f  22//49 113//49 112//49
f  25//50 113//50 22//50
f  25//50 115//50 113//50
f  23//51 115//51 25//51
f  23//51 117//51 115//51
f  26//52 117//52 23//52
f  26//52 118//52 117//52
f  24//53 118//53 26//53
f  24//53 116//53 118//53
f  21//54 116//54 24//54
f  21//54 114//54 116//54
f  19//55 114//55 21//55
f  19//55 76//55 114//55
f  13//56 76//56 19//56
f  13//56 71//56 76//56
f  10//57 71//57 13//57
f  10//57 69//57 71//57
f  9//58 69//58 10//58
f  9//58 68//58 69//58
f  7//59 68//59 9//59
f  7//59 66//59 68//59
f  4//60 66//60 7//60
f  4//60 64//60 66//60
f  2//61 64//61 4//61
f  2//61 61//61 64//61

