# File produced by Open Asset Import Library (http://www.assimp.sf.net)
# (assimp v3.1.187496374)

mtllib Kansas.obj.mtl

# 112 vertex positions
v  9.94185 -4.87372 0
v  7.98349 -4.95814 0
v  9.88933 -0.269434 0
v  6.0664 -4.99683 0
v  4.41568 -5.01442 0
v  8.66629 2.92789 0
v  4.26186 4.73936 0
v  1.74076 -5.02849 0
v  8.93266 2.6676 0
v  8.53874 3.07211 0
v  6.07766 4.75695 0
v  -1.0242 4.74639 0
v  -0.735322 -5.02849 0
v  -2.52485 -5.00739 0
v  -4.4532 4.77805 0
v  -5.07597 -4.9089 0
v  -9.97186 -0.860359 0
v  -6.83924 4.89061 0
v  -8.17107 -4.77524 0
v  -10.0206 -1.57791 0
v  -9.77678 3.26908 0
v  -8.36241 4.94337 0
v  -9.68674 4.62329 0
v  -9.64547 4.97151 0
v  -10.0431 -2.22863 0
v  -10.0544 -3.31551 0
v  -9.72425 -4.65916 0
v  -10.0582 -4.6662 0
v  6.75671 4.78157 0
v  6.21272 4.7675 0
v  8.53874 3.09673 0
v  7.1919 4.77805 0
v  8.24611 4.30672 0
v  8.16732 4.34541 0
v  8.64003 3.21632 0
v  7.85594 4.57756 0
v  7.5483 4.73936 0
v  7.69086 4.68308 0
v  7.62334 4.71474 0
v  8.32114 4.28561 0
v  8.40368 4.2821 0
v  8.88764 3.46254 0
v  8.50497 4.29617 0
v  8.97393 4.21175 0
v  9.23654 3.79318 0
v  8.80885 4.37003 0
v  8.90264 4.3032 0
v  8.84262 4.35596 0
v  9.8368 1.93247 0
v  9.36785 2.29476 0
v  9.20653 2.42139 0
v  9.57419 2.20331 0
v  9.80304 2.08723 0
v  9.49165 2.22441 0
v  9.70925 2.18924 0
v  9.76927 2.15758 0
v  9.88933 -0.269434 1
v  7.98349 -4.95814 1
v  9.94185 -4.87372 1
v  4.41568 -5.01442 1
v  6.0664 -4.99683 1
v  9.36785 2.29476 1
v  9.8368 1.93247 1
v  9.20653 2.42139 1
v  8.93266 2.6676 1
v  8.66629 2.92789 1
v  4.26186 4.73936 1
v  1.74076 -5.02849 1
v  8.53874 3.07211 1
v  6.07766 4.75695 1
v  -1.0242 4.74639 1
v  -0.735322 -5.02849 1
v  -4.4532 4.77805 1
v  -2.52485 -5.00739 1
v  -5.07597 -4.9089 1
v  -6.83924 4.89061 1
v  -9.97186 -0.860359 1
v  -10.0206 -1.57791 1
v  -8.17107 -4.77524 1
v  -9.77678 3.26908 1
v  -8.36241 4.94337 1
v  -9.68674 4.62329 1
v  -9.64547 4.97151 1
v  -10.0431 -2.22863 1
v  -10.0544 -3.31551 1
v  -9.72425 -4.65916 1
v  -10.0582 -4.6662 1
v  6.21272 4.7675 1
v  6.75671 4.78157 1
v  8.53874 3.09673 1
v  7.1919 4.77805 1
v  8.16732 4.34541 1
v  8.24611 4.30672 1
v  8.64003 3.21632 1
v  7.85594 4.57756 1
v  7.5483 4.73936 1
v  7.69086 4.68308 1
v  7.62334 4.71474 1
v  8.32114 4.28561 1
v  8.88764 3.46254 1
v  8.40368 4.2821 1
v  9.23654 3.79318 1
v  8.97393 4.21175 1
v  8.50497 4.29617 1
v  8.90264 4.3032 1
v  8.80885 4.37003 1
v  8.84262 4.35596 1
v  9.49165 2.22441 1
v  9.57419 2.20331 1
v  9.80304 2.08723 1
v  9.70925 2.18924 1
v  9.76927 2.15758 1

# 0 UV coordinates

# 58 vertex normals
vn 0 0 -1
vn 0 0 1
vn 0.00525976 -0.999986 0
vn 0.0106536 -0.999943 0
vn 0.0201783 -0.999796 0
vn 0.0430665 -0.999072 0
vn 0.999935 0.0114067 0
vn 0.999716 0.0238467 0
vn 0.977019 0.213153 0
vn 0.901535 0.432706 0
vn 0.466484 0.88453 0
vn 0.103613 0.994618 0
vn 0.247729 0.968829 0
vn 0.494036 0.869442 0
vn 0.617444 0.786615 0
vn 0.668569 0.743651 0
vn 0.6989 0.71522 0
vn 0.749043 0.662521 0
vn 1 0 0
vn 0.763068 -0.646318 0
vn 0.705114 -0.709094 0
vn 0.687851 -0.725852 0
vn 0.847081 0.531464 0
vn 0.788719 0.614753 0
vn 0.660191 0.751098 0
vn 0.384638 0.923067 0
vn -0.236195 0.971706 0
vn -0.137578 0.990491 0
vn 0.042578 0.999093 0
vn 0.270763 0.962646 0
vn 0.440816 0.897598 0
vn 0.597706 0.801715 0
vn 0.538605 0.842558 0
vn 0.424458 0.905447 0
vn 0.31179 0.950151 0
vn 0.107926 0.994159 0
vn 0.0080822 0.999967 0
vn -0.0258552 0.999666 0
vn -0.0778931 0.996962 0
vn -0.00968514 0.999953 0
vn 0.00133082 0.999999 0
vn 0.00923166 0.999957 0
vn 0.0471207 0.998889 0
vn 0.0346184 0.999401 0
vn 0.0219261 0.99976 0
vn -0.993051 0.117687 0
vn -0.997797 0.0663423 0
vn -0.998886 0.0471899 0
vn -0.997698 0.0678126 0
vn -0.999402 0.0345715 0
vn -0.999946 0.0103547 0
vn -0.999996 0.00277757 0
vn 0.0210642 -0.999778 0
vn -0.0745257 -0.997219 0
vn -0.0431446 -0.999069 0
vn -0.0385769 -0.999256 0
vn -0.0117925 -0.99993 0
vn 0 -1 0

# Mesh 'OpenSCAD_Model' with 220 faces
g OpenSCAD_Model
usemtl DefaultMaterial
f  1//1 2//1 3//1
f  2//1 4//1 3//1
f  3//1 4//1 5//1
f  6//1 3//1 5//1
f  7//1 6//1 5//1
f  8//1 7//1 5//1
f  9//1 3//1 6//1
f  10//1 6//1 7//1
f  11//1 10//1 7//1
f  8//1 12//1 7//1
f  8//1 13//1 12//1
f  12//1 14//1 15//1
f  12//1 13//1 14//1
f  14//1 16//1 15//1
f  15//1 17//1 18//1
f  15//1 16//1 17//1
f  16//1 19//1 20//1
f  17//1 16//1 20//1
f  17//1 21//1 18//1
f  18//1 21//1 22//1
f  21//1 23//1 22//1
f  22//1 23//1 24//1
f  20//1 19//1 25//1
f  25//1 19//1 26//1
f  26//1 19//1 27//1
f  26//1 27//1 28//1
f  29//1 10//1 30//1
f  29//1 31//1 10//1
f  30//1 10//1 11//1
f  32//1 31//1 29//1
f  33//1 31//1 34//1
f  33//1 35//1 31//1
f  34//1 31//1 36//1
f  36//1 31//1 32//1
f  36//1 32//1 37//1
f  36//1 37//1 38//1
f  37//1 39//1 38//1
f  40//1 35//1 33//1
f  41//1 42//1 35//1
f  40//1 41//1 35//1
f  43//1 42//1 41//1
f  42//1 44//1 45//1
f  44//1 42//1 43//1
f  43//1 46//1 47//1
f  44//1 43//1 47//1
f  47//1 46//1 48//1
f  49//1 3//1 50//1
f  50//1 3//1 51//1
f  51//1 3//1 9//1
f  49//1 52//1 53//1
f  49//1 54//1 52//1
f  49//1 50//1 54//1
f  52//1 55//1 53//1
f  53//1 55//1 56//1
f  57//2 58//2 59//2
f  60//2 61//2 57//2
f  57//2 61//2 58//2
f  62//2 57//2 63//2
f  64//2 57//2 62//2
f  65//2 57//2 64//2
f  66//2 57//2 65//2
f  60//2 57//2 66//2
f  60//2 66//2 67//2
f  60//2 67//2 68//2
f  67//2 66//2 69//2
f  67//2 69//2 70//2
f  67//2 71//2 68//2
f  71//2 72//2 68//2
f  73//2 74//2 71//2
f  74//2 72//2 71//2
f  73//2 75//2 74//2
f  76//2 77//2 73//2
f  77//2 75//2 73//2
f  78//2 79//2 75//2
f  78//2 75//2 77//2
f  76//2 80//2 77//2
f  81//2 80//2 76//2
f  81//2 82//2 80//2
f  83//2 82//2 81//2
f  84//2 79//2 78//2
f  85//2 79//2 84//2
f  86//2 79//2 85//2
f  87//2 86//2 85//2
f  70//2 69//2 88//2
f  88//2 69//2 89//2
f  69//2 90//2 89//2
f  89//2 90//2 91//2
f  92//2 90//2 93//2
f  90//2 94//2 93//2
f  95//2 90//2 92//2
f  91//2 90//2 95//2
f  96//2 91//2 95//2
f  97//2 96//2 95//2
f  97//2 98//2 96//2
f  93//2 94//2 99//2
f  94//2 100//2 101//2
f  94//2 101//2 99//2
f  102//2 103//2 100//2
f  104//2 100//2 103//2
f  101//2 100//2 104//2
f  105//2 104//2 103//2
f  105//2 106//2 104//2
f  107//2 106//2 105//2
f  108//2 62//2 63//2
f  109//2 108//2 63//2
f  110//2 109//2 63//2
f  110//2 111//2 109//2
f  112//2 111//2 110//2
f  5//3 68//3 8//3
f  5//3 60//3 68//3
f  4//4 60//4 5//4
f  4//4 61//4 60//4
f  2//5 61//5 4//5
f  2//5 58//5 61//5
f  1//6 58//6 2//6
f  1//6 59//6 58//6
f  3//7 59//7 1//7
f  3//7 57//7 59//7
f  49//8 57//8 3//8
f  49//8 63//8 57//8
f  53//9 63//9 49//9
f  53//9 110//9 63//9
f  56//10 110//10 53//10
f  56//10 112//10 110//10
f  55//11 112//11 56//11
f  55//11 111//11 112//11
f  52//12 111//12 55//12
f  52//12 109//12 111//12
f  54//13 109//13 52//13
f  54//13 108//13 109//13
f  50//14 108//14 54//14
f  50//14 62//14 108//14
f  51//15 62//15 50//15
f  51//15 64//15 62//15
f  9//16 64//16 51//16
f  9//16 65//16 64//16
f  6//17 65//17 9//17
f  6//17 66//17 65//17
f  10//18 66//18 6//18
f  10//18 69//18 66//18
f  31//19 69//19 10//19
f  31//19 90//19 69//19
f  35//20 90//20 31//20
f  35//20 94//20 90//20
f  42//21 94//21 35//21
f  42//21 100//21 94//21
f  45//22 100//22 42//22
f  45//22 102//22 100//22
f  44//23 102//23 45//23
f  44//23 103//23 102//23
f  47//24 103//24 44//24
f  47//24 105//24 103//24
f  48//25 105//25 47//25
f  48//25 107//25 105//25
f  46//26 107//26 48//26
f  46//26 106//26 107//26
f  43//27 106//27 46//27
f  43//27 104//27 106//27
f  41//28 104//28 43//28
f  41//28 101//28 104//28
f  40//29 101//29 41//29
f  40//29 99//29 101//29
f  33//30 99//30 40//30
f  33//30 93//30 99//30
f  34//31 93//31 33//31
f  34//31 92//31 93//31
f  36//32 92//32 34//32
f  36//32 95//32 92//32
f  38//33 95//33 36//33
f  38//33 97//33 95//33
f  39//34 97//34 38//34
f  39//34 98//34 97//34
f  37//35 98//35 39//35
f  37//35 96//35 98//35
f  32//36 96//36 37//36
f  32//36 91//36 96//36
f  29//37 91//37 32//37
f  29//37 89//37 91//37
f  30//38 89//38 29//38
f  30//38 88//38 89//38
f  11//39 88//39 30//39
f  11//39 70//39 88//39
f  7//40 70//40 11//40
f  7//40 67//40 70//40
f  12//41 67//41 7//41
f  12//41 71//41 67//41
f  15//42 71//42 12//42
f  15//42 73//42 71//42
f  18//43 73//43 15//43
f  18//43 76//43 73//43
f  22//44 76//44 18//44
f  22//44 81//44 76//44
f  24//45 81//45 22//45
f  24//45 83//45 81//45
f  23//46 83//46 24//46
f  23//46 82//46 83//46
f  21//47 82//47 23//47
f  21//47 80//47 82//47
f  17//48 80//48 21//48
f  17//48 77//48 80//48
f  20//49 77//49 17//49
f  20//49 78//49 77//49
f  25//50 78//50 20//50
f  25//50 84//50 78//50
f  26//51 84//51 25//51
f  26//51 85//51 84//51
f  28//52 85//52 26//52
f  28//52 87//52 85//52
f  27//53 87//53 28//53
f  27//53 86//53 87//53
f  19//54 86//54 27//54
f  19//54 79//54 86//54
f  16//55 79//55 19//55
f  16//55 75//55 79//55
f  14//56 75//56 16//56
f  14//56 74//56 75//56
f  13//57 74//57 14//57
f  13//57 72//57 74//57
f  8//58 72//58 13//58
f  8//58 68//58 72//58

