# File produced by Open Asset Import Library (http://www.assimp.sf.net)
# (assimp v3.1.187496374)

mtllib Oklahoma.obj.mtl

# 276 vertex positions
v  6.82324 -4.67392 0
v  6.47623 -4.60372 0
v  6.9136 -4.61074 0
v  6.70757 -4.73359 0
v  6.58828 -4.68796 0
v  6.42924 -4.55458 0
v  6.33887 -4.48789 0
v  7.24254 -4.34749 0
v  7.27145 -4.33345 0
v  6.23043 -4.48087 0
v  9.89209 0.833275 0
v  8.05222 -4.18252 0
v  7.30037 -4.33345 0
v  3.94595 -4.36855 0
v  4.7701 -4.57915 0
v  4.893 -4.64584 0
v  6.10391 -4.57564 0
v  4.66889 -4.56511 0
v  4.57852 -4.57915 0
v  4.05078 -4.5616 0
v  4.20982 -4.67041 0
v  4.12307 -4.65286 0
v  3.50858 4.51527 0
v  2.2579 -4.27729 0
v  1.28194 -3.7894 0
v  3.11458 -4.52299 0
v  3.18326 -4.53352 0
v  3.66401 -4.85644 0
v  3.23748 -4.62829 0
v  2.91216 -4.65286 0
v  2.63021 -4.55809 0
v  2.79649 -4.6669 0
v  2.85432 -4.68094 0
v  2.82902 -4.68094 0
v  2.11331 -4.44226 0
v  1.74823 -4.54054 0
v  1.92174 -4.54054 0
v  2.04102 -4.49842 0
v  1.31447 -4.48789 0
v  1.29278 -4.38259 0
v  1.28555 -4.27027 0
v  1.61087 4.51878 0
v  1.03975 -3.7543 0
v  0.887938 -3.74026 0
v  0.833718 -3.74728 0
v  -0.0554925 -3.66304 0
v  -1.54474 -2.90488 0
v  0.786727 -3.76483 0
v  -0.149474 -3.64198 0
v  0.0493331 -3.74026 0
v  -3.334 0.282204 0
v  -0.738666 -3.50509 0
v  -1.59896 -2.86978 0
v  -1.50859 -2.98912 0
v  -0.655529 -3.53668 0
v  -0.391657 -3.67006 0
v  -0.590464 -3.58582 0
v  -0.86518 -3.48754 0
v  -1.20496 -3.48052 0
v  -1.50498 -3.12601 0
v  -1.33509 -3.46648 0
v  -1.51582 -3.1927 0
v  -1.51582 -3.32959 0
v  -1.42907 -3.44893 0
v  -1.49052 -3.41734 0
v  -1.47245 -3.43489 0
v  -0.474795 -3.66304 0
v  -0.536244 -3.63847 0
v  -1.62426 -2.87329 0
v  -3.36654 -1.26922 0
v  -2.82072 -2.78203 0
v  -2.39419 -3.04879 0
v  -1.64595 -2.9119 0
v  -2.94 -2.64163 0
v  -3.11351 -2.50474 0
v  -3.40991 -2.32573 0
v  -2.73758 -2.93647 0
v  -1.81945 -3.13654 0
v  -2.68336 -2.99263 0
v  -1.66764 -3.01018 0
v  -1.71101 -3.09793 0
v  -1.76885 -3.13654 0
v  -3.33762 1.13865 0
v  -3.33039 1.51773 0
v  -3.27978 2.11794 0
v  -1.72909 4.58547 0
v  -3.29786 2.00211 0
v  -3.2581 2.40576 0
v  -3.31954 2.9814 0
v  -3.21472 4.62759 0
v  -3.26894 2.66199 0
v  -3.60149 2.99193 0
v  -4.43648 4.67322 0
v  -7.03905 4.8066 0
v  -8.75602 3.25518 0
v  -7.62462 4.85925 0
v  -10.0537 4.96104 0
v  -9.8838 3.30432 0
v  -10.0826 3.30432 0
v  0.739736 -3.79993 0
v  0.685516 -3.85609 0
v  0.461406 -4.15795 0
v  9.55232 2.63742 0
v  8.6378 4.62759 0
v  9.48364 3.09723 0
v  9.4511 3.48684 0
v  9.43665 3.90453 0
v  9.42942 4.62759 0
v  8.06668 -4.18252 0
v  8.29802 -4.35451 0
v  9.9174 -5.03194 0
v  7.98355 -4.24219 0
v  7.72329 -4.52299 0
v  7.35098 -4.36855 0
v  7.64015 -4.58266 0
v  7.5534 -4.54756 0
v  7.61123 -4.58266 0
v  8.6125 -4.62478 0
v  9.46556 -5.03194 0
v  8.88721 -4.84942 0
v  9.27399 -5.02141 0
v  9.08602 -4.97227 0
v  3.29531 -4.82134 0
v  3.5881 -4.95823 0
v  3.29893 -4.84942 0
v  3.32423 -4.92313 0
v  3.52304 -5.01439 0
v  3.36038 -4.98982 0
v  3.44713 -5.03194 0
v  3.47605 -5.03194 0
v  3.40375 -5.02141 0
v  5.14964 -4.83538 0
v  5.97379 -4.73008 0
v  5.89788 -4.83538 0
v  5.37014 -4.97578 0
v  5.75691 -4.97227 0
v  5.5834 -5.03896 0
v  6.6678 -4.73359 0
v  6.9136 -4.61074 1
v  6.47623 -4.60372 1
v  6.82324 -4.67392 1
v  6.42924 -4.55458 1
v  6.33887 -4.48789 1
v  7.24254 -4.34749 1
v  6.58828 -4.68796 1
v  6.70757 -4.73359 1
v  6.6678 -4.73359 1
v  7.27145 -4.33345 1
v  6.23043 -4.48087 1
v  9.89209 0.833275 1
v  8.05222 -4.18252 1
v  7.30037 -4.33345 1
v  3.94595 -4.36855 1
v  4.893 -4.64584 1
v  4.7701 -4.57915 1
v  6.10391 -4.57564 1
v  5.14964 -4.83538 1
v  5.97379 -4.73008 1
v  5.37014 -4.97578 1
v  5.89788 -4.83538 1
v  5.5834 -5.03896 1
v  5.75691 -4.97227 1
v  4.57852 -4.57915 1
v  4.05078 -4.5616 1
v  3.50858 4.51527 1
v  1.28194 -3.7894 1
v  2.2579 -4.27729 1
v  3.18326 -4.53352 1
v  3.11458 -4.52299 1
v  4.66889 -4.56511 1
v  3.23748 -4.62829 1
v  3.66401 -4.85644 1
v  2.63021 -4.55809 1
v  2.91216 -4.65286 1
v  2.79649 -4.6669 1
v  2.85432 -4.68094 1
v  2.82902 -4.68094 1
v  1.74823 -4.54054 1
v  2.11331 -4.44226 1
v  1.29278 -4.38259 1
v  1.31447 -4.48789 1
v  1.28555 -4.27027 1
v  1.92174 -4.54054 1
v  2.04102 -4.49842 1
v  1.03975 -3.7543 1
v  1.61087 4.51878 1
v  0.887938 -3.74026 1
v  -0.0554925 -3.66304 1
v  0.833718 -3.74728 1
v  -1.54474 -2.90488 1
v  -0.149474 -3.64198 1
v  0.786727 -3.76483 1
v  0.0493331 -3.74026 1
v  -3.334 0.282204 1
v  -0.738666 -3.50509 1
v  -1.59896 -2.86978 1
v  -1.50859 -2.98912 1
v  -3.33762 1.13865 1
v  -3.36654 -1.26922 1
v  -1.62426 -2.87329 1
v  -3.11351 -2.50474 1
v  -2.94 -2.64163 1
v  -3.40991 -2.32573 1
v  -2.39419 -3.04879 1
v  -2.82072 -2.78203 1
v  -1.64595 -2.9119 1
v  -2.73758 -2.93647 1
v  -1.81945 -3.13654 1
v  -2.68336 -2.99263 1
v  -1.66764 -3.01018 1
v  -1.71101 -3.09793 1
v  -1.76885 -3.13654 1
v  -3.33039 1.51773 1
v  -1.72909 4.58547 1
v  -3.27978 2.11794 1
v  -3.29786 2.00211 1
v  -3.21472 4.62759 1
v  -3.31954 2.9814 1
v  -3.26894 2.66199 1
v  -3.2581 2.40576 1
v  -3.60149 2.99193 1
v  -4.43648 4.67322 1
v  -7.03905 4.8066 1
v  -8.75602 3.25518 1
v  -7.62462 4.85925 1
v  -10.0537 4.96104 1
v  -9.8838 3.30432 1
v  -10.0826 3.30432 1
v  -0.655529 -3.53668 1
v  -0.86518 -3.48754 1
v  -0.590464 -3.58582 1
v  -0.391657 -3.67006 1
v  -0.536244 -3.63847 1
v  -0.474795 -3.66304 1
v  -1.20496 -3.48052 1
v  -1.50498 -3.12601 1
v  -1.51582 -3.1927 1
v  -1.33509 -3.46648 1
v  -1.51582 -3.32959 1
v  -1.42907 -3.44893 1
v  -1.49052 -3.41734 1
v  -1.47245 -3.43489 1
v  0.739736 -3.79993 1
v  0.685516 -3.85609 1
v  0.461406 -4.15795 1
v  9.55232 2.63742 1
v  8.6378 4.62759 1
v  8.06668 -4.18252 1
v  8.29802 -4.35451 1
v  9.9174 -5.03194 1
v  7.98355 -4.24219 1
v  7.35098 -4.36855 1
v  7.72329 -4.52299 1
v  7.5534 -4.54756 1
v  7.64015 -4.58266 1
v  7.61123 -4.58266 1
v  9.46556 -5.03194 1
v  8.6125 -4.62478 1
v  9.27399 -5.02141 1
v  8.88721 -4.84942 1
v  9.08602 -4.97227 1
v  9.48364 3.09723 1
v  9.4511 3.48684 1
v  9.43665 3.90453 1
v  9.42942 4.62759 1
v  4.20982 -4.67041 1
v  4.12307 -4.65286 1
v  3.29531 -4.82134 1
v  3.29893 -4.84942 1
v  3.5881 -4.95823 1
v  3.32423 -4.92313 1
v  3.52304 -5.01439 1
v  3.36038 -4.98982 1
v  3.44713 -5.03194 1
v  3.47605 -5.03194 1
v  3.40375 -5.02141 1

# 0 UV coordinates

# 127 vertex normals
vn 0 0 -1
vn 0 0 1
vn 0.696643 -0.717418 0
vn 0.811198 -0.584772 0
vn 0.764732 -0.644349 0
vn 0.599534 -0.800349 0
vn -0.0646009 -0.997911 0
vn -0.593799 -0.804614 0
vn -0.722735 -0.691125 0
vn -0.600908 -0.799319 0
vn -0.497687 -0.867357 0
vn 0 -1 0
vn 0.458459 -0.888716 0
vn 0.572995 -0.819559 0
vn 0.624842 -0.780751 0
vn 0.436763 -0.899576 0
vn -0.569929 -0.821694 0
vn -0.662459 -0.749098 0
vn -0.518827 -0.854879 0
vn 0.583088 -0.812409 0
vn 0.733427 -0.679768 0
vn 0.655862 -0.754881 0
vn -0.596633 -0.802514 0
vn -0.65179 -0.758399 0
vn -0.633024 -0.774132 0
vn -0.525671 -0.850688 0
vn -0.252934 -0.967484 0
vn -0.0548818 -0.998493 0
vn 0.999991 0.00431399 0
vn 0.982724 0.185079 0
vn 0.989029 0.147725 0
vn 0.996532 0.0832094 0
vn 0.999401 0.0345951 0
vn 0.99995 0.00999776 0
vn 0 1 0
vn -0.0218928 0.99976 0
vn 0.0018496 0.999998 0
vn 0.0199633 0.999801 0
vn 0.0283402 0.999598 0
vn 0.0373218 0.999303 0
vn 0.0511823 0.998689 0
vn 0.0895501 0.995982 0
vn 0.0418684 0.999123 0
vn -0.999848 0.0174519 0
vn -0.0435311 -0.999052 0
vn -0.0510052 -0.998698 0
vn -0.0373218 -0.999303 0
vn -0.987681 -0.156482 0
vn -0.999106 -0.0422836 0
vn -0.997173 0.0751397 0
vn -0.988045 0.154168 0
vn -0.997752 0.0670113 0
vn -0.999818 0.0190673 0
vn -0.999991 -0.00422054 0
vn -0.99978 0.0209646 0
vn -0.999158 0.0410214 0
vn -0.516974 -0.856001 0
vn -0.619402 -0.785074 0
vn -0.762089 -0.647472 0
vn -0.880525 -0.474 0
vn -0.719423 -0.694572 0
vn -0.190646 -0.981659 0
vn -0.150931 -0.988544 0
vn 0.555233 -0.831695 0
vn 0.896457 -0.443131 0
vn 0.976506 -0.215491 0
vn 0.871866 -0.489745 0
vn 0.137405 -0.990515 0
vn -0.54343 -0.839454 0
vn -0.918972 -0.394324 0
vn -0.999652 -0.0263965 0
vn -0.987037 0.160495 0
vn -1 0 0
vn -0.960852 -0.277062 0
vn -0.696643 -0.717418 0
vn -0.307951 -0.951402 0
vn -0.183566 -0.983007 0
vn -0.107271 -0.99423 0
vn -0.0206561 -0.999787 0
vn -0.137405 -0.990515 0
vn -0.355196 -0.934792 0
vn -0.602681 -0.797983 0
vn -0.371263 -0.928528 0
vn -0.0841391 -0.996454 0
vn 0.115174 -0.993345 0
vn -0.218664 -0.9758 0
vn -0.5931 -0.805129 0
vn -0.711877 -0.702304 0
vn 0.802908 -0.596103 0
vn 0.719423 -0.694572 0
vn 0.598438 -0.801169 0
vn 0.349873 -0.936797 0
vn 0.128401 -0.991722 0
vn -0.0920873 -0.995751 0
vn -0.143433 -0.98966 0
vn -0.999972 -0.00751673 0
vn -0.997935 -0.0642309 0
vn -0.979441 -0.20173 0
vn -0.120496 -0.992714 0
vn 0.332959 -0.942941 0
vn 0.613476 -0.789713 0
vn 0.752038 -0.659119 0
vn -0.602148 -0.798385 0
vn -0.547573 -0.836758 0
vn -0.396247 -0.918144 0
vn 0.539998 -0.841666 0
vn -0.151552 -0.988449 0
vn -0.867983 -0.496593 0
vn -0.957936 -0.286983 0
vn -0.991816 -0.127674 0
vn -0.945825 -0.324677 0
vn -0.879165 -0.476517 0
vn -0.588705 -0.808348 0
vn -0.235909 -0.971775 0
vn 0.653408 -0.757006 0
vn 0.801639 -0.597808 0
vn 0.865825 -0.500347 0
vn -0.878802 -0.477186 0
vn -0.783854 -0.620945 0
vn -0.198284 -0.980145 0
vn 0.24027 -0.970706 0
vn 0.153525 -0.988145 0
vn -0.476945 -0.878933 0
vn -0.594084 -0.804403 0
vn -0.537107 -0.843514 0
vn -0.284048 -0.95881 0
vn 0.35878 -0.933422 0

# Mesh 'OpenSCAD_Model' with 548 faces
g OpenSCAD_Model
usemtl DefaultMaterial
f  1//1 2//1 3//1
f  4//1 5//1 1//1
f  1//1 5//1 2//1
f  3//1 2//1 6//1
f  7//1 3//1 6//1
f  7//1 8//1 3//1
f  7//1 9//1 8//1
f  10//1 9//1 7//1
f  10//1 11//1 9//1
f  11//1 12//1 9//1
f  12//1 13//1 9//1
f  11//1 10//1 14//1
f  15//1 10//1 16//1
f  14//1 10//1 15//1
f  16//1 10//1 17//1
f  14//1 15//1 18//1
f  14//1 18//1 19//1
f  20//1 14//1 19//1
f  19//1 21//1 20//1
f  22//1 20//1 21//1
f  23//1 11//1 14//1
f  24//1 25//1 14//1
f  26//1 14//1 27//1
f  14//1 26//1 24//1
f  14//1 28//1 29//1
f  23//1 14//1 25//1
f  14//1 29//1 27//1
f  26//1 30//1 31//1
f  24//1 26//1 31//1
f  31//1 30//1 32//1
f  30//1 33//1 32//1
f  32//1 33//1 34//1
f  35//1 36//1 24//1
f  24//1 36//1 25//1
f  37//1 35//1 38//1
f  37//1 36//1 35//1
f  36//1 39//1 40//1
f  41//1 25//1 36//1
f  41//1 36//1 40//1
f  42//1 25//1 43//1
f  42//1 23//1 25//1
f  42//1 43//1 44//1
f  45//1 46//1 44//1
f  44//1 46//1 47//1
f  42//1 44//1 47//1
f  48//1 46//1 45//1
f  46//1 49//1 47//1
f  50//1 46//1 48//1
f  42//1 47//1 51//1
f  49//1 52//1 47//1
f  51//1 47//1 53//1
f  52//1 54//1 47//1
f  55//1 52//1 49//1
f  49//1 56//1 57//1
f  49//1 57//1 55//1
f  52//1 58//1 54//1
f  59//1 54//1 58//1
f  54//1 59//1 60//1
f  61//1 62//1 59//1
f  59//1 62//1 60//1
f  62//1 61//1 63//1
f  64//1 63//1 61//1
f  65//1 63//1 64//1
f  64//1 66//1 65//1
f  57//1 67//1 68//1
f  67//1 57//1 56//1
f  53//1 69//1 70//1
f  51//1 53//1 70//1
f  71//1 69//1 72//1
f  72//1 69//1 73//1
f  71//1 74//1 69//1
f  69//1 74//1 70//1
f  74//1 75//1 70//1
f  70//1 75//1 76//1
f  72//1 77//1 71//1
f  78//1 72//1 73//1
f  77//1 72//1 79//1
f  78//1 73//1 80//1
f  78//1 80//1 81//1
f  82//1 78//1 81//1
f  42//1 51//1 83//1
f  42//1 83//1 84//1
f  42//1 85//1 86//1
f  42//1 87//1 85//1
f  42//1 84//1 87//1
f  85//1 88//1 86//1
f  89//1 90//1 86//1
f  88//1 91//1 86//1
f  91//1 89//1 86//1
f  89//1 92//1 90//1
f  90//1 92//1 93//1
f  92//1 94//1 93//1
f  92//1 95//1 94//1
f  95//1 96//1 94//1
f  97//1 96//1 95//1
f  98//1 97//1 95//1
f  98//1 99//1 97//1
f  100//1 50//1 48//1
f  100//1 101//1 50//1
f  102//1 50//1 101//1
f  103//1 11//1 23//1
f  104//1 103//1 23//1
f  105//1 103//1 104//1
f  104//1 106//1 105//1
f  106//1 104//1 107//1
f  107//1 104//1 108//1
f  109//1 12//1 11//1
f  110//1 109//1 11//1
f  111//1 110//1 11//1
f  12//1 112//1 13//1
f  112//1 113//1 114//1
f  112//1 114//1 13//1
f  115//1 116//1 113//1
f  113//1 116//1 114//1
f  115//1 117//1 116//1
f  118//1 110//1 111//1
f  118//1 111//1 119//1
f  120//1 118//1 119//1
f  120//1 119//1 121//1
f  120//1 121//1 122//1
f  28//1 123//1 29//1
f  28//1 124//1 123//1
f  124//1 125//1 123//1
f  126//1 124//1 127//1
f  126//1 125//1 124//1
f  126//1 127//1 128//1
f  128//1 127//1 129//1
f  129//1 127//1 130//1
f  131//1 128//1 129//1
f  16//1 17//1 132//1
f  132//1 17//1 133//1
f  134//1 135//1 132//1
f  134//1 132//1 133//1
f  134//1 136//1 135//1
f  136//1 137//1 135//1
f  4//1 138//1 5//1
f  139//2 140//2 141//2
f  142//2 140//2 139//2
f  142//2 139//2 143//2
f  139//2 144//2 143//2
f  140//2 145//2 141//2
f  141//2 145//2 146//2
f  145//2 147//2 146//2
f  144//2 148//2 143//2
f  143//2 148//2 149//2
f  148//2 150//2 149//2
f  148//2 151//2 150//2
f  148//2 152//2 151//2
f  153//2 149//2 150//2
f  154//2 149//2 155//2
f  155//2 149//2 153//2
f  156//2 149//2 154//2
f  157//2 156//2 154//2
f  158//2 156//2 157//2
f  157//2 159//2 160//2
f  158//2 157//2 160//2
f  159//2 161//2 162//2
f  159//2 162//2 160//2
f  163//2 153//2 164//2
f  153//2 150//2 165//2
f  153//2 166//2 167//2
f  168//2 153//2 169//2
f  167//2 169//2 153//2
f  170//2 155//2 153//2
f  171//2 172//2 153//2
f  166//2 153//2 165//2
f  168//2 171//2 153//2
f  163//2 170//2 153//2
f  173//2 174//2 169//2
f  173//2 169//2 167//2
f  175//2 174//2 173//2
f  175//2 176//2 174//2
f  177//2 176//2 175//2
f  167//2 178//2 179//2
f  166//2 178//2 167//2
f  180//2 181//2 178//2
f  178//2 166//2 182//2
f  180//2 178//2 182//2
f  179//2 178//2 183//2
f  184//2 179//2 183//2
f  185//2 166//2 186//2
f  166//2 165//2 186//2
f  187//2 185//2 186//2
f  187//2 188//2 189//2
f  190//2 188//2 187//2
f  190//2 187//2 186//2
f  190//2 191//2 188//2
f  192//2 188//2 193//2
f  189//2 188//2 192//2
f  194//2 190//2 186//2
f  190//2 195//2 191//2
f  196//2 190//2 194//2
f  190//2 197//2 195//2
f  198//2 194//2 186//2
f  199//2 196//2 194//2
f  199//2 200//2 196//2
f  199//2 201//2 202//2
f  203//2 201//2 199//2
f  199//2 202//2 200//2
f  204//2 200//2 205//2
f  206//2 200//2 204//2
f  200//2 202//2 205//2
f  205//2 207//2 204//2
f  206//2 204//2 208//2
f  209//2 204//2 207//2
f  210//2 206//2 208//2
f  211//2 210//2 208//2
f  211//2 208//2 212//2
f  213//2 198//2 186//2
f  214//2 215//2 186//2
f  215//2 216//2 186//2
f  216//2 213//2 186//2
f  214//2 217//2 218//2
f  214//2 219//2 220//2
f  214//2 220//2 215//2
f  214//2 218//2 219//2
f  217//2 221//2 218//2
f  222//2 221//2 217//2
f  222//2 223//2 221//2
f  223//2 224//2 221//2
f  223//2 225//2 224//2
f  224//2 225//2 226//2
f  224//2 226//2 227//2
f  226//2 228//2 227//2
f  191//2 195//2 229//2
f  197//2 230//2 195//2
f  231//2 232//2 191//2
f  229//2 231//2 191//2
f  233//2 234//2 231//2
f  232//2 231//2 234//2
f  230//2 197//2 235//2
f  236//2 235//2 197//2
f  235//2 237//2 238//2
f  236//2 237//2 235//2
f  239//2 238//2 237//2
f  238//2 239//2 240//2
f  240//2 239//2 241//2
f  241//2 242//2 240//2
f  192//2 193//2 243//2
f  244//2 193//2 245//2
f  193//2 244//2 243//2
f  165//2 150//2 246//2
f  165//2 246//2 247//2
f  150//2 151//2 248//2
f  150//2 248//2 249//2
f  150//2 249//2 250//2
f  152//2 251//2 151//2
f  152//2 252//2 251//2
f  252//2 253//2 251//2
f  252//2 254//2 253//2
f  253//2 254//2 255//2
f  254//2 256//2 255//2
f  257//2 250//2 258//2
f  250//2 249//2 258//2
f  259//2 257//2 260//2
f  257//2 258//2 260//2
f  261//2 259//2 260//2
f  247//2 246//2 262//2
f  262//2 263//2 247//2
f  264//2 247//2 263//2
f  265//2 247//2 264//2
f  164//2 266//2 163//2
f  266//2 164//2 267//2
f  171//2 268//2 172//2
f  268//2 269//2 270//2
f  268//2 270//2 172//2
f  270//2 269//2 271//2
f  272//2 270//2 271//2
f  273//2 272//2 271//2
f  274//2 272//2 273//2
f  275//2 272//2 274//2
f  274//2 273//2 276//2
f  134//3 162//3 136//3
f  134//3 160//3 162//3
f  133//4 160//4 134//4
f  133//4 158//4 160//4
f  17//5 158//5 133//5
f  17//5 156//5 158//5
f  10//6 156//6 17//6
f  10//6 149//6 156//6
f  7//7 149//7 10//7
f  7//7 143//7 149//7
f  6//8 143//8 7//8
f  6//8 142//8 143//8
f  2//9 142//9 6//9
f  2//9 140//9 142//9
f  5//10 140//10 2//10
f  5//10 145//10 140//10
f  138//11 145//11 5//11
f  138//11 147//11 145//11
f  4//12 147//12 138//12
f  4//12 146//12 147//12
f  1//13 146//13 4//13
f  1//13 141//13 146//13
f  3//14 141//14 1//14
f  3//14 139//14 141//14
f  8//15 139//15 3//15
f  8//15 144//15 139//15
f  9//16 144//16 8//16
f  9//16 148//16 144//16
f  13//12 148//12 9//12
f  13//12 152//12 148//12
f  114//17 152//17 13//17
f  114//17 252//17 152//17
f  116//18 252//18 114//18
f  116//18 254//18 252//18
f  117//19 254//19 116//19
f  117//19 256//19 254//19
f  115//12 256//12 117//12
f  115//12 255//12 256//12
f  113//20 255//20 115//20
f  113//20 253//20 255//20
f  112//21 253//21 113//21
f  112//21 251//21 253//21
f  12//22 251//22 112//22
f  12//22 151//22 251//22
f  109//12 151//12 12//12
f  109//12 248//12 151//12
f  110//23 248//23 109//23
f  110//23 249//23 248//23
f  118//24 249//24 110//24
f  118//24 258//24 249//24
f  120//25 258//25 118//25
f  120//25 260//25 258//25
f  122//26 260//26 120//26
f  122//26 261//26 260//26
f  121//27 261//27 122//27
f  121//27 259//27 261//27
f  119//28 259//28 121//28
f  119//28 257//28 259//28
f  111//12 257//12 119//12
f  111//12 250//12 257//12
f  11//29 250//29 111//29
f  11//29 150//29 250//29
f  103//30 150//30 11//30
f  103//30 246//30 150//30
f  105//31 246//31 103//31
f  105//31 262//31 246//31
f  106//32 262//32 105//32
f  106//32 263//32 262//32
f  107//33 263//33 106//33
f  107//33 264//33 263//33
f  108//34 264//34 107//34
f  108//34 265//34 264//34
f  104//35 265//35 108//35
f  104//35 247//35 265//35
f  23//36 247//36 104//36
f  23//36 165//36 247//36
f  42//37 165//37 23//37
f  42//37 186//37 165//37
f  86//38 186//38 42//38
f  86//38 214//38 186//38
f  90//39 214//39 86//39
f  90//39 217//39 214//39
f  93//40 217//40 90//40
f  93//40 222//40 217//40
f  94//41 222//41 93//41
f  94//41 223//41 222//41
f  96//42 223//42 94//42
f  96//42 225//42 223//42
f  97//43 225//43 96//43
f  97//43 226//43 225//43
f  99//44 226//44 97//44
f  99//44 228//44 226//44
f  98//12 228//12 99//12
f  98//12 227//12 228//12
f  95//45 227//45 98//45
f  95//45 224//45 227//45
f  92//46 224//46 95//46
f  92//46 221//46 224//46
f  89//47 221//47 92//47
f  89//47 218//47 221//47
f  91//48 218//48 89//48
f  91//48 219//48 218//48
f  88//49 219//49 91//49
f  88//49 220//49 219//49
f  85//50 220//50 88//50
f  85//50 215//50 220//50
f  87//51 215//51 85//51
f  87//51 216//51 215//51
f  84//52 216//52 87//52
f  84//52 213//52 216//52
f  83//53 213//53 84//53
f  83//53 198//53 213//53
f  51//54 198//54 83//54
f  51//54 194//54 198//54
f  70//55 194//55 51//55
f  70//55 199//55 194//55
f  76//56 199//56 70//56
f  76//56 203//56 199//56
f  75//57 203//57 76//57
f  75//57 201//57 203//57
f  74//58 201//58 75//58
f  74//58 202//58 201//58
f  71//59 202//59 74//59
f  71//59 205//59 202//59
f  77//60 205//60 71//60
f  77//60 207//60 205//60
f  79//61 207//61 77//61
f  79//61 209//61 207//61
f  72//62 209//62 79//62
f  72//62 204//62 209//62
f  78//63 204//63 72//63
f  78//63 208//63 204//63
f  82//12 208//12 78//12
f  82//12 212//12 208//12
f  81//64 212//64 82//64
f  81//64 211//64 212//64
f  80//65 211//65 81//65
f  80//65 210//65 211//65
f  73//66 210//66 80//66
f  73//66 206//66 210//66
f  69//67 206//67 73//67
f  69//67 200//67 206//67
f  53//68 200//68 69//68
f  53//68 196//68 200//68
f  47//69 196//69 53//69
f  47//69 190//69 196//69
f  54//70 190//70 47//70
f  54//70 197//70 190//70
f  60//71 197//71 54//71
f  60//71 236//71 197//71
f  62//72 236//72 60//72
f  62//72 237//72 236//72
f  63//73 237//73 62//73
f  63//73 239//73 237//73
f  65//74 239//74 63//74
f  65//74 241//74 239//74
f  66//75 241//75 65//75
f  66//75 242//75 241//75
f  64//76 242//76 66//76
f  64//76 240//76 242//76
f  61//77 240//77 64//77
f  61//77 238//77 240//77
f  59//78 238//78 61//78
f  59//78 235//78 238//78
f  58//79 235//79 59//79
f  58//79 230//79 235//79
f  52//80 230//80 58//80
f  52//80 195//80 230//80
f  55//81 195//81 52//81
f  55//81 229//81 195//81
f  57//82 229//82 55//82
f  57//82 231//82 229//82
f  68//75 231//75 57//75
f  68//75 233//75 231//75
f  67//83 233//83 68//83
f  67//83 234//83 233//83
f  56//84 234//84 67//84
f  56//84 232//84 234//84
f  49//85 232//85 56//85
f  49//85 191//85 232//85
f  46//86 191//86 49//86
f  46//86 188//86 191//86
f  50//87 188//87 46//87
f  50//87 193//87 188//87
f  102//88 193//88 50//88
f  102//88 245//88 193//88
f  101//89 245//89 102//89
f  101//89 244//89 245//89
f  100//90 244//90 101//90
f  100//90 243//90 244//90
f  48//91 243//91 100//91
f  48//91 192//91 243//91
f  45//92 192//92 48//92
f  45//92 189//92 192//92
f  44//93 189//93 45//93
f  44//93 187//93 189//93
f  43//94 187//94 44//94
f  43//94 185//94 187//94
f  25//95 185//95 43//95
f  25//95 166//95 185//95
f  41//96 166//96 25//96
f  41//96 182//96 166//96
f  40//97 182//97 41//97
f  40//97 180//97 182//97
f  39//98 180//98 40//98
f  39//98 181//98 180//98
f  36//99 181//99 39//99
f  36//99 178//99 181//99
f  37//12 178//12 36//12
f  37//12 183//12 178//12
f  38//100 183//100 37//100
f  38//100 184//100 183//100
f  35//101 184//101 38//101
f  35//101 179//101 184//101
f  24//102 179//102 35//102
f  24//102 167//102 179//102
f  31//103 167//103 24//103
f  31//103 173//103 167//103
f  32//104 173//104 31//104
f  32//104 175//104 173//104
f  34//105 175//105 32//105
f  34//105 177//105 175//105
f  33//12 177//12 34//12
f  33//12 176//12 177//12
f  30//16 176//16 33//16
f  30//16 174//16 176//16
f  26//106 174//106 30//106
f  26//106 169//106 174//106
f  27//107 169//107 26//107
f  27//107 168//107 169//107
f  29//108 168//108 27//108
f  29//108 171//108 168//108
f  123//109 171//109 29//109
f  123//109 268//109 171//109
f  125//110 268//110 123//110
f  125//110 269//110 268//110
f  126//111 269//111 125//111
f  126//111 271//111 269//111
f  128//112 271//112 126//112
f  128//112 273//112 271//112
f  131//113 273//113 128//113
f  131//113 276//113 273//113
f  129//114 276//114 131//114
f  129//114 274//114 276//114
f  130//12 274//12 129//12
f  130//12 275//12 274//12
f  127//92 275//92 130//92
f  127//92 272//92 275//92
f  124//115 272//115 127//115
f  124//115 270//115 272//115
f  28//116 270//116 124//116
f  28//116 172//116 270//116
f  14//117 172//117 28//117
f  14//117 153//117 172//117
f  20//118 153//118 14//118
f  20//118 164//118 153//118
f  22//119 164//119 20//119
f  22//119 267//119 164//119
f  21//120 267//120 22//120
f  21//120 266//120 267//120
f  19//121 266//121 21//121
f  19//121 163//121 266//121
f  18//122 163//122 19//122
f  18//122 170//122 163//122
f  15//80 170//80 18//80
f  15//80 155//80 170//80
f  16//123 155//123 15//123
f  16//123 154//123 155//123
f  132//124 154//124 16//124
f  132//124 157//124 154//124
f  135//125 157//125 132//125
f  135//125 159//125 157//125
f  137//126 159//126 135//126
f  137//126 161//126 159//126
f  136//127 161//127 137//127
f  136//127 162//127 161//127

