# File produced by Open Asset Import Library (http://www.assimp.sf.net)
# (assimp v3.1.187496374)

mtllib CleanAir.obj.mtl

# 200 vertex positions
v  3.70458 4.58411 0
v  3.48785 -2.12054 0
v  3.50496 4.61409 0
v  4.44602 -2.02459 0
v  3.96123 4.57811 0
v  3.13994 -2.18051 0
v  3.37948 4.65007 0
v  2.75781 4.806 0
v  2.60952 -2.30645 0
v  3.0829 4.75802 0
v  3.29963 4.68606 0
v  2.91751 4.794 0
v  2.27302 -2.34243 0
v  1.81104 -2.35442 0
v  2.44983 4.90195 0
v  1.12663 5.11184 0
v  0.949825 5.12984 0
v  -1.95322 4.58411 0
v  -2.18135 -2.24648 0
v  1.64564 5.12384 0
v  2.0734 5.05787 0
v  1.87378 5.10585 0
v  -3.15094 -2.04258 0
v  -2.62622 -2.21049 0
v  -3.95512 -1.48486 0
v  -2.10721 4.54213 0
v  -3.62432 -1.77271 0
v  -2.9285 -2.13853 0
v  -4.21177 -1.30495 0
v  -4.30303 3.6066 0
v  -3.89238 -1.55682 0
v  -4.03497 3.85847 0
v  -2.46652 4.53613 0
v  -4.47983 3.46867 0
v  -4.73078 3.31874 0
v  -4.54827 -1.15502 0
v  -5.62622 2.52714 0
v  -5.20987 3.04288 0
v  -4.88478 3.28276 0
v  -5.94561 1.87946 0
v  -6.03116 0.422189 0
v  -6.0882 1.36972 0
v  -6.11101 1.0039 0
v  -5.73459 -0.261469 0
v  -5.2555 -0.801199 0
v  -4.78782 -1.08306 0
v  -3.28782 4.33223 0
v  -3.73268 4.09235 0
v  -2.82014 4.48216 0
v  -1.83915 4.68606 0
v  0.818646 5.17181 0
v  -1.67945 4.91994 0
v  -1.02926 5.44768 0
v  0.670357 5.29175 0
v  -1.14333 5.38771 0
v  -1.44561 5.17181 0
v  0.231194 5.52564 0
v  -0.687057 5.57961 0
v  0.504958 5.3997 0
v  -0.0710875 5.6096 0
v  -0.504548 5.62759 0
v  -0.282114 5.64558 0
v  -0.390479 5.64558 0
v  4.46313 4.6081 0
v  5.10192 -1.94663 0
v  4.99925 4.57211 0
v  5.68937 -1.8087 0
v  5.58671 -1.85067 0
v  5.68937 4.41619 0
v  6.86427 3.72054 0
v  5.95743 -1.73073 0
v  6.32245 4.12834 0
v  6.16275 -1.68876 0
v  7.10382 3.57061 0
v  6.7388 3.84048 0
v  8.2331 0.212294 0
v  8.0677 -0.117541 0
v  7.34336 3.48066 0
v  8.34716 0.404198 0
v  7.46313 3.45667 0
v  7.68557 3.3907 0
v  8.64944 0.847976 0
v  8.72929 2.37121 0
v  7.97644 3.26477 0
v  8.78062 1.14183 0
v  8.581 2.69505 0
v  8.86047 1.44768 0
v  8.84336 2.03538 0
v  8.2331 3.10885 0
v  8.47264 2.88696 0
v  8.38138 2.98891 0
v  8.88899 1.68756 0
v  8.88329 1.83148 0
v  8.02777 -0.231484 0
v  7.82815 -0.573313 0
v  7.53157 -0.933133 0
v  7.12663 -1.31094 0
v  6.80724 -1.52084 0
v  6.29963 -1.68876 0
v  6.51066 -1.64678 0
v  3.50496 4.61409 1
v  3.48785 -2.12054 1
v  3.70458 4.58411 1
v  3.13994 -2.18051 1
v  3.37948 4.65007 1
v  4.44602 -2.02459 1
v  3.96123 4.57811 1
v  4.46313 4.6081 1
v  5.10192 -1.94663 1
v  4.99925 4.57211 1
v  5.58671 -1.85067 1
v  5.68937 -1.8087 1
v  5.68937 4.41619 1
v  5.95743 -1.73073 1
v  6.86427 3.72054 1
v  6.32245 4.12834 1
v  6.16275 -1.68876 1
v  7.10382 3.57061 1
v  6.7388 3.84048 1
v  8.0677 -0.117541 1
v  8.2331 0.212294 1
v  7.34336 3.48066 1
v  7.82815 -0.573313 1
v  8.02777 -0.231484 1
v  7.53157 -0.933133 1
v  7.12663 -1.31094 1
v  6.80724 -1.52084 1
v  6.51066 -1.64678 1
v  6.29963 -1.68876 1
v  8.34716 0.404198 1
v  7.46313 3.45667 1
v  8.64944 0.847976 1
v  7.68557 3.3907 1
v  8.78062 1.14183 1
v  8.72929 2.37121 1
v  7.97644 3.26477 1
v  8.581 2.69505 1
v  8.84336 2.03538 1
v  8.86047 1.44768 1
v  8.2331 3.10885 1
v  8.38138 2.98891 1
v  8.47264 2.88696 1
v  8.88899 1.68756 1
v  8.88329 1.83148 1
v  2.75781 4.806 1
v  2.60952 -2.30645 1
v  3.0829 4.75802 1
v  3.29963 4.68606 1
v  2.91751 4.794 1
v  2.27302 -2.34243 1
v  1.81104 -2.35442 1
v  2.44983 4.90195 1
v  1.12663 5.11184 1
v  0.949825 5.12984 1
v  -1.95322 4.58411 1
v  -2.18135 -2.24648 1
v  2.0734 5.05787 1
v  1.64564 5.12384 1
v  1.87378 5.10585 1
v  0.818646 5.17181 1
v  -1.83915 4.68606 1
v  -2.10721 4.54213 1
v  -1.67945 4.91994 1
v  0.670357 5.29175 1
v  -1.02926 5.44768 1
v  -1.14333 5.38771 1
v  -1.44561 5.17181 1
v  -0.687057 5.57961 1
v  0.231194 5.52564 1
v  0.504958 5.3997 1
v  -0.0710875 5.6096 1
v  -0.504548 5.62759 1
v  -0.282114 5.64558 1
v  -0.390479 5.64558 1
v  -2.62622 -2.21049 1
v  -3.15094 -2.04258 1
v  -3.95512 -1.48486 1
v  -2.9285 -2.13853 1
v  -3.62432 -1.77271 1
v  -4.30303 3.6066 1
v  -4.21177 -1.30495 1
v  -3.89238 -1.55682 1
v  -2.46652 4.53613 1
v  -4.03497 3.85847 1
v  -4.47983 3.46867 1
v  -4.54827 -1.15502 1
v  -4.73078 3.31874 1
v  -5.62622 2.52714 1
v  -4.88478 3.28276 1
v  -5.20987 3.04288 1
v  -5.94561 1.87946 1
v  -6.03116 0.422189 1
v  -6.11101 1.0039 1
v  -6.0882 1.36972 1
v  -5.73459 -0.261469 1
v  -5.2555 -0.801199 1
v  -4.78782 -1.08306 1
v  -3.73268 4.09235 1
v  -3.28782 4.33223 1
v  -2.82014 4.48216 1

# 0 UV coordinates

# 101 vertex normals
vn 0 0 -1
vn 0 0 1
vn 0.106323 -0.994332 0
vn 0.231008 -0.972952 0
vn 0.169868 -0.985467 0
vn 0.099642 -0.995023 0
vn 0.118031 -0.99301 0
vn 0.194158 -0.98097 0
vn 0.378487 -0.925607 0
vn 0.279262 -0.960215 0
vn 0.20031 -0.979733 0
vn 0 -1 0
vn 0.195105 -0.980782 0
vn 0.390855 -0.920452 0
vn 0.549195 -0.835695 0
vn 0.682187 -0.731177 0
vn 0.771661 -0.636034 0
vn 0.863537 -0.504285 0
vn 0.943745 -0.330674 0
vn 0.893904 -0.448258 0
vn 0.859608 -0.510954 0
vn 0.826483 -0.562962 0
vn 0.913144 -0.407636 0
vn 0.96757 -0.252605 0
vn 0.993008 -0.118049 0
vn 0.999216 0.0395958 0
vn 0.981365 0.192155 0
vn 0.946871 0.321613 0
vn 0.90921 0.416337 0
vn 0.870762 0.491705 0
vn 0.745106 0.666946 0
vn 0.628871 0.77751 0
vn 0.519213 0.854645 0
vn 0.397319 0.917681 0
vn 0.284329 0.958727 0
vn 0.196381 0.980528 0
vn 0.351556 0.936167 0
vn 0.530534 0.847664 0
vn 0.690983 0.722871 0
vn 0.568694 0.822549 0
vn 0.413913 0.910316 0
vn 0.220382 0.975414 0
vn 0.0669647 0.997755 0
vn -0.0596365 0.99822 0
vn 0.0233597 0.999727 0
vn 0.148544 0.988906 0
vn 0.275655 0.961257 0
vn 0.410844 0.911706 0
vn 0.315127 0.94905 0
vn 0.212574 0.977145 0
vn 0.0748944 0.997191 0
vn 0.297447 0.954738 0
vn 0.382686 0.923878 0
vn 0.233683 0.972313 0
vn 0.0786165 0.996905 0
vn -0.0231032 0.999733 0
vn 0.101233 0.994863 0
vn 0.304788 0.95242 0
vn 0.546541 0.837432 0
vn 0.417921 0.908484 0
vn 0.267617 0.963525 0
vn 0.168083 0.985773 0
vn 0 1 0
vn -0.155795 0.987789 0
vn -0.254232 0.967143 0
vn -0.359731 0.933056 0
vn -0.465345 0.885129 0
vn -0.581197 0.813763 0
vn -0.732856 0.680384 0
vn -0.825849 0.563891 0
vn -0.666387 0.745606 0
vn -0.263007 0.964794 0
vn -0.0166877 0.999861 0
vn -0.150886 0.988551 0
vn -0.305269 0.952266 0
vn -0.474616 0.880193 0
vn -0.611942 0.790903 0
vn -0.684761 0.728768 0
vn -0.615094 0.788454 0
vn -0.512872 0.858465 0
vn -0.227532 0.973771 0
vn -0.593738 0.804658 0
vn -0.778097 0.628144 0
vn -0.896877 0.442281 0
vn -0.963034 0.269379 0
vn -0.998061 0.0622427 0
vn -0.99071 -0.135989 0
vn -0.917396 -0.397976 0
vn -0.747872 -0.663843 0
vn -0.516179 -0.856481 0
vn -0.287718 -0.957715 0
vn -0.406974 -0.91344 0
vn -0.574002 -0.818854 0
vn -0.753774 -0.657134 0
vn -0.627249 -0.778819 0
vn -0.495253 -0.868749 0
vn -0.396092 -0.918211 0
vn -0.231597 -0.972812 0
vn -0.0806194 -0.996745 0
vn -0.027028 -0.999635 0
vn 0.0259536 -0.999663 0

# Mesh 'OpenSCAD_Model' with 396 faces
g OpenSCAD_Model
usemtl DefaultMaterial
f  1//1 2//1 3//1
f  4//1 1//1 5//1
f  4//1 2//1 1//1
f  2//1 6//1 3//1
f  3//1 6//1 7//1
f  7//1 6//1 8//1
f  8//1 6//1 9//1
f  7//1 8//1 10//1
f  10//1 11//1 7//1
f  10//1 8//1 12//1
f  13//1 8//1 9//1
f  13//1 14//1 8//1
f  8//1 14//1 15//1
f  15//1 14//1 16//1
f  16//1 14//1 17//1
f  17//1 14//1 18//1
f  18//1 14//1 19//1
f  15//1 20//1 21//1
f  15//1 16//1 20//1
f  20//1 22//1 21//1
f  23//1 19//1 24//1
f  23//1 25//1 19//1
f  19//1 25//1 26//1
f  18//1 19//1 26//1
f  27//1 25//1 23//1
f  23//1 24//1 28//1
f  29//1 30//1 25//1
f  25//1 30//1 26//1
f  31//1 25//1 27//1
f  26//1 32//1 33//1
f  26//1 30//1 32//1
f  29//1 34//1 30//1
f  35//1 29//1 36//1
f  35//1 34//1 29//1
f  35//1 36//1 37//1
f  35//1 38//1 39//1
f  35//1 37//1 38//1
f  37//1 36//1 40//1
f  36//1 41//1 40//1
f  42//1 40//1 43//1
f  43//1 40//1 41//1
f  36//1 44//1 41//1
f  36//1 45//1 44//1
f  36//1 46//1 45//1
f  47//1 32//1 48//1
f  47//1 49//1 32//1
f  32//1 49//1 33//1
f  18//1 50//1 51//1
f  17//1 18//1 51//1
f  50//1 52//1 51//1
f  51//1 53//1 54//1
f  51//1 55//1 53//1
f  51//1 52//1 55//1
f  52//1 56//1 55//1
f  57//1 53//1 58//1
f  57//1 59//1 53//1
f  53//1 59//1 54//1
f  58//1 60//1 57//1
f  61//1 60//1 58//1
f  61//1 62//1 60//1
f  63//1 62//1 61//1
f  4//1 5//1 64//1
f  65//1 4//1 64//1
f  65//1 64//1 66//1
f  67//1 68//1 65//1
f  65//1 69//1 67//1
f  65//1 66//1 69//1
f  70//1 71//1 67//1
f  72//1 70//1 67//1
f  69//1 72//1 67//1
f  73//1 70//1 74//1
f  73//1 71//1 70//1
f  72//1 75//1 70//1
f  76//1 77//1 74//1
f  74//1 78//1 76//1
f  73//1 74//1 77//1
f  78//1 79//1 76//1
f  80//1 79//1 78//1
f  81//1 82//1 79//1
f  81//1 79//1 80//1
f  83//1 81//1 84//1
f  83//1 82//1 81//1
f  82//1 83//1 85//1
f  84//1 86//1 83//1
f  87//1 83//1 88//1
f  87//1 85//1 83//1
f  89//1 86//1 84//1
f  90//1 86//1 91//1
f  91//1 86//1 89//1
f  87//1 88//1 92//1
f  92//1 88//1 93//1
f  94//1 95//1 77//1
f  77//1 95//1 96//1
f  77//1 96//1 73//1
f  97//1 73//1 96//1
f  98//1 73//1 97//1
f  99//1 73//1 100//1
f  100//1 73//1 98//1
f  101//2 102//2 103//2
f  101//2 104//2 102//2
f  105//2 104//2 101//2
f  103//2 102//2 106//2
f  107//2 103//2 106//2
f  108//2 107//2 106//2
f  108//2 106//2 109//2
f  110//2 108//2 109//2
f  109//2 111//2 112//2
f  112//2 113//2 109//2
f  113//2 110//2 109//2
f  112//2 114//2 115//2
f  112//2 115//2 116//2
f  112//2 116//2 113//2
f  115//2 114//2 117//2
f  118//2 115//2 117//2
f  115//2 119//2 116//2
f  118//2 120//2 121//2
f  121//2 122//2 118//2
f  120//2 118//2 117//2
f  120//2 123//2 124//2
f  125//2 123//2 120//2
f  117//2 125//2 120//2
f  125//2 117//2 126//2
f  126//2 117//2 127//2
f  127//2 117//2 128//2
f  128//2 117//2 129//2
f  122//2 130//2 131//2
f  121//2 130//2 122//2
f  130//2 132//2 133//2
f  131//2 130//2 133//2
f  134//2 135//2 132//2
f  133//2 132//2 135//2
f  136//2 133//2 135//2
f  135//2 137//2 136//2
f  138//2 135//2 139//2
f  135//2 134//2 139//2
f  136//2 137//2 140//2
f  141//2 137//2 142//2
f  140//2 137//2 141//2
f  143//2 138//2 139//2
f  144//2 138//2 143//2
f  145//2 104//2 105//2
f  146//2 104//2 145//2
f  147//2 145//2 105//2
f  105//2 148//2 147//2
f  149//2 145//2 147//2
f  146//2 145//2 150//2
f  145//2 151//2 150//2
f  152//2 151//2 145//2
f  153//2 151//2 152//2
f  154//2 151//2 153//2
f  155//2 151//2 154//2
f  156//2 151//2 155//2
f  157//2 158//2 152//2
f  158//2 153//2 152//2
f  157//2 159//2 158//2
f  160//2 161//2 155//2
f  160//2 155//2 154//2
f  162//2 156//2 155//2
f  160//2 163//2 161//2
f  164//2 165//2 160//2
f  165//2 166//2 160//2
f  166//2 163//2 160//2
f  166//2 167//2 163//2
f  168//2 165//2 169//2
f  165//2 170//2 169//2
f  164//2 170//2 165//2
f  168//2 171//2 172//2
f  169//2 171//2 168//2
f  171//2 173//2 172//2
f  172//2 173//2 174//2
f  175//2 156//2 176//2
f  156//2 177//2 176//2
f  162//2 177//2 156//2
f  178//2 175//2 176//2
f  176//2 177//2 179//2
f  177//2 180//2 181//2
f  162//2 180//2 177//2
f  179//2 177//2 182//2
f  183//2 184//2 162//2
f  184//2 180//2 162//2
f  180//2 185//2 181//2
f  186//2 181//2 187//2
f  181//2 185//2 187//2
f  188//2 186//2 187//2
f  189//2 190//2 187//2
f  190//2 188//2 187//2
f  191//2 186//2 188//2
f  191//2 192//2 186//2
f  193//2 191//2 194//2
f  192//2 191//2 193//2
f  192//2 195//2 186//2
f  195//2 196//2 186//2
f  196//2 197//2 186//2
f  198//2 184//2 199//2
f  184//2 200//2 199//2
f  183//2 200//2 184//2
f  9//3 150//3 13//3
f  9//3 146//3 150//3
f  6//4 146//4 9//4
f  6//4 104//4 146//4
f  2//5 104//5 6//5
f  2//5 102//5 104//5
f  4//6 102//6 2//6
f  4//6 106//6 102//6
f  65//7 106//7 4//7
f  65//7 109//7 106//7
f  68//8 109//8 65//8
f  68//8 111//8 109//8
f  67//9 111//9 68//9
f  67//9 112//9 111//9
f  71//10 112//10 67//10
f  71//10 114//10 112//10
f  73//11 114//11 71//11
f  73//11 117//11 114//11
f  99//12 117//12 73//12
f  99//12 129//12 117//12
f  100//13 129//13 99//13
f  100//13 128//13 129//13
f  98//14 128//14 100//14
f  98//14 127//14 128//14
f  97//15 127//15 98//15
f  97//15 126//15 127//15
f  96//16 126//16 97//16
f  96//16 125//16 126//16
f  95//17 125//17 96//17
f  95//17 123//17 125//17
f  94//18 123//18 95//18
f  94//18 124//18 123//18
f  77//19 124//19 94//19
f  77//19 120//19 124//19
f  76//20 120//20 77//20
f  76//20 121//20 120//20
f  79//21 121//21 76//21
f  79//21 130//21 121//21
f  82//22 130//22 79//22
f  82//22 132//22 130//22
f  85//23 132//23 82//23
f  85//23 134//23 132//23
f  87//24 134//24 85//24
f  87//24 139//24 134//24
f  92//25 139//25 87//25
f  92//25 143//25 139//25
f  93//26 143//26 92//26
f  93//26 144//26 143//26
f  88//27 144//27 93//27
f  88//27 138//27 144//27
f  83//28 138//28 88//28
f  83//28 135//28 138//28
f  86//29 135//29 83//29
f  86//29 137//29 135//29
f  90//30 137//30 86//30
f  90//30 142//30 137//30
f  91//31 142//31 90//31
f  91//31 141//31 142//31
f  89//32 141//32 91//32
f  89//32 140//32 141//32
f  84//33 140//33 89//33
f  84//33 136//33 140//33
f  81//34 136//34 84//34
f  81//34 133//34 136//34
f  80//35 133//35 81//35
f  80//35 131//35 133//35
f  78//36 131//36 80//36
f  78//36 122//36 131//36
f  74//37 122//37 78//37
f  74//37 118//37 122//37
f  70//38 118//38 74//38
f  70//38 115//38 118//38
f  75//39 115//39 70//39
f  75//39 119//39 115//39
f  72//40 119//40 75//40
f  72//40 116//40 119//40
f  69//41 116//41 72//41
f  69//41 113//41 116//41
f  66//42 113//42 69//42
f  66//42 110//42 113//42
f  64//43 110//43 66//43
f  64//43 108//43 110//43
f  5//44 108//44 64//44
f  5//44 107//44 108//44
f  1//45 107//45 5//45
f  1//45 103//45 107//45
f  3//46 103//46 1//46
f  3//46 101//46 103//46
f  7//47 101//47 3//47
f  7//47 105//47 101//47
f  11//48 105//48 7//48
f  11//48 148//48 105//48
f  10//49 148//49 11//49
f  10//49 147//49 148//49
f  12//50 147//50 10//50
f  12//50 149//50 147//50
f  8//51 149//51 12//51
f  8//51 145//51 149//51
f  15//52 145//52 8//52
f  15//52 152//52 145//52
f  21//53 152//53 15//53
f  21//53 157//53 152//53
f  22//54 157//54 21//54
f  22//54 159//54 157//54
f  20//55 159//55 22//55
f  20//55 158//55 159//55
f  16//56 158//56 20//56
f  16//56 153//56 158//56
f  17//57 153//57 16//57
f  17//57 154//57 153//57
f  51//58 154//58 17//58
f  51//58 160//58 154//58
f  54//32 160//32 51//32
f  54//32 164//32 160//32
f  59//59 164//59 54//59
f  59//59 170//59 164//59
f  57//60 170//60 59//60
f  57//60 169//60 170//60
f  60//61 169//61 57//61
f  60//61 171//61 169//61
f  62//62 171//62 60//62
f  62//62 173//62 171//62
f  63//63 173//63 62//63
f  63//63 174//63 173//63
f  61//64 174//64 63//64
f  61//64 172//64 174//64
f  58//65 172//65 61//65
f  58//65 168//65 172//65
f  53//66 168//66 58//66
f  53//66 165//66 168//66
f  55//67 165//67 53//67
f  55//67 166//67 165//67
f  56//68 166//68 55//68
f  56//68 167//68 166//68
f  52//69 167//69 56//69
f  52//69 163//69 167//69
f  50//70 163//70 52//70
f  50//70 161//70 163//70
f  18//71 161//71 50//71
f  18//71 155//71 161//71
f  26//72 155//72 18//72
f  26//72 162//72 155//72
f  33//73 162//73 26//73
f  33//73 183//73 162//73
f  49//74 183//74 33//74
f  49//74 200//74 183//74
f  47//75 200//75 49//75
f  47//75 199//75 200//75
f  48//76 199//76 47//76
f  48//76 198//76 199//76
f  32//77 198//77 48//77
f  32//77 184//77 198//77
f  30//78 184//78 32//78
f  30//78 180//78 184//78
f  34//79 180//79 30//79
f  34//79 185//79 180//79
f  35//80 185//80 34//80
f  35//80 187//80 185//80
f  39//81 187//81 35//81
f  39//81 189//81 187//81
f  38//82 189//82 39//82
f  38//82 190//82 189//82
f  37//83 190//83 38//83
f  37//83 188//83 190//83
f  40//84 188//84 37//84
f  40//84 191//84 188//84
f  42//85 191//85 40//85
f  42//85 194//85 191//85
f  43//86 194//86 42//86
f  43//86 193//86 194//86
f  41//87 193//87 43//87
f  41//87 192//87 193//87
f  44//88 192//88 41//88
f  44//88 195//88 192//88
f  45//89 195//89 44//89
f  45//89 196//89 195//89
f  46//90 196//90 45//90
f  46//90 197//90 196//90
f  36//91 197//91 46//91
f  36//91 186//91 197//91
f  29//92 186//92 36//92
f  29//92 181//92 186//92
f  25//93 181//93 29//93
f  25//93 177//93 181//93
f  31//94 177//94 25//94
f  31//94 182//94 177//94
f  27//95 182//95 31//95
f  27//95 179//95 182//95
f  23//96 179//96 27//96
f  23//96 176//96 179//96
f  28//97 176//97 23//97
f  28//97 178//97 176//97
f  24//98 178//98 28//98
f  24//98 175//98 178//98
f  19//99 175//99 24//99
f  19//99 156//99 175//99
f  14//100 156//100 19//100
f  14//100 151//100 156//100
f  13//101 151//101 14//101
f  13//101 150//101 151//101

