# File produced by Open Asset Import Library (http://www.assimp.sf.net)
# (assimp v3.1.187496374)

mtllib Missouri.obj.mtl

# 240 vertex positions
v  8.47043 -7.78915 0
v  8.40396 -7.85116 0
v  8.50668 -7.71586 0
v  8.30124 -7.89063 0
v  8.52481 -7.61438 0
v  8.04143 -7.95264 0
v  8.4946 -7.21973 0
v  6.86922 -6.71797 0
v  7.38282 -8.04285 0
v  8.4946 -6.92093 0
v  8.54898 -6.52629 0
v  8.66378 -6.17674 0
v  6.43418 -6.30078 0
v  8.7665 -5.98506 0
v  8.98402 -5.68062 0
v  8.83901 -5.91177 0
v  8.98402 -5.70881 0
v  8.93569 -5.78774 0
v  9.02028 -5.64679 0
v  8.98402 -3.69049 0
v  9.0807 -3.76942 0
v  9.24384 -5.60169 0
v  9.90245 -4.86878 0
v  8.68795 -3.35222 0
v  8.62149 -3.23383 0
v  7.43115 -1.05201 0
v  7.99309 -1.51431 0
v  8.63357 -3.14362 0
v  6.89943 -0.685553 0
v  2.57315 -6.45863 0
v  6.41605 -0.381113 0
v  6.18644 -0.200705 0
v  6.01726 -0.0315715 0
v  5.89641 0.148837 0
v  -6.68365 -1.41283 0
v  -4.72595 -6.68414 0
v  5.70306 0.487104 0
v  4.87526 2.35884 0
v  -6.72595 -0.663002 0
v  -6.58697 -4.95899 0
v  -6.55072 -5.83284 0
v  -6.24256 -6.69542 0
v  -6.51447 -6.43044 0
v  -6.48425 -6.67287 0
v  6.22874 1.46244 0
v  5.81182 2.49415 0
v  6.0233 2.38703 0
v  6.57919 2.04877 0
v  5.46137 2.55053 0
v  5.62451 2.55617 0
v  4.66378 3.48076 0
v  3.21363 4.68724 0
v  2.63961 5.13827 0
v  -6.77428 2.20662 0
v  2.47647 5.27921 0
v  -3.26371 7.726 0
v  -1.46311 7.80493 0
v  -7.60812 4.6365 0
v  -7.49936 2.84933 0
v  2.34354 5.44834 0
v  -7.67459 4.72107 0
v  -8.83471 7.5907 0
v  -7.71688 4.45046 0
v  -8.03108 3.34545 0
v  -8.1761 3.96561 0
v  -8.28486 3.61607 0
v  -8.27882 3.82467 0
v  -8.31507 3.72319 0
v  -8.30903 3.65553 0
v  -7.84377 4.72107 0
v  -8.877 5.16646 0
v  -9.30601 5.96138 0
v  -8.07338 4.69288 0
v  -8.23048 4.72671 0
v  -8.41779 4.82819 0
v  -9.27579 5.49345 0
v  -9.20933 5.38633 0
v  -9.35434 6.11924 0
v  -9.47519 6.28273 0
v  -10.0915 7.13404 0
v  -9.97066 7.53996 0
v  -10.013 6.86342 0
v  -9.89211 6.69993 0
v  -10.0734 7.01001 0
v  -10.0915 7.22988 0
v  -10.0613 7.39901 0
v  -10.0009 7.52304 0
v  -9.23954 5.38633 0
v  2.26499 5.66258 0
v  0.246864 7.92896 0
v  2.18644 6.07414 0
v  2.15623 6.30529 0
v  2.14415 6.5308 0
v  0.887347 7.9346 0
v  1.33448 7.78802 0
v  2.16227 6.71121 0
v  1.11695 7.89514 0
v  2.15019 7.24679 0
v  2.23478 6.93672 0
v  2.24686 7.20169 0
v  2.27708 7.11712 0
v  6.57919 2.07132 0
v  8.39188 -1.95405 0
v  8.59732 -2.26977 0
v  8.74233 -2.6475 0
v  8.7665 -2.92939 0
v  8.77859 -2.81663 0
v  9.15925 -3.76942 0
v  9.9085 -4.50233 0
v  9.24989 -3.70176 0
v  9.74535 -3.83143 0
v  9.86016 -4.11332 0
v  9.62451 -3.69049 0
v  9.53387 -3.64538 0
v  9.40094 -3.6172 0
v  9.82995 -5.59605 0
v  6.9659 -8.0654 0
v  6.39792 -7.91882 0
v  5.8662 -7.66512 0
v  6.64566 -8.00902 0
v  8.50668 -7.71586 1
v  8.40396 -7.85116 1
v  8.47043 -7.78915 1
v  8.52481 -7.61438 1
v  8.30124 -7.89063 1
v  8.04143 -7.95264 1
v  8.4946 -7.21973 1
v  6.86922 -6.71797 1
v  7.38282 -8.04285 1
v  8.4946 -6.92093 1
v  8.54898 -6.52629 1
v  8.66378 -6.17674 1
v  6.43418 -6.30078 1
v  8.7665 -5.98506 1
v  8.83901 -5.91177 1
v  8.98402 -5.68062 1
v  8.93569 -5.78774 1
v  8.98402 -5.70881 1
v  8.98402 -3.69049 1
v  9.02028 -5.64679 1
v  9.0807 -3.76942 1
v  8.68795 -3.35222 1
v  9.90245 -4.86878 1
v  9.24384 -5.60169 1
v  9.9085 -4.50233 1
v  9.15925 -3.76942 1
v  9.82995 -5.59605 1
v  9.86016 -4.11332 1
v  9.74535 -3.83143 1
v  9.24989 -3.70176 1
v  9.62451 -3.69049 1
v  9.53387 -3.64538 1
v  9.40094 -3.6172 1
v  8.62149 -3.23383 1
v  7.43115 -1.05201 1
v  6.89943 -0.685553 1
v  6.41605 -0.381113 1
v  2.57315 -6.45863 1
v  8.63357 -3.14362 1
v  7.99309 -1.51431 1
v  8.59732 -2.26977 1
v  8.39188 -1.95405 1
v  8.74233 -2.6475 1
v  8.77859 -2.81663 1
v  8.7665 -2.92939 1
v  6.18644 -0.200705 1
v  6.01726 -0.0315715 1
v  5.89641 0.148837 1
v  5.70306 0.487104 1
v  4.87526 2.35884 1
v  6.22874 1.46244 1
v  -6.68365 -1.41283 1
v  -6.72595 -0.663002 1
v  5.46137 2.55053 1
v  3.21363 4.68724 1
v  4.66378 3.48076 1
v  -4.72595 -6.68414 1
v  -6.58697 -4.95899 1
v  -6.55072 -5.83284 1
v  -6.24256 -6.69542 1
v  -6.51447 -6.43044 1
v  -6.48425 -6.67287 1
v  2.63961 5.13827 1
v  -6.77428 2.20662 1
v  2.47647 5.27921 1
v  -1.46311 7.80493 1
v  -3.26371 7.726 1
v  -7.60812 4.6365 1
v  -7.49936 2.84933 1
v  2.34354 5.44834 1
v  2.18644 6.07414 1
v  0.246864 7.92896 1
v  2.26499 5.66258 1
v  2.15623 6.30529 1
v  2.14415 6.5308 1
v  0.887347 7.9346 1
v  1.33448 7.78802 1
v  2.16227 6.71121 1
v  1.11695 7.89514 1
v  2.15019 7.24679 1
v  2.23478 6.93672 1
v  2.27708 7.11712 1
v  2.24686 7.20169 1
v  -8.03108 3.34545 1
v  -7.71688 4.45046 1
v  -8.1761 3.96561 1
v  -8.28486 3.61607 1
v  -8.27882 3.82467 1
v  -8.30903 3.65553 1
v  -8.31507 3.72319 1
v  -7.67459 4.72107 1
v  -8.877 5.16646 1
v  -7.84377 4.72107 1
v  -8.83471 7.5907 1
v  -9.30601 5.96138 1
v  -9.27579 5.49345 1
v  -9.20933 5.38633 1
v  -8.41779 4.82819 1
v  -8.23048 4.72671 1
v  -8.07338 4.69288 1
v  -9.23954 5.38633 1
v  -9.35434 6.11924 1
v  -9.47519 6.28273 1
v  -9.89211 6.69993 1
v  -10.013 6.86342 1
v  -10.0734 7.01001 1
v  -10.0915 7.13404 1
v  -9.97066 7.53996 1
v  -10.0915 7.22988 1
v  -10.0009 7.52304 1
v  -10.0613 7.39901 1
v  6.0233 2.38703 1
v  5.81182 2.49415 1
v  6.57919 2.04877 1
v  6.57919 2.07132 1
v  5.62451 2.55617 1
v  6.9659 -8.0654 1
v  5.8662 -7.66512 1
v  6.39792 -7.91882 1
v  6.64566 -8.00902 1

# 0 UV coordinates

# 115 vertex normals
vn 0 0 -1
vn 0 0 1
vn 0.135695 -0.990751 0
vn 0.232166 -0.972676 0
vn 0.358639 -0.933476 0
vn 0.682208 -0.731158 0
vn 0.896335 -0.443377 0
vn 0.984418 -0.175842 0
vn 0.997083 0.0763304 0
vn 1 0 0
vn 0.990639 -0.136507 0
vn 0.950069 -0.312041 0
vn 0.881421 -0.472332 0
vn 0.710896 -0.703297 0
vn 0.78871 -0.614765 0
vn 0.852781 -0.522269 0
vn 0.197757 -0.980251 0
vn 0.00961864 -0.999954 0
vn 0.995067 -0.0992061 0
vn 0.999864 -0.0164863 0
vn 0.992368 0.123313 0
vn 0.926138 0.377184 0
vn 0.759159 0.650905 0
vn 0.445514 0.895275 0
vn 0.207444 0.978247 0
vn -0.488491 0.872569 0
vn -0.598173 0.801367 0
vn 0 1 0
vn 0.63242 0.774626 0
vn 0.752478 0.658617 0
vn 0.871987 0.489528 0
vn 0.991145 -0.132783 0
vn 0.849717 -0.527239 0
vn 0.994306 -0.106565 0
vn 0.977789 0.20959 0
vn 0.933566 0.358406 0
vn 0.838173 0.545405 0
vn 0.740759 0.67177 0
vn 0.635321 0.772248 0
vn 0.567471 0.823393 0
vn 0.532922 0.846164 0
vn 0.617828 0.786313 0
vn 0.707 0.707214 0
vn 0.830829 0.556527 0
vn 0.868179 0.496252 0
vn 0.880283 -0.474449 0
vn 0.85836 -0.513048 0
vn 0.493853 0.869545 0
vn 0.451856 0.892091 0
vn 0.314304 0.949322 0
vn -0.0345368 0.999403 0
vn -0.310847 0.95046 0
vn 0.982694 0.185237 0
vn 0.639566 0.768736 0
vn 0.65375 0.756711 0
vn 0.786228 0.617937 0
vn 0.938881 0.344243 0
vn 0.982269 0.187476 0
vn 0.991566 0.129599 0
vn 0.998567 0.0535108 0
vn 0.99499 -0.0999734 0
vn 0.952002 -0.306093 0
vn 0.973601 -0.228257 0
vn 0.94171 0.336427 0
vn 0.422781 0.906232 0
vn 0.552874 0.833265 0
vn 0.441782 0.897122 0
vn 0.169394 0.985548 0
vn -0.00880203 0.999961 0
vn -0.072344 0.99738 0
vn -0.0437926 0.999041 0
vn -0.0242805 0.999705 0
vn -0.0446229 0.999004 0
vn -0.898997 0.437955 0
vn -0.984418 0.175842 0
vn -1 0 0
vn -0.989488 -0.144612 0
vn -0.924532 -0.381104 0
vn -0.804173 -0.594396 0
vn -0.707341 -0.706872 0
vn -0.956175 -0.292795 0
vn -0.997922 -0.0644292 0
vn -0.94722 -0.320585 0
vn 0 -1 0
vn -0.551782 -0.833988 0
vn -0.593083 -0.805141 0
vn -0.476355 -0.879253 0
vn -0.210495 -0.977595 0
vn 0.121855 -0.992548 0
vn -0.786228 -0.617937 0
vn -0.863306 0.504682 0
vn -0.726039 0.687653 0
vn -0.808152 0.588974 0
vn -0.94171 0.336427 0
vn -0.996035 -0.0889586 0
vn -0.852781 -0.522269 0
vn -0.729434 -0.684051 0
vn -0.682208 -0.731158 0
vn -0.663322 -0.748334 0
vn -0.999858 -0.0168424 0
vn -0.998413 -0.0563185 0
vn -0.999629 -0.0272523 0
vn -0.999141 -0.0414515 0
vn -0.998165 -0.0605539 0
vn -0.992324 -0.123666 0
vn -0.0929016 -0.995675 0
vn 0.00743447 -0.999972 0
vn 0.030881 -0.999523 0
vn 0.0408508 -0.999165 0
vn -0.692145 -0.721759 0
vn -0.686565 0.727068 0
vn -0.430624 -0.902532 0
vn -0.342142 -0.939648 0
vn -0.173381 -0.984855 0
vn 0.054011 -0.99854 0

# Mesh 'OpenSCAD_Model' with 476 faces
g OpenSCAD_Model
usemtl DefaultMaterial
f  1//1 2//1 3//1
f  2//1 4//1 3//1
f  3//1 4//1 5//1
f  5//1 4//1 6//1
f  7//1 5//1 6//1
f  8//1 7//1 6//1
f  9//1 8//1 6//1
f  8//1 10//1 7//1
f  8//1 11//1 10//1
f  8//1 12//1 11//1
f  8//1 13//1 12//1
f  12//1 13//1 14//1
f  14//1 15//1 16//1
f  13//1 15//1 14//1
f  15//1 17//1 18//1
f  16//1 15//1 18//1
f  19//1 15//1 20//1
f  20//1 15//1 13//1
f  19//1 20//1 21//1
f  22//1 19//1 23//1
f  23//1 19//1 21//1
f  20//1 13//1 24//1
f  13//1 25//1 24//1
f  13//1 26//1 25//1
f  25//1 27//1 28//1
f  25//1 26//1 27//1
f  13//1 29//1 26//1
f  30//1 31//1 13//1
f  13//1 31//1 29//1
f  31//1 30//1 32//1
f  32//1 30//1 33//1
f  30//1 34//1 33//1
f  35//1 30//1 36//1
f  35//1 37//1 30//1
f  30//1 37//1 34//1
f  38//1 35//1 39//1
f  38//1 37//1 35//1
f  40//1 35//1 36//1
f  36//1 41//1 40//1
f  36//1 42//1 41//1
f  41//1 42//1 43//1
f  43//1 42//1 44//1
f  45//1 37//1 38//1
f  45//1 46//1 47//1
f  48//1 45//1 47//1
f  45//1 49//1 46//1
f  45//1 38//1 49//1
f  49//1 50//1 46//1
f  51//1 38//1 52//1
f  52//1 38//1 39//1
f  52//1 39//1 53//1
f  53//1 39//1 54//1
f  53//1 54//1 55//1
f  56//1 57//1 54//1
f  56//1 54//1 58//1
f  54//1 59//1 58//1
f  57//1 60//1 54//1
f  54//1 60//1 55//1
f  56//1 61//1 62//1
f  56//1 58//1 61//1
f  58//1 59//1 63//1
f  63//1 59//1 64//1
f  65//1 63//1 64//1
f  66//1 65//1 64//1
f  67//1 65//1 66//1
f  68//1 66//1 69//1
f  68//1 67//1 66//1
f  70//1 71//1 61//1
f  61//1 71//1 72//1
f  61//1 72//1 62//1
f  70//1 73//1 74//1
f  70//1 74//1 75//1
f  70//1 75//1 71//1
f  72//1 71//1 76//1
f  76//1 71//1 77//1
f  78//1 62//1 72//1
f  62//1 78//1 79//1
f  80//1 81//1 62//1
f  80//1 62//1 82//1
f  82//1 62//1 83//1
f  83//1 62//1 79//1
f  80//1 82//1 84//1
f  80//1 85//1 81//1
f  86//1 87//1 81//1
f  85//1 86//1 81//1
f  76//1 77//1 88//1
f  60//1 57//1 89//1
f  90//1 91//1 57//1
f  57//1 91//1 89//1
f  92//1 90//1 93//1
f  92//1 91//1 90//1
f  94//1 93//1 90//1
f  94//1 95//1 93//1
f  96//1 93//1 95//1
f  94//1 97//1 95//1
f  96//1 95//1 98//1
f  99//1 96//1 98//1
f  98//1 100//1 101//1
f  99//1 98//1 101//1
f  48//1 47//1 102//1
f  27//1 103//1 28//1
f  103//1 104//1 28//1
f  28//1 104//1 105//1
f  106//1 28//1 107//1
f  107//1 28//1 105//1
f  21//1 108//1 109//1
f  23//1 21//1 109//1
f  110//1 111//1 108//1
f  108//1 111//1 112//1
f  109//1 108//1 112//1
f  113//1 111//1 110//1
f  110//1 114//1 113//1
f  110//1 115//1 114//1
f  22//1 23//1 116//1
f  9//1 117//1 8//1
f  8//1 118//1 119//1
f  8//1 120//1 118//1
f  8//1 117//1 120//1
f  121//2 122//2 123//2
f  124//2 125//2 121//2
f  121//2 125//2 122//2
f  126//2 125//2 124//2
f  126//2 124//2 127//2
f  126//2 127//2 128//2
f  126//2 128//2 129//2
f  127//2 130//2 128//2
f  130//2 131//2 128//2
f  131//2 132//2 128//2
f  132//2 133//2 128//2
f  134//2 133//2 132//2
f  135//2 136//2 134//2
f  134//2 136//2 133//2
f  137//2 136//2 135//2
f  137//2 138//2 136//2
f  139//2 136//2 140//2
f  133//2 136//2 139//2
f  141//2 139//2 140//2
f  142//2 133//2 139//2
f  143//2 140//2 144//2
f  141//2 140//2 143//2
f  145//2 146//2 141//2
f  145//2 141//2 143//2
f  147//2 143//2 144//2
f  148//2 146//2 145//2
f  146//2 149//2 150//2
f  148//2 149//2 146//2
f  150//2 149//2 151//2
f  151//2 152//2 150//2
f  152//2 153//2 150//2
f  142//2 154//2 133//2
f  154//2 155//2 133//2
f  155//2 156//2 133//2
f  133//2 157//2 158//2
f  156//2 157//2 133//2
f  159//2 160//2 154//2
f  160//2 155//2 154//2
f  159//2 161//2 162//2
f  163//2 161//2 159//2
f  164//2 159//2 165//2
f  163//2 159//2 164//2
f  159//2 162//2 160//2
f  166//2 158//2 157//2
f  167//2 158//2 166//2
f  167//2 168//2 158//2
f  168//2 169//2 158//2
f  170//2 169//2 171//2
f  172//2 169//2 170//2
f  158//2 169//2 172//2
f  173//2 172//2 170//2
f  174//2 170//2 171//2
f  175//2 170//2 176//2
f  173//2 170//2 175//2
f  177//2 158//2 172//2
f  177//2 172//2 178//2
f  178//2 179//2 177//2
f  179//2 180//2 177//2
f  181//2 180//2 179//2
f  182//2 180//2 181//2
f  183//2 173//2 175//2
f  184//2 173//2 183//2
f  185//2 184//2 183//2
f  184//2 186//2 187//2
f  188//2 184//2 187//2
f  188//2 189//2 184//2
f  184//2 190//2 186//2
f  185//2 190//2 184//2
f  186//2 191//2 192//2
f  193//2 191//2 186//2
f  193//2 186//2 190//2
f  192//2 191//2 194//2
f  195//2 192//2 194//2
f  192//2 195//2 196//2
f  195//2 197//2 196//2
f  197//2 195//2 198//2
f  197//2 199//2 196//2
f  200//2 197//2 198//2
f  200//2 198//2 201//2
f  202//2 203//2 200//2
f  202//2 200//2 201//2
f  204//2 189//2 205//2
f  205//2 189//2 188//2
f  204//2 205//2 206//2
f  204//2 206//2 207//2
f  207//2 206//2 208//2
f  209//2 207//2 210//2
f  207//2 208//2 210//2
f  211//2 188//2 187//2
f  211//2 212//2 213//2
f  214//2 211//2 187//2
f  215//2 212//2 211//2
f  214//2 215//2 211//2
f  216//2 212//2 215//2
f  217//2 212//2 216//2
f  212//2 218//2 213//2
f  219//2 220//2 213//2
f  218//2 219//2 213//2
f  221//2 217//2 216//2
f  215//2 214//2 222//2
f  223//2 222//2 214//2
f  223//2 214//2 224//2
f  224//2 214//2 225//2
f  226//2 225//2 227//2
f  225//2 214//2 227//2
f  214//2 228//2 227//2
f  228//2 229//2 227//2
f  228//2 230//2 231//2
f  228//2 231//2 229//2
f  232//2 233//2 171//2
f  232//2 171//2 234//2
f  233//2 174//2 171//2
f  235//2 232//2 234//2
f  233//2 236//2 174//2
f  128//2 237//2 129//2
f  238//2 239//2 128//2
f  239//2 240//2 128//2
f  240//2 237//2 128//2
f  6//3 129//3 9//3
f  6//3 126//3 129//3
f  4//4 126//4 6//4
f  4//4 125//4 126//4
f  2//5 125//5 4//5
f  2//5 122//5 125//5
f  1//6 122//6 2//6
f  1//6 123//6 122//6
f  3//7 123//7 1//7
f  3//7 121//7 123//7
f  5//8 121//8 3//8
f  5//8 124//8 121//8
f  7//9 124//9 5//9
f  7//9 127//9 124//9
f  10//10 127//10 7//10
f  10//10 130//10 127//10
f  11//11 130//11 10//11
f  11//11 131//11 130//11
f  12//12 131//12 11//12
f  12//12 132//12 131//12
f  14//13 132//13 12//13
f  14//13 134//13 132//13
f  16//14 134//14 14//14
f  16//14 135//14 134//14
f  18//15 135//15 16//15
f  18//15 137//15 135//15
f  17//16 137//16 18//16
f  17//16 138//16 137//16
f  15//10 138//10 17//10
f  15//10 136//10 138//10
f  19//6 136//6 15//6
f  19//6 140//6 136//6
f  22//17 140//17 19//17
f  22//17 144//17 140//17
f  116//18 144//18 22//18
f  116//18 147//18 144//18
f  23//19 147//19 116//19
f  23//19 143//19 147//19
f  109//20 143//20 23//20
f  109//20 145//20 143//20
f  112//21 145//21 109//21
f  112//21 148//21 145//21
f  111//22 148//22 112//22
f  111//22 149//22 148//22
f  113//23 149//23 111//23
f  113//23 151//23 149//23
f  114//24 151//24 113//24
f  114//24 152//24 151//24
f  115//25 152//25 114//25
f  115//25 153//25 152//25
f  110//26 153//26 115//26
f  110//26 150//26 153//26
f  108//27 150//27 110//27
f  108//27 146//27 150//27
f  21//28 146//28 108//28
f  21//28 141//28 146//28
f  20//29 141//29 21//29
f  20//29 139//29 141//29
f  24//30 139//30 20//30
f  24//30 142//30 139//30
f  25//31 142//31 24//31
f  25//31 154//31 142//31
f  28//32 154//32 25//32
f  28//32 159//32 154//32
f  106//33 159//33 28//33
f  106//33 165//33 159//33
f  107//34 165//34 106//34
f  107//34 164//34 165//34
f  105//35 164//35 107//35
f  105//35 163//35 164//35
f  104//36 163//36 105//36
f  104//36 161//36 163//36
f  103//37 161//37 104//37
f  103//37 162//37 161//37
f  27//38 162//38 103//38
f  27//38 160//38 162//38
f  26//39 160//39 27//39
f  26//39 155//39 160//39
f  29//40 155//40 26//40
f  29//40 156//40 155//40
f  31//41 156//41 29//41
f  31//41 157//41 156//41
f  32//42 157//42 31//42
f  32//42 166//42 157//42
f  33//43 166//43 32//43
f  33//43 167//43 166//43
f  34//44 167//44 33//44
f  34//44 168//44 167//44
f  37//45 168//45 34//45
f  37//45 169//45 168//45
f  45//46 169//46 37//46
f  45//46 171//46 169//46
f  48//47 171//47 45//47
f  48//47 234//47 171//47
f  102//10 234//10 48//10
f  102//10 235//10 234//10
f  47//48 235//48 102//48
f  47//48 232//48 235//48
f  46//49 232//49 47//49
f  46//49 233//49 232//49
f  50//50 233//50 46//50
f  50//50 236//50 233//50
f  49//51 236//51 50//51
f  49//51 174//51 236//51
f  38//52 174//52 49//52
f  38//52 170//52 174//52
f  51//53 170//53 38//53
f  51//53 176//53 170//53
f  52//54 176//54 51//54
f  52//54 175//54 176//54
f  53//42 175//42 52//42
f  53//42 183//42 175//42
f  55//55 183//55 53//55
f  55//55 185//55 183//55
f  60//56 185//56 55//56
f  60//56 190//56 185//56
f  89//57 190//57 60//57
f  89//57 193//57 190//57
f  91//58 193//58 89//58
f  91//58 191//58 193//58
f  92//59 191//59 91//59
f  92//59 194//59 191//59
f  93//60 194//60 92//60
f  93//60 195//60 194//60
f  96//61 195//61 93//61
f  96//61 198//61 195//61
f  99//62 198//62 96//62
f  99//62 201//62 198//62
f  101//63 201//63 99//63
f  101//63 202//63 201//63
f  100//64 202//64 101//64
f  100//64 203//64 202//64
f  98//65 203//65 100//65
f  98//65 200//65 203//65
f  95//66 200//66 98//66
f  95//66 197//66 200//66
f  97//67 197//67 95//67
f  97//67 199//67 197//67
f  94//68 199//68 97//68
f  94//68 196//68 199//68
f  90//69 196//69 94//69
f  90//69 192//69 196//69
f  57//70 192//70 90//70
f  57//70 186//70 192//70
f  56//71 186//71 57//71
f  56//71 187//71 186//71
f  62//72 187//72 56//72
f  62//72 214//72 187//72
f  81//73 214//73 62//73
f  81//73 228//73 214//73
f  87//26 228//26 81//26
f  87//26 230//26 228//26
f  86//74 230//74 87//74
f  86//74 231//74 230//74
f  85//75 231//75 86//75
f  85//75 229//75 231//75
f  80//76 229//76 85//76
f  80//76 227//76 229//76
f  84//77 227//77 80//77
f  84//77 226//77 227//77
f  82//78 226//78 84//78
f  82//78 225//78 226//78
f  83//79 225//79 82//79
f  83//79 224//79 225//79
f  79//80 224//80 83//80
f  79//80 223//80 224//80
f  78//79 223//79 79//79
f  78//79 222//79 223//79
f  72//81 222//81 78//81
f  72//81 215//81 222//81
f  76//82 215//82 72//82
f  76//82 216//82 215//82
f  88//83 216//83 76//83
f  88//83 221//83 216//83
f  77//84 221//84 88//84
f  77//84 217//84 221//84
f  71//85 217//85 77//85
f  71//85 212//85 217//85
f  75//86 212//86 71//86
f  75//86 218//86 212//86
f  74//87 218//87 75//87
f  74//87 219//87 218//87
f  73//88 219//88 74//88
f  73//88 220//88 219//88
f  70//89 220//89 73//89
f  70//89 213//89 220//89
f  61//84 213//84 70//84
f  61//84 211//84 213//84
f  58//90 211//90 61//90
f  58//90 188//90 211//90
f  63//91 188//91 58//91
f  63//91 205//91 188//91
f  65//92 205//92 63//92
f  65//92 206//92 205//92
f  67//93 206//93 65//93
f  67//93 208//93 206//93
f  68//94 208//94 67//94
f  68//94 210//94 208//94
f  69//95 210//95 68//95
f  69//95 209//95 210//95
f  66//96 209//96 69//96
f  66//96 207//96 209//96
f  64//97 207//97 66//97
f  64//97 204//97 207//97
f  59//98 204//98 64//98
f  59//98 189//98 204//98
f  54//99 189//99 59//99
f  54//99 184//99 189//99
f  39//100 184//100 54//100
f  39//100 173//100 184//100
f  35//101 173//101 39//101
f  35//101 172//101 173//101
f  40//102 172//102 35//102
f  40//102 178//102 172//102
f  41//103 178//103 40//103
f  41//103 179//103 178//103
f  43//104 179//104 41//104
f  43//104 181//104 179//104
f  44//105 181//105 43//105
f  44//105 182//105 181//105
f  42//106 182//106 44//106
f  42//106 180//106 182//106
f  36//107 180//107 42//107
f  36//107 177//107 180//107
f  30//108 177//108 36//108
f  30//108 158//108 177//108
f  13//109 158//109 30//109
f  13//109 133//109 158//109
f  8//110 133//110 13//110
f  8//110 128//110 133//110
f  119//111 128//111 8//111
f  119//111 238//111 128//111
f  118//112 238//112 119//112
f  118//112 239//112 238//112
f  120//113 239//113 118//113
f  120//113 240//113 239//113
f  117//114 240//114 120//114
f  117//114 237//114 240//114
f  9//115 237//115 117//115
f  9//115 129//115 237//115

