# File produced by Open Asset Import Library (http://www.assimp.sf.net)
# (assimp v3.1.187496374)

mtllib Colorado.obj.mtl

# 68 vertex positions
v  9.34133 -6.83687 0
v  9.28211 -7.32172 0
v  8.35613 -7.31152 0
v  9.37363 -6.30099 0
v  7.82316 -7.2911 0
v  6.18655 -7.19413 0
v  9.46515 -3.12651 0
v  3.54321 -7.00019 0
v  9.55667 -1.13608 0
v  1.94967 -6.89301 0
v  3.02101 6.19789 0
v  9.68588 0.420542 0
v  -1.89959 -6.55107 0
v  5.8743 5.99885 0
v  -1.45275 6.57557 0
v  9.83662 3.04893 0
v  8.32383 5.86616 0
v  9.89045 4.38609 0
v  9.93352 5.80491 0
v  -9.08128 2.166 0
v  -1.5335 6.59088 0
v  -9.80806 -3.47866 0
v  -3.80537 6.81544 0
v  -8.76903 4.44223 0
v  -9.58195 -5.78041 0
v  -10.0288 -5.13225 0
v  -10.0449 -5.70386 0
v  -10.0665 -5.55075 0
v  -10.0665 -5.67834 0
v  -5.1405 6.97876 0
v  -6.29259 7.09614 0
v  -8.53216 6.32549 0
v  -7.4016 7.1778 0
v  -8.36527 7.22373 0
v  8.35613 -7.31152 1
v  9.28211 -7.32172 1
v  9.34133 -6.83687 1
v  9.37363 -6.30099 1
v  7.82316 -7.2911 1
v  9.46515 -3.12651 1
v  6.18655 -7.19413 1
v  9.55667 -1.13608 1
v  3.54321 -7.00019 1
v  9.68588 0.420542 1
v  3.02101 6.19789 1
v  1.94967 -6.89301 1
v  9.83662 3.04893 1
v  5.8743 5.99885 1
v  -1.89959 -6.55107 1
v  -1.45275 6.57557 1
v  -9.08128 2.166 1
v  -9.80806 -3.47866 1
v  -9.58195 -5.78041 1
v  -1.5335 6.59088 1
v  -3.80537 6.81544 1
v  -8.76903 4.44223 1
v  -5.1405 6.97876 1
v  -6.29259 7.09614 1
v  -8.53216 6.32549 1
v  -7.4016 7.1778 1
v  -8.36527 7.22373 1
v  -10.0288 -5.13225 1
v  -10.0665 -5.55075 1
v  -10.0665 -5.67834 1
v  -10.0449 -5.70386 1
v  8.32383 5.86616 1
v  9.89045 4.38609 1
v  9.93352 5.80491 1

# 0 UV coordinates

# 36 vertex normals
vn 0 0 -1
vn 0 0 1
vn 0.992623 -0.121239 0
vn 0.998188 -0.0601677 0
vn 0.999585 -0.0288182 0
vn 0.998945 -0.0459319 0
vn 0.996573 -0.0827197 0
vn 0.998359 -0.0572567 0
vn 0.99919 -0.0402287 0
vn 0.99954 -0.0303413 0
vn 0.0380196 0.999277 0
vn 0.0540925 0.998536 0
vn 0.0695898 0.997576 0
vn 0.0841201 0.996456 0
vn 0.186283 0.982496 0
vn 0.0983649 0.99515 0
vn 0.121418 0.992601 0
vn 0.101364 0.994849 0
vn 0.0734328 0.9973 0
vn 0.0476111 0.998866 0
vn -0.983174 0.18267 0
vn -0.992182 0.124798 0
vn -0.990722 0.135904 0
vn -0.991813 0.127702 0
vn -0.991208 0.13231 0
vn -0.99597 0.0896849 0
vn -1 0 0
vn -0.764244 -0.644927 0
vn -0.163135 -0.986604 0
vn -0.0998137 -0.995006 0
vn -0.0884857 -0.996077 0
vn -0.0671056 -0.997746 0
vn -0.0731724 -0.997319 0
vn -0.0591467 -0.998249 0
vn -0.0382752 -0.999267 0
vn -0.0110227 -0.999939 0

# Mesh 'OpenSCAD_Model' with 132 faces
g OpenSCAD_Model
usemtl DefaultMaterial
f  1//1 2//1 3//1
f  1//1 3//1 4//1
f  4//1 3//1 5//1
f  4//1 6//1 7//1
f  4//1 5//1 6//1
f  7//1 6//1 8//1
f  7//1 8//1 9//1
f  8//1 10//1 9//1
f  11//1 12//1 9//1
f  10//1 11//1 9//1
f  13//1 11//1 10//1
f  11//1 14//1 12//1
f  13//1 15//1 11//1
f  14//1 16//1 12//1
f  14//1 17//1 16//1
f  16//1 17//1 18//1
f  18//1 17//1 19//1
f  15//1 20//1 21//1
f  13//1 20//1 15//1
f  22//1 20//1 13//1
f  20//1 23//1 21//1
f  20//1 24//1 23//1
f  22//1 25//1 26//1
f  22//1 13//1 25//1
f  25//1 27//1 28//1
f  26//1 25//1 28//1
f  27//1 29//1 28//1
f  23//1 24//1 30//1
f  24//1 31//1 30//1
f  24//1 32//1 31//1
f  31//1 32//1 33//1
f  33//1 32//1 34//1
f  35//2 36//2 37//2
f  38//2 35//2 37//2
f  39//2 35//2 38//2
f  40//2 41//2 38//2
f  41//2 39//2 38//2
f  42//2 43//2 40//2
f  43//2 41//2 40//2
f  42//2 44//2 45//2
f  42//2 45//2 46//2
f  42//2 46//2 43//2
f  44//2 47//2 48//2
f  44//2 48//2 45//2
f  46//2 45//2 49//2
f  45//2 50//2 49//2
f  49//2 51//2 52//2
f  50//2 51//2 49//2
f  53//2 49//2 52//2
f  54//2 51//2 50//2
f  54//2 55//2 51//2
f  55//2 56//2 51//2
f  57//2 56//2 55//2
f  57//2 58//2 56//2
f  58//2 59//2 56//2
f  60//2 59//2 58//2
f  61//2 59//2 60//2
f  62//2 53//2 52//2
f  63//2 53//2 62//2
f  63//2 64//2 65//2
f  63//2 65//2 53//2
f  47//2 66//2 48//2
f  67//2 66//2 47//2
f  68//2 66//2 67//2
f  1//3 36//3 2//3
f  1//3 37//3 36//3
f  4//4 37//4 1//4
f  4//4 38//4 37//4
f  7//5 38//5 4//5
f  7//5 40//5 38//5
f  9//6 40//6 7//6
f  9//6 42//6 40//6
f  12//7 42//7 9//7
f  12//7 44//7 42//7
f  16//8 44//8 12//8
f  16//8 47//8 44//8
f  18//9 47//9 16//9
f  18//9 67//9 47//9
f  19//10 67//10 18//10
f  19//10 68//10 67//10
f  17//11 68//11 19//11
f  17//11 66//11 68//11
f  14//12 66//12 17//12
f  14//12 48//12 66//12
f  11//13 48//13 14//13
f  11//13 45//13 48//13
f  15//14 45//14 11//14
f  15//14 50//14 45//14
f  21//15 50//15 15//15
f  21//15 54//15 50//15
f  23//16 54//16 21//16
f  23//16 55//16 54//16
f  30//17 55//17 23//17
f  30//17 57//17 55//17
f  31//18 57//18 30//18
f  31//18 58//18 57//18
f  33//19 58//19 31//19
f  33//19 60//19 58//19
f  34//20 60//20 33//20
f  34//20 61//20 60//20
f  32//21 61//21 34//21
f  32//21 59//21 61//21
f  24//22 59//22 32//22
f  24//22 56//22 59//22
f  20//23 56//23 24//23
f  20//23 51//23 56//23
f  22//24 51//24 20//24
f  22//24 52//24 51//24
f  26//25 52//25 22//25
f  26//25 62//25 52//25
f  28//26 62//26 26//26
f  28//26 63//26 62//26
f  29//27 63//27 28//27
f  29//27 64//27 63//27
f  27//28 64//28 29//28
f  27//28 65//28 64//28
f  25//29 65//29 27//29
f  25//29 53//29 65//29
f  13//30 53//30 25//30
f  13//30 49//30 53//30
f  10//31 49//31 13//31
f  10//31 46//31 49//31
f  8//32 46//32 10//32
f  8//32 43//32 46//32
f  6//33 43//33 8//33
f  6//33 41//33 43//33
f  5//34 41//34 6//34
f  5//34 39//34 41//34
f  3//35 39//35 5//35
f  3//35 35//35 39//35
f  2//36 35//36 3//36
f  2//36 36//36 35//36

