# File produced by Open Asset Import Library (http://www.assimp.sf.net)
# (assimp v3.1.187496374)

mtllib Montana.obj.mtl

# 248 vertex positions
v  -2.96839 -6.16077 0
v  -3.00857 -6.19106 0
v  -3.08893 -6.20405 0
v  -2.94607 -5.9617 0
v  -3.13357 -6.20405 0
v  -3.58 -5.57222 0
v  -2.81214 -5.16542 0
v  -3.2675 -6.13048 0
v  -3.34786 -6.01796 0
v  -3.19607 -6.18674 0
v  -3.66036 -5.46403 0
v  -2.78089 -5.09618 0
v  -3.67821 -5.46403 0
v  -2.74518 -5.06589 0
v  -4.66929 -5.67608 0
v  -4.88357 -5.65444 0
v  -7.03982 -4.0792 0
v  -3.83893 -5.62848 0
v  -4.37911 -5.74532 0
v  -7.59786 -2.6684 0
v  -2.68714 -5.04425 0
v  -7.56661 -2.81121 0
v  -7.98625 -0.171373 0
v  -8.13804 -0.474305 0
v  -7.61125 -2.65974 0
v  -2.17375 4.90057 0
v  -2.48179 -5.04425 0
v  -7.98625 -0.149735 0
v  1.90661 4.32933 0
v  -1.22286 -5.21735 0
v  -2.12018 -5.0832 0
v  -5.10232 5.3593 0
v  -8.03089 -0.123769 0
v  -9.07554 1.08796 0
v  -9.28982 1.46013 0
v  -9.88804 2.88391 0
v  -8.48179 5.99113 0
v  -8.99071 0.893216 0
v  -8.11125 -0.110787 0
v  -8.56661 0.213783 0
v  -8.81214 0.568647 0
v  -8.33446 -0.0242346 0
v  -8.18714 -0.110787 0
v  -9.5175 1.76739 0
v  -9.84786 2.27805 0
v  -9.85679 2.58531 0
v  -9.77643 2.05301 0
v  -9.83446 2.1915 0
v  -9.81214 2.12225 0
v  -9.95054 3.11327 0
v  -9.93714 5.02607 0
v  -8.85679 6.05171 0
v  -10.08 3.83598 0
v  -10.0711 4.24278 0
v  -10.0309 4.58033 0
v  -9.82107 5.52375 0
v  -9.31214 6.10365 0
v  -9.67375 6.10365 0
v  -10.0532 3.43352 0
v  -10.0755 3.63691 0
v  -9.98625 3.17386 0
v  -10.022 3.2734 0
v  1.53161 -5.57222 0
v  5.92 3.87493 0
v  4.83518 -5.92708 0
v  9.92 2.42951 0
v  9.92 3.50276 0
v  9.89321 1.54236 0
v  9.83964 0.603267 0
v  6.4825 -6.07855 0
v  9.31732 -6.17375 0
v  8.71464 -6.19106 0
v  8.34411 -6.19106 0
v  7.83071 -6.16943 0
v  -8.42821 -1.46533 0
v  -8.38357 -0.924375 0
v  -8.38804 -1.65574 0
v  -8.455 -1.21865 0
v  -8.42375 -1.02391 0
v  -8.45054 -1.12344 0
v  -8.41036 -1.75527 0
v  -7.66036 -2.65974 0
v  -7.74071 -2.69004 0
v  -7.83893 -2.74197 0
v  -8.51304 -1.84183 0
v  -8.06661 -2.88911 0
v  -8.81214 -2.26593 0
v  -8.76304 -2.10581 0
v  -8.57554 -1.87212 0
v  -8.6425 -1.91972 0
v  -8.71393 -1.99762 0
v  -8.53982 -2.86747 0
v  -8.88804 -2.57752 0
v  -8.44607 -2.93671 0
v  -8.25857 -2.98864 0
v  -8.32554 -3.00162 0
v  -8.29875 -3.00162 0
v  -7.55768 -2.95835 0
v  -7.58446 -3.59018 0
v  -6.74518 -4.8798 0
v  -6.80321 -4.85384 0
v  -7.11125 -4.44704 0
v  -5.03536 -5.67608 0
v  -6.71839 -4.93606 0
v  -5.78536 -5.78427 0
v  -5.11571 -5.72801 0
v  -5.39696 -5.81889 0
v  -5.90589 -5.79292 0
v  -6.71393 -5.10916 0
v  -5.98179 -5.8362 0
v  -6.62464 -5.59818 0
v  -6.69161 -5.32987 0
v  -6.5175 -5.82755 0
v  -6.03982 -5.90977 0
v  -6.42375 -5.95737 0
v  -6.24518 -6.10018 0
v  -6.18268 -6.1348 0
v  -5.27196 -5.81889 0
v  -5.19161 -5.79725 0
v  -7.13357 -4.62447 0
v  -6.94161 -4.84951 0
v  -7.12018 -4.76296 0
v  -7.04875 -4.8322 0
v  -4.02196 -5.84918 0
v  -3.08893 -6.20405 1
v  -3.00857 -6.19106 1
v  -2.96839 -6.16077 1
v  -2.94607 -5.9617 1
v  -3.13357 -6.20405 1
v  -2.81214 -5.16542 1
v  -3.58 -5.57222 1
v  -3.34786 -6.01796 1
v  -3.2675 -6.13048 1
v  -3.19607 -6.18674 1
v  -3.66036 -5.46403 1
v  -2.78089 -5.09618 1
v  -3.67821 -5.46403 1
v  -2.74518 -5.06589 1
v  -4.88357 -5.65444 1
v  -4.66929 -5.67608 1
v  -7.03982 -4.0792 1
v  -4.37911 -5.74532 1
v  -3.83893 -5.62848 1
v  -2.68714 -5.04425 1
v  -7.59786 -2.6684 1
v  -7.56661 -2.81121 1
v  -2.48179 -5.04425 1
v  -2.17375 4.90057 1
v  -7.98625 -0.149735 1
v  -7.98625 -0.171373 1
v  -7.61125 -2.65974 1
v  -8.13804 -0.474305 1
v  -8.38804 -1.65574 1
v  -8.41036 -1.75527 1
v  -7.66036 -2.65974 1
v  -8.38357 -0.924375 1
v  -8.42821 -1.46533 1
v  -8.42375 -1.02391 1
v  -8.455 -1.21865 1
v  -8.45054 -1.12344 1
v  -7.74071 -2.69004 1
v  -7.83893 -2.74197 1
v  -8.51304 -1.84183 1
v  -8.81214 -2.26593 1
v  -8.06661 -2.88911 1
v  -8.76304 -2.10581 1
v  -8.57554 -1.87212 1
v  -8.71393 -1.99762 1
v  -8.6425 -1.91972 1
v  -8.88804 -2.57752 1
v  -8.53982 -2.86747 1
v  -8.44607 -2.93671 1
v  -8.25857 -2.98864 1
v  -8.32554 -3.00162 1
v  -8.29875 -3.00162 1
v  -9.07554 1.08796 1
v  -8.03089 -0.123769 1
v  -5.10232 5.3593 1
v  -9.28982 1.46013 1
v  -8.99071 0.893216 1
v  -8.56661 0.213783 1
v  -8.11125 -0.110787 1
v  -8.81214 0.568647 1
v  -8.33446 -0.0242346 1
v  -8.18714 -0.110787 1
v  -9.88804 2.88391 1
v  -8.48179 5.99113 1
v  -9.5175 1.76739 1
v  -9.95054 3.11327 1
v  -9.85679 2.58531 1
v  -9.84786 2.27805 1
v  -9.77643 2.05301 1
v  -9.83446 2.1915 1
v  -9.81214 2.12225 1
v  -10.0755 3.63691 1
v  -10.0532 3.43352 1
v  -10.022 3.2734 1
v  -9.98625 3.17386 1
v  -10.08 3.83598 1
v  -10.0711 4.24278 1
v  -8.85679 6.05171 1
v  -9.93714 5.02607 1
v  -10.0309 4.58033 1
v  -9.31214 6.10365 1
v  -9.82107 5.52375 1
v  -9.67375 6.10365 1
v  -1.22286 -5.21735 1
v  1.90661 4.32933 1
v  -2.12018 -5.0832 1
v  1.53161 -5.57222 1
v  5.92 3.87493 1
v  4.83518 -5.92708 1
v  9.92 3.50276 1
v  9.92 2.42951 1
v  9.83964 0.603267 1
v  9.89321 1.54236 1
v  6.4825 -6.07855 1
v  8.71464 -6.19106 1
v  9.31732 -6.17375 1
v  8.34411 -6.19106 1
v  7.83071 -6.16943 1
v  -7.55768 -2.95835 1
v  -7.58446 -3.59018 1
v  -6.74518 -4.8798 1
v  -6.80321 -4.85384 1
v  -7.11125 -4.44704 1
v  -5.03536 -5.67608 1
v  -6.71839 -4.93606 1
v  -5.78536 -5.78427 1
v  -5.39696 -5.81889 1
v  -5.11571 -5.72801 1
v  -5.90589 -5.79292 1
v  -6.71393 -5.10916 1
v  -6.62464 -5.59818 1
v  -5.98179 -5.8362 1
v  -6.69161 -5.32987 1
v  -6.5175 -5.82755 1
v  -6.03982 -5.90977 1
v  -6.42375 -5.95737 1
v  -6.24518 -6.10018 1
v  -6.18268 -6.1348 1
v  -5.27196 -5.81889 1
v  -5.19161 -5.79725 1
v  -7.13357 -4.62447 1
v  -6.94161 -4.84951 1
v  -7.12018 -4.76296 1
v  -7.04875 -4.8322 1
v  -4.02196 -5.84918 1

# 0 UV coordinates

# 117 vertex normals
vn 0 0 -1
vn 0 0 1
vn 0.602024 -0.798478 0
vn 0.993772 -0.11143 0
vn 0.986149 -0.165863 0
vn 0.911471 -0.411364 0
vn 0.646855 -0.762613 0
vn 0.349348 -0.936993 0
vn 0 -1 0
vn -0.10709 -0.994249 0
vn -0.147863 -0.989008 0
vn -0.127776 -0.991803 0
vn -0.106804 -0.99428 0
vn -0.0915606 -0.9958 0
vn -0.0672548 -0.997736 0
vn -0.0421097 -0.999113 0
vn 0.0287106 -0.999588 0
vn 0.997043 -0.0768445 0
vn 0.998377 -0.0569536 0
vn 0.999545 -0.030179 0
vn 1 0 0
vn 0.0926432 0.995699 0
vn 0.112502 0.993652 0
vn 0.138646 0.990342 0
vn 0.154751 0.987953 0
vn 0.183777 0.982968 0
vn 0.159495 0.987199 0
vn 0.11331 0.99356 0
vn 0 1 0
vn -0.969213 0.246226 0
vn -0.973864 0.227132 0
vn -0.97859 0.20582 0
vn -0.99299 0.118195 0
vn -0.999759 0.0219433 0
vn -0.999749 -0.0224201 0
vn -0.994032 -0.109088 0
vn -0.981483 -0.191551 0
vn -0.941243 -0.337729 0
vn -0.861466 -0.507815 0
vn -0.964821 -0.262908 0
vn -0.994568 -0.104085 0
vn -0.999578 -0.0290465 0
vn -0.988239 -0.152918 0
vn -0.951767 -0.306821 0
vn -0.888743 -0.458407 0
vn -0.740878 -0.671639 0
vn -0.803458 -0.595361 0
vn -0.866618 -0.498971 0
vn -0.91681 -0.399324 0
vn -0.87615 -0.482039 0
vn -0.822343 -0.568993 0
vn -0.715887 -0.698216 0
vn -0.506552 -0.862209 0
vn -0.159495 -0.987199 0
vn -0.502772 -0.864419 0
vn -1 0 0
vn -0.894049 0.447968 0
vn -0.87786 0.478916 0
vn -0.927301 0.374318 0
vn -0.965645 0.259864 0
vn -0.998902 0.0468388 0
vn -0.994156 -0.107953 0
vn -0.978455 -0.20646 0
vn -0.975765 0.218823 0
vn -0.64451 0.764596 0
vn -0.436159 0.89987 0
vn -0.579399 0.815044 0
vn -0.737045 0.675844 0
vn -0.910589 0.413314 0
vn -0.956049 0.293208 0
vn -0.971595 0.23665 0
vn -0.639886 -0.76847 0
vn -0.594103 -0.804389 0
vn -0.474157 -0.88044 0
vn 0.307474 -0.951556 0
vn 0.460309 -0.887759 0
vn 0.542775 -0.839878 0
vn 0.467433 -0.884028 0
vn 0.352749 -0.935718 0
vn -0.542775 -0.839878 0
vn -0.976886 -0.213763 0
vn -0.998164 -0.06057 0
vn -0.999103 0.0423559 0
vn -0.668089 -0.744082 0
vn -0.981664 0.19062 0
vn -0.99218 0.124819 0
vn -0.995356 -0.096262 0
vn -0.696029 -0.718013 0
vn -0.0312551 -0.999511 0
vn -0.408396 -0.912805 0
vn -0.902887 -0.429879 0
vn -0.999668 -0.025781 0
vn -0.994925 -0.100622 0
vn -0.970239 -0.242149 0
vn -0.906021 -0.423232 0
vn -0.810723 -0.58543 0
vn -0.624571 -0.780968 0
vn -0.484558 -0.874759 0
vn 0.844251 -0.535948 0
vn 0.785117 -0.619347 0
vn 0.49535 -0.868693 0
vn 0.0716217 -0.997432 0
vn -0.0887866 -0.996051 0
vn 0.260011 -0.965606 0
vn 0.673994 -0.738737 0
vn 0.141129 -0.989991 0
vn -0.100466 -0.99494 0
vn -0.232101 -0.972692 0
vn -0.279246 -0.96022 0
vn 0.769741 -0.638356 0
vn 0.715181 -0.69894 0
vn -0.802788 -0.596264 0
vn -0.886926 -0.461911 0
vn -0.813776 -0.581178 0
vn -0.618748 -0.785589 0
vn -0.266918 -0.963719 0
vn 0.159495 -0.987199 0

# Mesh 'OpenSCAD_Model' with 492 faces
g OpenSCAD_Model
usemtl DefaultMaterial
f  1//1 2//1 3//1
f  1//1 3//1 4//1
f  3//1 5//1 4//1
f  6//1 7//1 4//1
f  4//1 8//1 9//1
f  9//1 6//1 4//1
f  4//1 10//1 8//1
f  10//1 4//1 5//1
f  11//1 7//1 6//1
f  12//1 7//1 11//1
f  12//1 11//1 13//1
f  12//1 13//1 14//1
f  15//1 16//1 13//1
f  13//1 17//1 14//1
f  16//1 17//1 13//1
f  18//1 19//1 13//1
f  13//1 19//1 15//1
f  14//1 20//1 21//1
f  14//1 22//1 20//1
f  14//1 17//1 22//1
f  20//1 23//1 21//1
f  24//1 20//1 25//1
f  24//1 23//1 20//1
f  26//1 27//1 21//1
f  23//1 28//1 21//1
f  28//1 26//1 21//1
f  26//1 29//1 30//1
f  31//1 26//1 30//1
f  31//1 27//1 26//1
f  32//1 26//1 28//1
f  28//1 33//1 34//1
f  32//1 28//1 34//1
f  35//1 36//1 32//1
f  36//1 37//1 32//1
f  32//1 34//1 35//1
f  33//1 38//1 34//1
f  33//1 39//1 40//1
f  41//1 33//1 40//1
f  41//1 38//1 33//1
f  42//1 40//1 39//1
f  42//1 39//1 43//1
f  36//1 35//1 44//1
f  44//1 45//1 46//1
f  46//1 36//1 44//1
f  45//1 44//1 47//1
f  45//1 47//1 48//1
f  47//1 49//1 48//1
f  50//1 37//1 36//1
f  37//1 51//1 52//1
f  37//1 53//1 54//1
f  55//1 51//1 37//1
f  54//1 55//1 37//1
f  53//1 37//1 50//1
f  51//1 56//1 52//1
f  56//1 57//1 52//1
f  56//1 58//1 57//1
f  50//1 59//1 60//1
f  61//1 62//1 50//1
f  50//1 62//1 59//1
f  53//1 50//1 60//1
f  29//1 63//1 30//1
f  29//1 64//1 63//1
f  63//1 64//1 65//1
f  66//1 64//1 67//1
f  68//1 69//1 64//1
f  65//1 64//1 69//1
f  64//1 66//1 68//1
f  70//1 65//1 69//1
f  71//1 72//1 69//1
f  69//1 72//1 73//1
f  69//1 73//1 74//1
f  70//1 69//1 74//1
f  75//1 76//1 24//1
f  77//1 75//1 24//1
f  24//1 25//1 77//1
f  78//1 76//1 75//1
f  76//1 78//1 79//1
f  79//1 78//1 80//1
f  25//1 81//1 77//1
f  25//1 82//1 81//1
f  83//1 84//1 81//1
f  82//1 83//1 81//1
f  85//1 81//1 84//1
f  86//1 87//1 84//1
f  84//1 87//1 88//1
f  85//1 84//1 88//1
f  89//1 85//1 88//1
f  90//1 88//1 91//1
f  90//1 89//1 88//1
f  92//1 93//1 87//1
f  86//1 92//1 87//1
f  86//1 94//1 92//1
f  86//1 95//1 94//1
f  94//1 95//1 96//1
f  96//1 95//1 97//1
f  17//1 98//1 22//1
f  98//1 17//1 99//1
f  16//1 100//1 17//1
f  17//1 100//1 101//1
f  17//1 101//1 102//1
f  103//1 100//1 16//1
f  104//1 100//1 103//1
f  105//1 104//1 103//1
f  106//1 107//1 103//1
f  105//1 103//1 107//1
f  105//1 108//1 104//1
f  109//1 104//1 108//1
f  110//1 111//1 108//1
f  108//1 111//1 112//1
f  109//1 108//1 112//1
f  113//1 110//1 114//1
f  113//1 111//1 110//1
f  115//1 113//1 114//1
f  115//1 114//1 116//1
f  116//1 114//1 117//1
f  107//1 106//1 118//1
f  118//1 106//1 119//1
f  102//1 101//1 120//1
f  101//1 121//1 120//1
f  120//1 121//1 122//1
f  121//1 123//1 122//1
f  19//1 18//1 124//1
f  125//2 126//2 127//2
f  128//2 125//2 127//2
f  128//2 129//2 125//2
f  128//2 130//2 131//2
f  132//2 133//2 128//2
f  128//2 131//2 132//2
f  133//2 134//2 128//2
f  129//2 128//2 134//2
f  135//2 130//2 136//2
f  131//2 130//2 135//2
f  137//2 135//2 136//2
f  138//2 137//2 136//2
f  137//2 139//2 140//2
f  138//2 141//2 137//2
f  137//2 141//2 139//2
f  137//2 142//2 143//2
f  140//2 142//2 137//2
f  144//2 145//2 138//2
f  145//2 146//2 138//2
f  146//2 141//2 138//2
f  144//2 147//2 148//2
f  144//2 149//2 150//2
f  144//2 148//2 149//2
f  144//2 150//2 145//2
f  151//2 145//2 152//2
f  145//2 150//2 152//2
f  153//2 154//2 151//2
f  154//2 155//2 151//2
f  153//2 151//2 152//2
f  152//2 156//2 157//2
f  152//2 157//2 153//2
f  158//2 159//2 156//2
f  157//2 156//2 159//2
f  160//2 159//2 158//2
f  154//2 161//2 155//2
f  154//2 162//2 161//2
f  162//2 154//2 163//2
f  162//2 164//2 165//2
f  166//2 164//2 162//2
f  166//2 162//2 163//2
f  166//2 163//2 167//2
f  168//2 166//2 169//2
f  166//2 167//2 169//2
f  164//2 170//2 171//2
f  164//2 171//2 165//2
f  171//2 172//2 165//2
f  172//2 173//2 165//2
f  174//2 173//2 172//2
f  175//2 173//2 174//2
f  176//2 177//2 149//2
f  176//2 149//2 178//2
f  149//2 148//2 178//2
f  179//2 176//2 178//2
f  176//2 180//2 177//2
f  181//2 182//2 177//2
f  181//2 177//2 183//2
f  177//2 180//2 183//2
f  182//2 181//2 184//2
f  185//2 182//2 184//2
f  178//2 186//2 179//2
f  178//2 187//2 186//2
f  188//2 179//2 186//2
f  186//2 187//2 189//2
f  188//2 186//2 190//2
f  190//2 191//2 188//2
f  192//2 188//2 191//2
f  193//2 192//2 191//2
f  193//2 194//2 192//2
f  195//2 196//2 189//2
f  189//2 197//2 198//2
f  196//2 197//2 189//2
f  195//2 189//2 199//2
f  189//2 187//2 199//2
f  200//2 199//2 187//2
f  201//2 202//2 187//2
f  187//2 202//2 203//2
f  187//2 203//2 200//2
f  201//2 204//2 205//2
f  201//2 205//2 202//2
f  204//2 206//2 205//2
f  207//2 208//2 148//2
f  207//2 148//2 209//2
f  148//2 147//2 209//2
f  207//2 210//2 208//2
f  210//2 211//2 208//2
f  212//2 211//2 210//2
f  213//2 211//2 214//2
f  211//2 215//2 216//2
f  215//2 211//2 212//2
f  216//2 214//2 211//2
f  215//2 212//2 217//2
f  215//2 218//2 219//2
f  220//2 218//2 215//2
f  221//2 220//2 215//2
f  221//2 215//2 217//2
f  146//2 222//2 141//2
f  223//2 141//2 222//2
f  141//2 224//2 139//2
f  225//2 224//2 141//2
f  226//2 225//2 141//2
f  227//2 224//2 228//2
f  139//2 224//2 227//2
f  227//2 228//2 229//2
f  227//2 230//2 231//2
f  230//2 227//2 229//2
f  228//2 232//2 229//2
f  232//2 228//2 233//2
f  232//2 234//2 235//2
f  236//2 234//2 232//2
f  236//2 232//2 233//2
f  235//2 234//2 237//2
f  238//2 235//2 237//2
f  238//2 237//2 239//2
f  240//2 238//2 239//2
f  241//2 238//2 240//2
f  242//2 231//2 230//2
f  243//2 231//2 242//2
f  244//2 245//2 225//2
f  244//2 225//2 226//2
f  246//2 245//2 244//2
f  246//2 247//2 245//2
f  248//2 143//2 142//2
f  1//3 126//3 2//3
f  1//3 127//3 126//3
f  4//4 127//4 1//4
f  4//4 128//4 127//4
f  7//5 128//5 4//5
f  7//5 130//5 128//5
f  12//6 130//6 7//6
f  12//6 136//6 130//6
f  14//7 136//7 12//7
f  14//7 138//7 136//7
f  21//8 138//8 14//8
f  21//8 144//8 138//8
f  27//9 144//9 21//9
f  27//9 147//9 144//9
f  31//10 147//10 27//10
f  31//10 209//10 147//10
f  30//11 209//11 31//11
f  30//11 207//11 209//11
f  63//12 207//12 30//12
f  63//12 210//12 207//12
f  65//13 210//13 63//13
f  65//13 212//13 210//13
f  70//14 212//14 65//14
f  70//14 217//14 212//14
f  74//15 217//15 70//15
f  74//15 221//15 217//15
f  73//16 221//16 74//16
f  73//16 220//16 221//16
f  72//9 220//9 73//9
f  72//9 218//9 220//9
f  71//17 218//17 72//17
f  71//17 219//17 218//17
f  69//18 219//18 71//18
f  69//18 215//18 219//18
f  68//19 215//19 69//19
f  68//19 216//19 215//19
f  66//20 216//20 68//20
f  66//20 214//20 216//20
f  67//21 214//21 66//21
f  67//21 213//21 214//21
f  64//22 213//22 67//22
f  64//22 211//22 213//22
f  29//23 211//23 64//23
f  29//23 208//23 211//23
f  26//24 208//24 29//24
f  26//24 148//24 208//24
f  32//25 148//25 26//25
f  32//25 178//25 148//25
f  37//26 178//26 32//26
f  37//26 187//26 178//26
f  52//27 187//27 37//27
f  52//27 201//27 187//27
f  57//28 201//28 52//28
f  57//28 204//28 201//28
f  58//29 204//29 57//29
f  58//29 206//29 204//29
f  56//30 206//30 58//30
f  56//30 205//30 206//30
f  51//31 205//31 56//31
f  51//31 202//31 205//31
f  55//32 202//32 51//32
f  55//32 203//32 202//32
f  54//33 203//33 55//33
f  54//33 200//33 203//33
f  53//34 200//34 54//34
f  53//34 199//34 200//34
f  60//35 199//35 53//35
f  60//35 195//35 199//35
f  59//36 195//36 60//36
f  59//36 196//36 195//36
f  62//37 196//37 59//37
f  62//37 197//37 196//37
f  61//38 197//38 62//38
f  61//38 198//38 197//38
f  50//39 198//39 61//39
f  50//39 189//39 198//39
f  36//40 189//40 50//40
f  36//40 186//40 189//40
f  46//41 186//41 36//41
f  46//41 190//41 186//41
f  45//42 190//42 46//42
f  45//42 191//42 190//42
f  48//43 191//43 45//43
f  48//43 193//43 191//43
f  49//44 193//44 48//44
f  49//44 194//44 193//44
f  47//45 194//45 49//45
f  47//45 192//45 194//45
f  44//46 192//46 47//46
f  44//46 188//46 192//46
f  35//47 188//47 44//47
f  35//47 179//47 188//47
f  34//48 179//48 35//48
f  34//48 176//48 179//48
f  38//49 176//49 34//49
f  38//49 180//49 176//49
f  41//50 180//50 38//50
f  41//50 183//50 180//50
f  40//51 183//51 41//51
f  40//51 181//51 183//51
f  42//52 181//52 40//52
f  42//52 184//52 181//52
f  43//53 184//53 42//53
f  43//53 185//53 184//53
f  39//9 185//9 43//9
f  39//9 182//9 185//9
f  33//54 182//54 39//54
f  33//54 177//54 182//54
f  28//55 177//55 33//55
f  28//55 149//55 177//55
f  23//56 149//56 28//56
f  23//56 150//56 149//56
f  24//57 150//57 23//57
f  24//57 152//57 150//57
f  76//58 152//58 24//58
f  76//58 156//58 152//58
f  79//59 156//59 76//59
f  79//59 158//59 156//59
f  80//60 158//60 79//60
f  80//60 160//60 158//60
f  78//61 160//61 80//61
f  78//61 159//61 160//61
f  75//62 159//62 78//62
f  75//62 157//62 159//62
f  77//63 157//63 75//63
f  77//63 153//63 157//63
f  81//64 153//64 77//64
f  81//64 154//64 153//64
f  85//65 154//65 81//65
f  85//65 163//65 154//65
f  89//66 163//66 85//66
f  89//66 167//66 163//66
f  90//67 167//67 89//67
f  90//67 169//67 167//67
f  91//68 169//68 90//68
f  91//68 168//68 169//68
f  88//69 168//69 91//69
f  88//69 166//69 168//69
f  87//70 166//70 88//70
f  87//70 164//70 166//70
f  93//71 164//71 87//71
f  93//71 170//71 164//71
f  92//72 170//72 93//72
f  92//72 171//72 170//72
f  94//73 171//73 92//73
f  94//73 172//73 171//73
f  96//74 172//74 94//74
f  96//74 174//74 172//74
f  97//9 174//9 96//9
f  97//9 175//9 174//9
f  95//75 175//75 97//75
f  95//75 173//75 175//75
f  86//76 173//76 95//76
f  86//76 165//76 173//76
f  84//77 165//77 86//77
f  84//77 162//77 165//77
f  83//78 162//78 84//78
f  83//78 161//78 162//78
f  82//79 161//79 83//79
f  82//79 155//79 161//79
f  25//9 155//9 82//9
f  25//9 151//9 155//9
f  20//80 151//80 25//80
f  20//80 145//80 151//80
f  22//81 145//81 20//81
f  22//81 146//81 145//81
f  98//82 146//82 22//82
f  98//82 222//82 146//82
f  99//83 222//83 98//83
f  99//83 223//83 222//83
f  17//84 223//84 99//84
f  17//84 141//84 223//84
f  102//85 141//85 17//85
f  102//85 226//85 141//85
f  120//86 226//86 102//86
f  120//86 244//86 226//86
f  122//87 244//87 120//87
f  122//87 246//87 244//87
f  123//88 246//88 122//88
f  123//88 247//88 246//88
f  121//54 247//54 123//54
f  121//54 245//54 247//54
f  101//89 245//89 121//89
f  101//89 225//89 245//89
f  100//90 225//90 101//90
f  100//90 224//90 225//90
f  104//91 224//91 100//91
f  104//91 228//91 224//91
f  109//92 228//92 104//92
f  109//92 233//92 228//92
f  112//93 233//93 109//93
f  112//93 236//93 233//93
f  111//94 236//94 112//94
f  111//94 234//94 236//94
f  113//95 234//95 111//95
f  113//95 237//95 234//95
f  115//96 237//96 113//96
f  115//96 239//96 237//96
f  116//97 239//97 115//97
f  116//97 240//97 239//97
f  117//98 240//98 116//98
f  117//98 241//98 240//98
f  114//99 241//99 117//99
f  114//99 238//99 241//99
f  110//100 238//100 114//100
f  110//100 235//100 238//100
f  108//101 235//101 110//101
f  108//101 232//101 235//101
f  105//102 232//102 108//102
f  105//102 229//102 232//102
f  107//103 229//103 105//103
f  107//103 230//103 229//103
f  118//9 230//9 107//9
f  118//9 242//9 230//9
f  119//104 242//104 118//104
f  119//104 243//104 242//104
f  106//105 243//105 119//105
f  106//105 231//105 243//105
f  103//77 231//77 106//77
f  103//77 227//77 231//77
f  16//106 227//106 103//106
f  16//106 139//106 227//106
f  15//107 139//107 16//107
f  15//107 140//107 139//107
f  19//108 140//108 15//108
f  19//108 142//108 140//108
f  124//109 142//109 19//109
f  124//109 248//109 142//109
f  18//110 248//110 124//110
f  18//110 143//110 248//110
f  13//111 143//111 18//111
f  13//111 137//111 143//111
f  11//9 137//9 13//9
f  11//9 135//9 137//9
f  6//112 135//112 11//112
f  6//112 131//112 135//112
f  9//113 131//113 6//113
f  9//113 132//113 131//113
f  8//114 132//114 9//114
f  8//114 133//114 132//114
f  10//115 133//115 8//115
f  10//115 134//115 133//115
f  5//116 134//116 10//116
f  5//116 129//116 134//116
f  3//9 129//9 5//9
f  3//9 125//9 129//9
f  2//117 125//117 3//117
f  2//117 126//117 125//117

