# File produced by Open Asset Import Library (http://www.assimp.sf.net)
# (assimp v3.1.187496374)

mtllib Oregon.obj.mtl

# 276 vertex positions
v  6.33954 -8.0259 0
v  6.22406 -8.06531 0
v  6.40882 -7.92456 0
v  5.9527 -8.07094 0
v  6.55894 -7.33906 0
v  4.52083 -7.8007 0
v  6.96887 -5.22224 0
v  2.75986 -7.42913 0
v  7.07279 -4.49036 0
v  0.946928 -7.01816 0
v  7.27487 -3.62899 0
v  1.5243 4.54553 0
v  -3.05423 -6.03856 0
v  7.38457 -1.02238 0
v  7.39612 -1.13498 0
v  7.33261 -3.31935 0
v  0.190577 4.66939 0
v  0.0693303 4.67502 0
v  -3.34868 -5.9316 0
v  0.508129 4.69191 0
v  1.35109 4.60183 0
v  0.710208 4.72569 0
v  1.20097 4.67502 0
v  0.970023 4.74258 0
v  0.773718 4.74821 0
v  1.7437 4.55116 0
v  1.89958 4.57368 0
v  7.42499 -0.892892 0
v  2.52314 4.70317 0
v  3.02545 4.77072 0
v  4.70559 4.62998 0
v  5.03469 4.53427 0
v  7.52314 -0.735257 0
v  3.67788 4.79887 0
v  4.24947 4.74821 0
v  4.60166 4.67502 0
v  5.36956 4.47234 0
v  7.82915 -0.397467 0
v  8.44115 0.677833 0
v  8.40074 0.587755 0
v  7.34416 4.19648 0
v  8.38342 0.503308 0
v  8.14092 -0.0934553 0
v  8.36032 0.249965 0
v  8.28527 0.0923293 0
v  8.51044 0.784799 0
v  8.74139 1.06629 0
v  8.08319 4.12892 0
v  9.31298 3.3126 0
v  9.45732 1.81506 0
v  9.2437 3.49838 0
v  9.20328 3.6898 0
v  9.15709 4.06137 0
v  9.42845 3.12681 0
v  9.83838 2.60324 0
v  9.87303 2.29923 0
v  9.93654 2.42308 0
v  9.93076 2.3893 0
v  -0.0461432 4.70317 0
v  -3.87986 -5.78522 0
v  -2.41335 5.17044 0
v  -0.138522 4.7651 0
v  -2.60388 5.17044 0
v  -8.03691 1.75876 0
v  -8.41219 0.796059 0
v  -6.4145 -5.20535 0
v  -1.9861 5.24926 0
v  -1.47801 5.29993 0
v  -0.923741 5.26615 0
v  -0.502263 5.1254 0
v  -0.271316 4.94525 0
v  -8.62582 0.317523 0
v  -8.70088 0.182407 0
v  -8.77016 0.103589 0
v  -9.83829 -2.18776 0
v  -9.83829 -2.01323 0
v  -8.83945 0.0472906 0
v  -9.87293 -2.34539 0
v  -9.90758 -3.92738 0
v  -10.0057 -3.61773 0
v  -10.0461 -2.82956 0
v  -9.98841 -2.58747 0
v  -10.0635 -3.20676 0
v  -9.71127 -4.36087 0
v  -9.55538 -0.791555 0
v  -9.09926 -0.115975 0
v  -8.94337 0.00225194 0
v  -9.2436 -0.28487 0
v  -9.71704 -1.02238 0
v  -9.90758 -1.54032 0
v  -9.82674 -1.1969 0
v  -9.9018 -1.3658 0
v  -7.62697 2.71583 0
v  -7.38448 3.21126 0
v  -2.78864 5.22674 0
v  -7.03229 4.20211 0
v  -3.10042 5.37875 0
v  -3.40065 5.58142 0
v  -6.53575 5.44631 0
v  -3.2794 5.48008 0
v  -6.26439 6.07122 0
v  -3.43529 5.68839 0
v  -6.18356 6.21196 0
v  -6.1085 6.41464 0
v  -4.23206 7.41675 0
v  -3.33136 6.31893 0
v  -6.07386 6.61168 0
v  -6.07386 6.71302 0
v  -4.12236 7.39423 0
v  -4.30711 7.48431 0
v  -3.30827 6.63983 0
v  -3.43529 7.05081 0
v  -3.35446 6.87628 0
v  -3.57963 7.276 0
v  -3.79326 7.40549 0
v  -3.67778 7.37171 0
v  -6.02767 7.00577 0
v  -5.9757 7.20281 0
v  -5.84868 7.54624 0
v  -4.99995 7.92906 0
v  -5.54268 7.92906 0
v  -5.78517 7.80521 0
v  -4.82674 7.91217 0
v  -4.39949 7.63631 0
v  -4.52651 7.78832 0
v  -4.67085 7.88403 0
v  -5.79095 7.86151 0
v  -5.77363 7.88966 0
v  -5.68125 7.91217 0
v  7.38457 -3.09979 0
v  7.47695 -2.83519 0
v  7.5982 -2.56495 0
v  7.4654 -1.23631 0
v  7.58665 -1.32639 0
v  8.02545 -1.85559 0
v  8.02545 -1.55158 0
v  8.12938 -1.66418 0
v  8.12938 -1.63603 0
v  6.40882 -7.92456 1
v  6.22406 -8.06531 1
v  6.33954 -8.0259 1
v  6.55894 -7.33906 1
v  5.9527 -8.07094 1
v  6.96887 -5.22224 1
v  4.52083 -7.8007 1
v  7.07279 -4.49036 1
v  2.75986 -7.42913 1
v  7.27487 -3.62899 1
v  0.946928 -7.01816 1
v  7.33261 -3.31935 1
v  -3.05423 -6.03856 1
v  1.5243 4.54553 1
v  7.38457 -1.02238 1
v  7.39612 -1.13498 1
v  7.38457 -3.09979 1
v  7.47695 -2.83519 1
v  7.5982 -2.56495 1
v  7.4654 -1.23631 1
v  8.02545 -1.85559 1
v  7.58665 -1.32639 1
v  8.12938 -1.66418 1
v  8.02545 -1.55158 1
v  8.12938 -1.63603 1
v  7.42499 -0.892892 1
v  1.89958 4.57368 1
v  1.7437 4.55116 1
v  2.52314 4.70317 1
v  3.02545 4.77072 1
v  4.70559 4.62998 1
v  3.67788 4.79887 1
v  4.60166 4.67502 1
v  4.24947 4.74821 1
v  5.03469 4.53427 1
v  7.52314 -0.735257 1
v  5.36956 4.47234 1
v  7.82915 -0.397467 1
v  8.40074 0.587755 1
v  8.44115 0.677833 1
v  7.34416 4.19648 1
v  8.14092 -0.0934553 1
v  8.38342 0.503308 1
v  8.28527 0.0923293 1
v  8.36032 0.249965 1
v  8.51044 0.784799 1
v  8.08319 4.12892 1
v  8.74139 1.06629 1
v  9.20328 3.6898 1
v  9.2437 3.49838 1
v  9.31298 3.3126 1
v  9.15709 4.06137 1
v  9.45732 1.81506 1
v  9.42845 3.12681 1
v  9.87303 2.29923 1
v  9.83838 2.60324 1
v  9.93076 2.3893 1
v  9.93654 2.42308 1
v  0.190577 4.66939 1
v  0.508129 4.69191 1
v  1.35109 4.60183 1
v  0.0693303 4.67502 1
v  -3.34868 -5.9316 1
v  -0.0461432 4.70317 1
v  -3.87986 -5.78522 1
v  -0.138522 4.7651 1
v  -2.41335 5.17044 1
v  -2.60388 5.17044 1
v  -8.03691 1.75876 1
v  -8.41219 0.796059 1
v  -6.4145 -5.20535 1
v  -1.9861 5.24926 1
v  -1.47801 5.29993 1
v  -0.923741 5.26615 1
v  -0.502263 5.1254 1
v  -0.271316 4.94525 1
v  -8.62582 0.317523 1
v  -8.70088 0.182407 1
v  -8.77016 0.103589 1
v  -9.83829 -2.18776 1
v  -9.71127 -4.36087 1
v  -9.90758 -3.92738 1
v  -9.87293 -2.34539 1
v  -9.83829 -2.01323 1
v  -8.83945 0.0472906 1
v  -9.55538 -0.791555 1
v  -9.71704 -1.02238 1
v  -9.90758 -1.54032 1
v  -8.94337 0.00225194 1
v  -9.09926 -0.115975 1
v  -9.2436 -0.28487 1
v  -9.82674 -1.1969 1
v  -9.9018 -1.3658 1
v  -10.0057 -3.61773 1
v  -9.98841 -2.58747 1
v  -10.0461 -2.82956 1
v  -10.0635 -3.20676 1
v  -7.62697 2.71583 1
v  -2.78864 5.22674 1
v  -7.38448 3.21126 1
v  -3.10042 5.37875 1
v  -7.03229 4.20211 1
v  -3.2794 5.48008 1
v  -6.53575 5.44631 1
v  -3.40065 5.58142 1
v  -6.26439 6.07122 1
v  -3.43529 5.68839 1
v  -6.18356 6.21196 1
v  -6.1085 6.41464 1
v  -3.33136 6.31893 1
v  -4.23206 7.41675 1
v  -6.07386 6.61168 1
v  -6.07386 6.71302 1
v  -4.12236 7.39423 1
v  -4.30711 7.48431 1
v  -3.30827 6.63983 1
v  -3.35446 6.87628 1
v  -3.43529 7.05081 1
v  -3.57963 7.276 1
v  -3.79326 7.40549 1
v  -3.67778 7.37171 1
v  -4.39949 7.63631 1
v  -4.99995 7.92906 1
v  -5.9757 7.20281 1
v  -6.02767 7.00577 1
v  -4.82674 7.91217 1
v  -4.52651 7.78832 1
v  -5.54268 7.92906 1
v  -5.84868 7.54624 1
v  -5.78517 7.80521 1
v  -5.68125 7.91217 1
v  -5.77363 7.88966 1
v  -5.79095 7.86151 1
v  -4.67085 7.88403 1
v  0.710208 4.72569 1
v  1.20097 4.67502 1
v  0.970023 4.74258 1
v  0.773718 4.74821 1

# 0 UV coordinates

# 134 vertex normals
vn 0 0 -1
vn 0 0 1
vn 0.322989 -0.946403 0
vn 0.825504 -0.564396 0
vn 0.968669 -0.248354 0
vn 0.98176 -0.190122 0
vn 0.990068 -0.140589 0
vn 0.973567 -0.228401 0
vn 0.983056 -0.183304 0
vn 0.973119 -0.230303 0
vn 0.944116 -0.329613 0
vn 0.912373 -0.409361 0
vn 0.85662 -0.515948 0
vn 0.878824 -0.477146 0
vn 1 0 0
vn 0.630627 0.776086 0
vn 0.456587 0.889679 0
vn 0.596359 0.802718 0
vn 0.825504 0.564396 0
vn 0.994782 0.10202 0
vn 0.954582 -0.297948 0
vn 0.848892 -0.528566 0
vn 0.741116 -0.671377 0
vn 0.698132 -0.715969 0
vn 0.789676 -0.613524 0
vn 0.902876 -0.429902 0
vn 0.995871 -0.0907834 0
vn 0.979606 -0.200927 0
vn 0.839319 -0.543639 0
vn 0.773101 -0.634282 0
vn 0.722776 -0.691083 0
vn 0.758711 -0.651428 0
vn 0.841901 -0.539632 0
vn 0.985705 -0.168481 0
vn 0.878129 0.478424 0
vn 0.787376 0.616473 0
vn 0.849315 0.527887 0
vn 0.936966 0.34942 0
vn 0.978428 0.206588 0
vn 0.992362 0.123359 0
vn 0.0627848 0.998027 0
vn 0.0910349 0.995848 0
vn 0.138362 0.990382 0
vn 0.181847 0.983327 0
vn 0.279247 0.960219 0
vn 0.397638 0.917543 0
vn 0.203459 0.979083 0
vn 0.0882981 0.996094 0
vn -0.0431054 0.999071 0
vn -0.133295 0.991076 0
vn -0.20332 0.979112 0
vn -0.142973 0.989727 0
vn -0.0256518 0.999671 0
vn 0.309111 0.951026 0
vn 0.438234 0.898861 0
vn 0.28076 0.959778 0
vn 0.0286673 0.999589 0
vn -0.334191 0.942505 0
vn -0.16487 0.986315 0
vn -0.0707378 0.997495 0
vn 0.0463828 0.998924 0
vn 0.236837 0.97155 0
vn 0.55683 0.830627 0
vn 0.804952 0.59334 0
vn 0.615066 0.788475 0
vn 0.316741 0.948512 0
vn 0.0608301 0.998148 0
vn -0.0992327 0.995064 0
vn -0.181415 0.983407 0
vn 0 1 0
vn 0.291483 0.956576 0
vn 0.492692 0.870204 0
vn 0.641296 0.767294 0
vn 0.951353 0.308103 0
vn 0.986688 -0.162626 0
vn 0.99742 -0.0717827 0
vn 0.98145 0.191719 0
vn 0.907402 0.420264 0
vn 0.841901 0.539632 0
vn 0.698132 0.715969 0
vn -0.0341936 0.999415 0
vn 0.201088 0.979573 0
vn 0.668998 0.743264 0
vn 0.854564 0.519346 0
vn 0.767353 0.641225 0
vn 0.552617 0.833435 0
vn 0.177698 0.984085 0
vn 0.0970485 0.99528 0
vn -0.120991 0.992654 0
vn -0.236837 0.97155 0
vn -0.851679 0.524063 0
vn -0.994782 -0.10202 0
vn -0.971221 0.238182 0
vn -0.937902 0.346902 0
vn -0.966942 0.254995 0
vn -0.987781 0.155849 0
vn -1 0 0
vn -0.984895 0.173153 0
vn -0.937759 0.347287 0
vn -0.867166 0.49802 0
vn -0.917252 0.398308 0
vn -0.92877 0.370656 0
vn -0.942247 0.334918 0
vn -0.89818 0.439629 0
vn -0.91923 0.393722 0
vn -0.931709 0.363206 0
vn -0.913142 0.407641 0
vn -0.874176 0.485609 0
vn -0.75107 0.660222 0
vn -0.630627 0.776086 0
vn -0.397638 0.917543 0
vn -0.604276 0.796775 0
vn -0.760202 0.649687 0
vn -0.819088 0.573668 0
vn -0.84664 0.532166 0
vn -0.913825 0.406108 0
vn -0.999453 0.0330641 0
vn -0.989438 -0.144959 0
vn -0.976694 0.214639 0
vn -0.902577 0.430529 0
vn -0.972718 0.231993 0
vn -0.998947 0.0458717 0
vn -0.990276 -0.13912 0
vn -0.953254 -0.30217 0
vn -0.910951 -0.412515 0
vn -0.248141 -0.968724 0
vn -0.223017 -0.974814 0
vn -0.265666 -0.964065 0
vn -0.341437 -0.939905 0
vn -0.237804 -0.971313 0
vn -0.221083 -0.975255 0
vn -0.206457 -0.978456 0
vn -0.185453 -0.982653 0
vn 0.0207421 -0.999785 0

# Mesh 'OpenSCAD_Model' with 548 faces
g OpenSCAD_Model
usemtl DefaultMaterial
f  1//1 2//1 3//1
f  2//1 4//1 3//1
f  3//1 4//1 5//1
f  5//1 4//1 6//1
f  5//1 6//1 7//1
f  6//1 8//1 7//1
f  8//1 9//1 7//1
f  10//1 11//1 8//1
f  8//1 11//1 9//1
f  12//1 10//1 13//1
f  12//1 14//1 10//1
f  10//1 14//1 15//1
f  16//1 11//1 10//1
f  16//1 10//1 15//1
f  17//1 13//1 18//1
f  17//1 12//1 13//1
f  19//1 18//1 13//1
f  20//1 12//1 17//1
f  21//1 20//1 22//1
f  21//1 12//1 20//1
f  21//1 22//1 23//1
f  24//1 23//1 22//1
f  25//1 24//1 22//1
f  12//1 26//1 14//1
f  26//1 27//1 14//1
f  27//1 28//1 14//1
f  29//1 28//1 27//1
f  30//1 31//1 28//1
f  32//1 28//1 31//1
f  32//1 33//1 28//1
f  29//1 30//1 28//1
f  30//1 34//1 31//1
f  31//1 35//1 36//1
f  31//1 34//1 35//1
f  37//1 33//1 32//1
f  37//1 38//1 33//1
f  37//1 39//1 40//1
f  41//1 39//1 37//1
f  37//1 40//1 38//1
f  38//1 42//1 43//1
f  38//1 40//1 42//1
f  42//1 44//1 45//1
f  43//1 42//1 45//1
f  41//1 46//1 39//1
f  47//1 41//1 48//1
f  47//1 46//1 41//1
f  49//1 47//1 48//1
f  47//1 49//1 50//1
f  51//1 48//1 52//1
f  49//1 48//1 51//1
f  53//1 52//1 48//1
f  49//1 54//1 50//1
f  50//1 55//1 56//1
f  50//1 54//1 55//1
f  55//1 57//1 56//1
f  57//1 58//1 56//1
f  59//1 18//1 19//1
f  19//1 60//1 59//1
f  59//1 61//1 62//1
f  59//1 60//1 61//1
f  60//1 63//1 61//1
f  60//1 64//1 63//1
f  60//1 65//1 64//1
f  60//1 66//1 65//1
f  61//1 67//1 62//1
f  67//1 68//1 62//1
f  62//1 68//1 69//1
f  62//1 70//1 71//1
f  62//1 69//1 70//1
f  65//1 66//1 72//1
f  73//1 72//1 66//1
f  66//1 74//1 73//1
f  75//1 76//1 74//1
f  74//1 76//1 77//1
f  66//1 75//1 74//1
f  66//1 78//1 75//1
f  79//1 80//1 78//1
f  78//1 81//1 82//1
f  78//1 83//1 81//1
f  78//1 80//1 83//1
f  79//1 78//1 66//1
f  79//1 66//1 84//1
f  76//1 85//1 77//1
f  77//1 86//1 87//1
f  77//1 88//1 86//1
f  77//1 85//1 88//1
f  76//1 89//1 85//1
f  90//1 89//1 76//1
f  91//1 89//1 90//1
f  91//1 90//1 92//1
f  93//1 63//1 64//1
f  93//1 94//1 63//1
f  94//1 95//1 63//1
f  96//1 97//1 94//1
f  94//1 97//1 95//1
f  98//1 96//1 99//1
f  98//1 100//1 96//1
f  96//1 100//1 97//1
f  98//1 99//1 101//1
f  102//1 98//1 101//1
f  102//1 101//1 103//1
f  102//1 103//1 104//1
f  102//1 105//1 106//1
f  105//1 102//1 104//1
f  105//1 104//1 107//1
f  105//1 107//1 108//1
f  106//1 105//1 109//1
f  110//1 105//1 108//1
f  106//1 109//1 111//1
f  112//1 113//1 109//1
f  114//1 112//1 109//1
f  115//1 114//1 109//1
f  109//1 113//1 111//1
f  116//1 114//1 115//1
f  110//1 108//1 117//1
f  110//1 117//1 118//1
f  118//1 119//1 120//1
f  110//1 118//1 120//1
f  119//1 121//1 120//1
f  121//1 119//1 122//1
f  123//1 124//1 120//1
f  120//1 124//1 110//1
f  125//1 124//1 123//1
f  126//1 125//1 123//1
f  127//1 128//1 122//1
f  122//1 128//1 129//1
f  121//1 122//1 129//1
f  130//1 16//1 15//1
f  131//1 130//1 15//1
f  132//1 131//1 15//1
f  15//1 133//1 132//1
f  132//1 134//1 135//1
f  132//1 133//1 134//1
f  135//1 134//1 136//1
f  135//1 136//1 137//1
f  136//1 138//1 137//1
f  139//2 140//2 141//2
f  142//2 143//2 139//2
f  139//2 143//2 140//2
f  144//2 145//2 142//2
f  145//2 143//2 142//2
f  144//2 146//2 147//2
f  144//2 147//2 145//2
f  146//2 148//2 147//2
f  147//2 148//2 149//2
f  149//2 148//2 150//2
f  151//2 149//2 152//2
f  149//2 153//2 152//2
f  154//2 153//2 149//2
f  154//2 149//2 150//2
f  154//2 150//2 155//2
f  154//2 155//2 156//2
f  154//2 156//2 157//2
f  157//2 158//2 154//2
f  159//2 160//2 157//2
f  160//2 158//2 157//2
f  161//2 162//2 159//2
f  162//2 160//2 159//2
f  161//2 163//2 162//2
f  153//2 164//2 165//2
f  153//2 165//2 166//2
f  153//2 166//2 152//2
f  165//2 164//2 167//2
f  164//2 168//2 167//2
f  164//2 169//2 168//2
f  169//2 170//2 168//2
f  171//2 172//2 169//2
f  169//2 164//2 173//2
f  172//2 170//2 169//2
f  173//2 174//2 175//2
f  164//2 174//2 173//2
f  174//2 176//2 175//2
f  177//2 178//2 175//2
f  175//2 178//2 179//2
f  176//2 177//2 175//2
f  180//2 181//2 176//2
f  181//2 177//2 176//2
f  182//2 181//2 180//2
f  182//2 183//2 181//2
f  178//2 184//2 179//2
f  185//2 179//2 186//2
f  179//2 184//2 186//2
f  187//2 185//2 188//2
f  188//2 185//2 189//2
f  185//2 186//2 189//2
f  185//2 187//2 190//2
f  191//2 189//2 186//2
f  191//2 192//2 189//2
f  193//2 194//2 191//2
f  194//2 192//2 191//2
f  193//2 195//2 196//2
f  193//2 196//2 194//2
f  151//2 152//2 197//2
f  198//2 152//2 199//2
f  197//2 152//2 198//2
f  200//2 151//2 197//2
f  151//2 200//2 201//2
f  201//2 200//2 202//2
f  202//2 203//2 201//2
f  204//2 205//2 202//2
f  205//2 203//2 202//2
f  205//2 206//2 203//2
f  206//2 207//2 203//2
f  207//2 208//2 203//2
f  208//2 209//2 203//2
f  204//2 210//2 205//2
f  204//2 211//2 210//2
f  212//2 211//2 204//2
f  213//2 212//2 204//2
f  214//2 213//2 204//2
f  215//2 209//2 208//2
f  209//2 215//2 216//2
f  216//2 217//2 209//2
f  217//2 218//2 209//2
f  219//2 209//2 220//2
f  209//2 221//2 220//2
f  218//2 221//2 209//2
f  217//2 222//2 218//2
f  223//2 222//2 217//2
f  223//2 224//2 222//2
f  222//2 225//2 226//2
f  224//2 225//2 222//2
f  227//2 228//2 223//2
f  228//2 229//2 223//2
f  229//2 224//2 223//2
f  226//2 225//2 230//2
f  231//2 226//2 230//2
f  221//2 232//2 220//2
f  233//2 234//2 221//2
f  234//2 235//2 221//2
f  235//2 232//2 221//2
f  207//2 206//2 236//2
f  206//2 237//2 238//2
f  206//2 238//2 236//2
f  237//2 239//2 238//2
f  238//2 239//2 240//2
f  239//2 241//2 240//2
f  242//2 240//2 243//2
f  240//2 241//2 243//2
f  244//2 242//2 243//2
f  244//2 243//2 245//2
f  246//2 244//2 245//2
f  247//2 246//2 245//2
f  248//2 249//2 245//2
f  247//2 245//2 249//2
f  250//2 247//2 249//2
f  251//2 250//2 249//2
f  252//2 249//2 248//2
f  251//2 249//2 253//2
f  254//2 252//2 248//2
f  252//2 255//2 256//2
f  252//2 256//2 257//2
f  252//2 257//2 258//2
f  254//2 255//2 252//2
f  258//2 257//2 259//2
f  253//2 260//2 261//2
f  261//2 262//2 253//2
f  262//2 263//2 253//2
f  263//2 251//2 253//2
f  264//2 260//2 265//2
f  261//2 260//2 264//2
f  261//2 266//2 267//2
f  261//2 267//2 262//2
f  268//2 267//2 266//2
f  269//2 268//2 266//2
f  268//2 270//2 271//2
f  269//2 270//2 268//2
f  264//2 265//2 272//2
f  273//2 198//2 199//2
f  274//2 273//2 199//2
f  273//2 274//2 275//2
f  273//2 275//2 276//2
f  1//3 140//3 2//3
f  1//3 141//3 140//3
f  3//4 141//4 1//4
f  3//4 139//4 141//4
f  5//5 139//5 3//5
f  5//5 142//5 139//5
f  7//6 142//6 5//6
f  7//6 144//6 142//6
f  9//7 144//7 7//7
f  9//7 146//7 144//7
f  11//8 146//8 9//8
f  11//8 148//8 146//8
f  16//9 148//9 11//9
f  16//9 150//9 148//9
f  130//10 150//10 16//10
f  130//10 155//10 150//10
f  131//11 155//11 130//11
f  131//11 156//11 155//11
f  132//12 156//12 131//12
f  132//12 157//12 156//12
f  135//13 157//13 132//13
f  135//13 159//13 157//13
f  137//14 159//14 135//14
f  137//14 161//14 159//14
f  138//15 161//15 137//15
f  138//15 163//15 161//15
f  136//16 163//16 138//16
f  136//16 162//16 163//16
f  134//17 162//17 136//17
f  134//17 160//17 162//17
f  133//18 160//18 134//18
f  133//18 158//18 160//18
f  15//19 158//19 133//19
f  15//19 154//19 158//19
f  14//20 154//20 15//20
f  14//20 153//20 154//20
f  28//21 153//21 14//21
f  28//21 164//21 153//21
f  33//22 164//22 28//22
f  33//22 174//22 164//22
f  38//23 174//23 33//23
f  38//23 176//23 174//23
f  43//24 176//24 38//24
f  43//24 180//24 176//24
f  45//25 180//25 43//25
f  45//25 182//25 180//25
f  44//26 182//26 45//26
f  44//26 183//26 182//26
f  42//27 183//27 44//27
f  42//27 181//27 183//27
f  40//28 181//28 42//28
f  40//28 177//28 181//28
f  39//12 177//12 40//12
f  39//12 178//12 177//12
f  46//29 178//29 39//29
f  46//29 184//29 178//29
f  47//30 184//30 46//30
f  47//30 186//30 184//30
f  50//31 186//31 47//31
f  50//31 191//31 186//31
f  56//32 191//32 50//32
f  56//32 193//32 191//32
f  58//33 193//33 56//33
f  58//33 195//33 193//33
f  57//34 195//34 58//34
f  57//34 196//34 195//34
f  55//35 196//35 57//35
f  55//35 194//35 196//35
f  54//36 194//36 55//36
f  54//36 192//36 194//36
f  49//37 192//37 54//37
f  49//37 189//37 192//37
f  51//38 189//38 49//38
f  51//38 188//38 189//38
f  52//39 188//39 51//39
f  52//39 187//39 188//39
f  53//40 187//40 52//40
f  53//40 190//40 187//40
f  48//41 190//41 53//41
f  48//41 185//41 190//41
f  41//42 185//42 48//42
f  41//42 179//42 185//42
f  37//43 179//43 41//43
f  37//43 175//43 179//43
f  32//44 175//44 37//44
f  32//44 173//44 175//44
f  31//45 173//45 32//45
f  31//45 169//45 173//45
f  36//46 169//46 31//46
f  36//46 171//46 169//46
f  35//47 171//47 36//47
f  35//47 172//47 171//47
f  34//48 172//48 35//48
f  34//48 170//48 172//48
f  30//49 170//49 34//49
f  30//49 168//49 170//49
f  29//50 168//50 30//50
f  29//50 167//50 168//50
f  27//51 167//51 29//51
f  27//51 165//51 167//51
f  26//52 165//52 27//52
f  26//52 166//52 165//52
f  12//53 166//53 26//53
f  12//53 152//53 166//53
f  21//54 152//54 12//54
f  21//54 199//54 152//54
f  23//55 199//55 21//55
f  23//55 274//55 199//55
f  24//56 274//56 23//56
f  24//56 275//56 274//56
f  25//57 275//57 24//57
f  25//57 276//57 275//57
f  22//58 276//58 25//58
f  22//58 273//58 276//58
f  20//59 273//59 22//59
f  20//59 198//59 273//59
f  17//60 198//60 20//60
f  17//60 197//60 198//60
f  18//61 197//61 17//61
f  18//61 200//61 197//61
f  59//62 200//62 18//62
f  59//62 202//62 200//62
f  62//63 202//63 59//63
f  62//63 204//63 202//63
f  71//64 204//64 62//64
f  71//64 214//64 204//64
f  70//65 214//65 71//65
f  70//65 213//65 214//65
f  69//66 213//66 70//66
f  69//66 212//66 213//66
f  68//67 212//67 69//67
f  68//67 211//67 212//67
f  67//68 211//68 68//68
f  67//68 210//68 211//68
f  61//69 210//69 67//69
f  61//69 205//69 210//69
f  63//70 205//70 61//70
f  63//70 206//70 205//70
f  95//71 206//71 63//71
f  95//71 237//71 206//71
f  97//55 237//55 95//55
f  97//55 239//55 237//55
f  100//72 239//72 97//72
f  100//72 241//72 239//72
f  98//73 241//73 100//73
f  98//73 243//73 241//73
f  102//74 243//74 98//74
f  102//74 245//74 243//74
f  106//75 245//75 102//75
f  106//75 248//75 245//75
f  111//76 248//76 106//76
f  111//76 254//76 248//76
f  113//77 254//77 111//77
f  113//77 255//77 254//77
f  112//78 255//78 113//78
f  112//78 256//78 255//78
f  114//79 256//79 112//79
f  114//79 257//79 256//79
f  116//80 257//80 114//80
f  116//80 259//80 257//80
f  115//56 259//56 116//56
f  115//56 258//56 259//56
f  109//81 258//81 115//81
f  109//81 252//81 258//81
f  105//82 252//82 109//82
f  105//82 249//82 252//82
f  110//83 249//83 105//83
f  110//83 253//83 249//83
f  124//84 253//84 110//84
f  124//84 260//84 253//84
f  125//85 260//85 124//85
f  125//85 265//85 260//85
f  126//86 265//86 125//86
f  126//86 272//86 265//86
f  123//87 272//87 126//87
f  123//87 264//87 272//87
f  120//88 264//88 123//88
f  120//88 261//88 264//88
f  121//70 261//70 120//70
f  121//70 266//70 261//70
f  129//89 266//89 121//89
f  129//89 269//89 266//89
f  128//90 269//90 129//90
f  128//90 270//90 269//90
f  127//91 270//91 128//91
f  127//91 271//91 270//91
f  122//92 271//92 127//92
f  122//92 268//92 271//92
f  119//93 268//93 122//93
f  119//93 267//93 268//93
f  118//94 267//94 119//94
f  118//94 262//94 267//94
f  117//95 262//95 118//95
f  117//95 263//95 262//95
f  108//96 263//96 117//96
f  108//96 251//96 263//96
f  107//97 251//97 108//97
f  107//97 250//97 251//97
f  104//98 250//98 107//98
f  104//98 247//98 250//98
f  103//99 247//99 104//99
f  103//99 246//99 247//99
f  101//100 246//100 103//100
f  101//100 244//100 246//100
f  99//101 244//101 101//101
f  99//101 242//101 244//101
f  96//102 242//102 99//102
f  96//102 240//102 242//102
f  94//103 240//103 96//103
f  94//103 238//103 240//103
f  93//104 238//104 94//104
f  93//104 236//104 238//104
f  64//105 236//105 93//105
f  64//105 207//105 236//105
f  65//106 207//106 64//106
f  65//106 208//106 207//106
f  72//107 208//107 65//107
f  72//107 215//107 208//107
f  73//108 215//108 72//108
f  73//108 216//108 215//108
f  74//109 216//109 73//109
f  74//109 217//109 216//109
f  77//110 217//110 74//110
f  77//110 223//110 217//110
f  87//111 223//111 77//111
f  87//111 227//111 223//111
f  86//112 227//112 87//112
f  86//112 228//112 227//112
f  88//113 228//113 86//113
f  88//113 229//113 228//113
f  85//91 229//91 88//91
f  85//91 224//91 229//91
f  89//114 224//114 85//114
f  89//114 225//114 224//114
f  91//115 225//115 89//115
f  91//115 230//115 225//115
f  92//116 230//116 91//116
f  92//116 231//116 230//116
f  90//117 231//117 92//117
f  90//117 226//117 231//117
f  76//118 226//118 90//118
f  76//118 222//118 226//118
f  75//97 222//97 76//97
f  75//97 218//97 222//97
f  78//119 218//119 75//119
f  78//119 221//119 218//119
f  82//120 221//120 78//120
f  82//120 233//120 221//120
f  81//121 233//121 82//121
f  81//121 234//121 233//121
f  83//122 234//122 81//122
f  83//122 235//122 234//122
f  80//123 235//123 83//123
f  80//123 232//123 235//123
f  79//124 232//124 80//124
f  79//124 220//124 232//124
f  84//125 220//125 79//125
f  84//125 219//125 220//125
f  66//126 219//126 84//126
f  66//126 209//126 219//126
f  60//127 209//127 66//127
f  60//127 203//127 209//127
f  19//128 203//128 60//128
f  19//128 201//128 203//128
f  13//129 201//129 19//129
f  13//129 151//129 201//129
f  10//130 151//130 13//130
f  10//130 149//130 151//130
f  8//131 149//131 10//131
f  8//131 147//131 149//131
f  6//132 147//132 8//132
f  6//132 145//132 147//132
f  4//133 145//133 6//133
f  4//133 143//133 145//133
f  2//134 143//134 4//134
f  2//134 140//134 143//134

