# File produced by Open Asset Import Library (http://www.assimp.sf.net)
# (assimp v3.1.187496374)

mtllib Wyoming.obj.mtl

# 72 vertex positions
v  9.0052 -7.39015 0
v  8.9122 -8.06526 0
v  8.01711 -8.06526 0
v  7.69162 -8.05401 0
v  9.08657 -6.41688 0
v  6.38387 -7.96962 0
v  9.30743 -3.31139 0
v  3.14643 -7.67707 0
v  9.51086 -0.982278 0
v  -3.75854 -6.9007 0
v  2.58846 6.75331 0
v  2.83257 6.74205 0
v  3.69279 6.64079 0
v  9.60386 0.694233 0
v  -3.11919 7.41153 0
v  -5.53128 -6.66442 0
v  -9.59986 -2.58565 0
v  -8.62921 3.59156 0
v  -8.22235 6.28636 0
v  -6.46705 7.84473 0
v  -7.90849 7.93474 0
v  -7.46095 7.93474 0
v  -9.65798 -3.0301 0
v  -9.57661 -6.08495 0
v  -9.97766 -4.99353 0
v  -10.0358 -5.43797 0
v  -9.83816 -6.02869 0
v  -10.0707 -5.89367 0
v  -9.99509 -5.97243 0
v  -10.059 -5.93305 0
v  9.76079 2.92208 0
v  8.83083 6.20197 0
v  9.84797 3.91786 0
v  9.91772 5.30745 0
v  9.88866 4.55359 0
v  9.92935 6.07257 0
v  8.01711 -8.06526 1
v  8.9122 -8.06526 1
v  9.0052 -7.39015 1
v  7.69162 -8.05401 1
v  9.08657 -6.41688 1
v  6.38387 -7.96962 1
v  9.30743 -3.31139 1
v  3.14643 -7.67707 1
v  9.51086 -0.982278 1
v  2.58846 6.75331 1
v  -3.75854 -6.9007 1
v  3.69279 6.64079 1
v  2.83257 6.74205 1
v  9.60386 0.694233 1
v  -3.11919 7.41153 1
v  -9.59986 -2.58565 1
v  -5.53128 -6.66442 1
v  -8.62921 3.59156 1
v  -6.46705 7.84473 1
v  -8.22235 6.28636 1
v  -7.46095 7.93474 1
v  -7.90849 7.93474 1
v  -9.65798 -3.0301 1
v  -9.97766 -4.99353 1
v  -9.57661 -6.08495 1
v  -10.0358 -5.43797 1
v  -9.83816 -6.02869 1
v  -10.0707 -5.89367 1
v  -9.99509 -5.97243 1
v  -10.059 -5.93305 1
v  9.76079 2.92208 1
v  8.83083 6.20197 1
v  9.84797 3.91786 1
v  9.88866 4.55359 1
v  9.91772 5.30745 1
v  9.92935 6.07257 1

# 0 UV coordinates

# 37 vertex normals
vn 0 0 -1
vn 0 0 1
vn 0.990645 -0.136462 0
vn 0.996523 -0.0833152 0
vn 0.99748 -0.0709421 0
vn 0.996207 -0.0870106 0
vn 0.998465 -0.0553849 0
vn 0.997528 -0.0702666 0
vn 0.996189 -0.0872197 0
vn 0.997958 -0.0638685 0
vn 0.999258 -0.038521 0
vn 0.999885 -0.0151913 0
vn 0.116982 0.993134 0
vn 0.085096 0.996373 0
vn 0.116914 0.993142 0
vn 0.0460431 0.998939 0
vn 0.114565 0.993416 0
vn 0.128324 0.991732 0
vn 0.0901976 0.995924 0
vn 0 1 0
vn -0.982351 0.187046 0
vn -0.988794 0.149287 0
vn -0.987879 0.155229 0
vn -0.991557 0.129672 0
vn -0.987004 0.160698 0
vn -0.997085 0.076305 0
vn -0.959089 -0.283104 0
vn -0.524451 -0.851441 0
vn -0.337464 -0.941339 0
vn -0.210287 -0.97764 0
vn -0.141796 -0.989896 0
vn -0.132121 -0.991234 0
vn -0.111733 -0.993738 0
vn -0.0899968 -0.995942 0
vn -0.0643949 -0.997924 0
vn -0.0345484 -0.999403 0
vn 0 -1 0

# Mesh 'OpenSCAD_Model' with 140 faces
g OpenSCAD_Model
usemtl DefaultMaterial
f  1//1 2//1 3//1
f  1//1 4//1 5//1
f  1//1 3//1 4//1
f  5//1 4//1 6//1
f  5//1 6//1 7//1
f  6//1 8//1 7//1
f  7//1 8//1 9//1
f  10//1 11//1 8//1
f  8//1 11//1 9//1
f  12//1 13//1 9//1
f  9//1 13//1 14//1
f  11//1 12//1 9//1
f  15//1 11//1 10//1
f  10//1 16//1 17//1
f  18//1 10//1 17//1
f  18//1 15//1 10//1
f  15//1 19//1 20//1
f  15//1 18//1 19//1
f  19//1 21//1 22//1
f  20//1 19//1 22//1
f  17//1 16//1 23//1
f  16//1 24//1 25//1
f  23//1 16//1 25//1
f  24//1 26//1 25//1
f  24//1 27//1 26//1
f  27//1 28//1 26//1
f  29//1 28//1 27//1
f  30//1 28//1 29//1
f  13//1 31//1 14//1
f  13//1 32//1 31//1
f  31//1 32//1 33//1
f  34//1 35//1 32//1
f  36//1 34//1 32//1
f  32//1 35//1 33//1
f  37//2 38//2 39//2
f  40//2 37//2 39//2
f  41//2 40//2 39//2
f  42//2 40//2 41//2
f  43//2 42//2 41//2
f  43//2 44//2 42//2
f  45//2 44//2 43//2
f  44//2 46//2 47//2
f  45//2 46//2 44//2
f  45//2 48//2 49//2
f  50//2 48//2 45//2
f  45//2 49//2 46//2
f  47//2 46//2 51//2
f  52//2 53//2 47//2
f  52//2 47//2 54//2
f  47//2 51//2 54//2
f  55//2 56//2 51//2
f  56//2 54//2 51//2
f  57//2 56//2 55//2
f  57//2 58//2 56//2
f  59//2 53//2 52//2
f  60//2 61//2 53//2
f  60//2 53//2 59//2
f  60//2 62//2 61//2
f  62//2 63//2 61//2
f  62//2 64//2 63//2
f  63//2 64//2 65//2
f  65//2 64//2 66//2
f  50//2 67//2 48//2
f  67//2 68//2 48//2
f  69//2 68//2 67//2
f  68//2 70//2 71//2
f  68//2 71//2 72//2
f  69//2 70//2 68//2
f  1//3 38//3 2//3
f  1//3 39//3 38//3
f  5//4 39//4 1//4
f  5//4 41//4 39//4
f  7//5 41//5 5//5
f  7//5 43//5 41//5
f  9//6 43//6 7//6
f  9//6 45//6 43//6
f  14//7 45//7 9//7
f  14//7 50//7 45//7
f  31//8 50//8 14//8
f  31//8 67//8 50//8
f  33//9 67//9 31//9
f  33//9 69//9 67//9
f  35//10 69//10 33//10
f  35//10 70//10 69//10
f  34//11 70//11 35//11
f  34//11 71//11 70//11
f  36//12 71//12 34//12
f  36//12 72//12 71//12
f  32//13 72//13 36//13
f  32//13 68//13 72//13
f  13//14 68//14 32//14
f  13//14 48//14 68//14
f  12//15 48//15 13//15
f  12//15 49//15 48//15
f  11//16 49//16 12//16
f  11//16 46//16 49//16
f  15//17 46//17 11//17
f  15//17 51//17 46//17
f  20//18 51//18 15//18
f  20//18 55//18 51//18
f  22//19 55//19 20//19
f  22//19 57//19 55//19
f  21//20 57//20 22//20
f  21//20 58//20 57//20
f  19//21 58//21 21//21
f  19//21 56//21 58//21
f  18//22 56//22 19//22
f  18//22 54//22 56//22
f  17//23 54//23 18//23
f  17//23 52//23 54//23
f  23//24 52//24 17//24
f  23//24 59//24 52//24
f  25//25 59//25 23//25
f  25//25 60//25 59//25
f  26//24 60//24 25//24
f  26//24 62//24 60//24
f  28//26 62//26 26//26
f  28//26 64//26 62//26
f  30//27 64//27 28//27
f  30//27 66//27 64//27
f  29//28 66//28 30//28
f  29//28 65//28 66//28
f  27//29 65//29 29//29
f  27//29 63//29 65//29
f  24//30 63//30 27//30
f  24//30 61//30 63//30
f  16//31 61//31 24//31
f  16//31 53//31 61//31
f  10//32 53//32 16//32
f  10//32 47//32 53//32
f  8//33 47//33 10//33
f  8//33 44//33 47//33
f  6//34 44//34 8//34
f  6//34 42//34 44//34
f  4//35 42//35 6//35
f  4//35 40//35 42//35
f  3//36 40//36 4//36
f  3//36 37//36 40//36
f  2//37 37//37 3//37
f  2//37 38//37 37//37

